STARTFONT 2.1
FONT -HP-Sammul-Bold-R-Normal--48-480-75-75-C-480-KSC5601.1987-1
SIZE 48 75 75
FONTBOUNDINGBOX 48 48 0 -6

STARTPROPERTIES 23
FONTNAME_REGISTRY ""
FOUNDRY "HP"
FAMILY_NAME "Sammul"
WEIGHT_NAME "Bold"
SLANT "R"
SETWIDTH_NAME "Normal"
ADD_STYLE_NAME ""
PIXEL_SIZE 48
POINT_SIZE 480
RESOLUTION_X 75
RESOLUTION_Y 75
SPACING "C"
AVERAGE_WIDTH 480
CHARSET_REGISTRY "KSC5601.1987"
CHARSET_ENCODING "1"
COPYRIGHT "Copyright (c) 1994 Samsung Hewlett-Packard Company."
WEIGHT 19463
X_HEIGHT 42
QUAD_WIDTH 48
_HP_ASXVERSION "@(#) ASX 3.00 $Revision: 13.9 $ samB48h"
DEFAULT_CHAR 41702
FONT_DESCENT 6
FONT_ASCENT 42
ENDPROPERTIES

CHARS 3337

STARTCHAR kor_A1A1
ENCODING 41377
SWIDTH 1024 0
DWIDTH 48 0
BBX 48 48 0 -6
BITMAP
000000000000
000000000000
000000000000
000000000000
000000000000
000000000000
000000000000
000000000000
000000000000
000000000000
000000000000
000000000000
000000000000
000000000000
000000000000
000000000000
000000000000
000000000000
000000000000
000000000000
000000000000
000000000000
000000000000
000000000000
000000000000
000000000000
000000000000
000000000000
000000000000
000000000000
000000000000
000000000000
000000000000
000000000000
000000000000
000000000000
000000000000
000000000000
000000000000
000000000000
000000000000
000000000000
000000000000
000000000000
000000000000
000000000000
000000000000
000000000000
ENDCHAR

STARTCHAR kor_A1A2
ENCODING 41378
SWIDTH 1024 0
DWIDTH 48 0
BBX 48 48 0 -6
BITMAP
000000000000
000000000000
000000000000
000000000000
000000001F00
000000001FC0
0000000007F0
0000000003F8
0000000001FC
0000000000FC
00000000007C
00000000003C
00000000003C
000000000000
000000000000
000000000000
000000000000
000000000000
000000000000
000000000000
000000000000
000000000000
000000000000
000000000000
000000000000
000000000000
000000000000
000000000000
000000000000
000000000000
000000000000
000000000000
000000000000
000000000000
000000000000
000000000000
000000000000
000000000000
000000000000
000000000000
000000000000
000000000000
000000000000
000000000000
000000000000
000000000000
000000000000
000000000000
ENDCHAR

STARTCHAR kor_A1A3
ENCODING 41379
SWIDTH 1024 0
DWIDTH 48 0
BBX 48 48 0 -6
BITMAP
000000000000
000000000000
000000000000
000000000000
000000000000
000000000000
000000000000
000000000000
000000000000
000000000000
000000000000
000000000000
000000000000
000000000000
000000000000
000000000000
000000000000
000003C00000
00000FF00000
00001FF80000
00003C3C0000
0000381C0000
0000300C0000
0000300C0000
0000301C0000
0000381C0000
00003C3C0000
00001FF80000
00000FF00000
000000000000
000000000000
000000000000
000000000000
000000000000
000000000000
000000000000
000000000000
000000000000
000000000000
000000000000
000000000000
000000000000
000000000000
000000000000
000000000000
000000000000
000000000000
000000000000
ENDCHAR

STARTCHAR kor_A1A4
ENCODING 41380
SWIDTH 1024 0
DWIDTH 48 0
BBX 48 48 0 -6
BITMAP
000000000000
000000000000
000000000000
000000000000
000000000000
000007E00000
00000FF00000
00000FF00000
00000FF00000
00000FF00000
00000FF00000
00000FF00000
000007C00000
000000000000
000000000000
000000000000
000000000000
000000000000
000000000000
000000000000
000000000000
000000000000
000000000000
000000000000
000000000000
000000000000
000000000000
000000000000
000000000000
000000000000
000000000000
000000000000
000000000000
000000000000
000000000000
000000000000
000000000000
000000000000
000000000000
000000000000
000000000000
000000000000
000000000000
000000000000
000000000000
000000000000
000000000000
000000000000
ENDCHAR

STARTCHAR kor_A1A5
ENCODING 41381
SWIDTH 1024 0
DWIDTH 48 0
BBX 48 48 0 -6
BITMAP
000000000000
000000000000
000000000000
000000000000
000000000000
000000000000
000000000000
000000000000
000000000000
000000000000
000000000000
000000000000
000000000000
000000000000
000000000000
000000000000
000000000000
000000000000
000000000000
000000000000
003E0000FC00
007F0000FE00
007F0000FE00
007F0000FE00
007F0000FE00
003E00007C00
000000000000
000000000000
000000000000
000000000000
000000000000
000000000000
000000000000
000000000000
000000000000
000000000000
000000000000
000000000000
000000000000
000000000000
000000000000
000000000000
000000000000
000000000000
000000000000
000000000000
000000000000
000000000000
ENDCHAR

STARTCHAR kor_A1A6
ENCODING 41382
SWIDTH 1024 0
DWIDTH 48 0
BBX 48 48 0 -6
BITMAP
000000000000
000000000000
000000000000
000000000000
000000000000
000000000000
000000000000
000000000000
000000000000
000000000000
000000000000
000000000000
000000000000
000000000000
000000000000
000000000000
000000000000
000000000000
000000000000
000000000000
03E007C00FC0
07F00FE00FC0
07F00FE00FC0
07F00FE00FC0
07F00FE00FC0
03E007C00F80
000000000000
000000000000
000000000000
000000000000
000000000000
000000000000
000000000000
000000000000
000000000000
000000000000
000000000000
000000000000
000000000000
000000000000
000000000000
000000000000
000000000000
000000000000
000000000000
000000000000
000000000000
000000000000
ENDCHAR

STARTCHAR kor_A1A7
ENCODING 41383
SWIDTH 1024 0
DWIDTH 48 0
BBX 48 48 0 -6
BITMAP
000000000000
000000000000
000000000000
000000000000
000000000000
003E00007800
007F0000FC00
007F0000FE00
007F0000FE00
007F0000FE00
007F0000FC00
003E00007C00
000000000000
000000000000
000000000000
000000000000
000000000000
000000000000
000000000000
000000000000
000000000000
000000000000
000000000000
000000000000
000000000000
000000000000
000000000000
000000000000
000000000000
000000000000
000000000000
000000000000
000000000000
000000000000
000000000000
000000000000
000000000000
000000000000
000000000000
000000000000
000000000000
000000000000
000000000000
000000000000
000000000000
000000000000
000000000000
000000000000
ENDCHAR

STARTCHAR kor_A1A8
ENCODING 41384
SWIDTH 1024 0
DWIDTH 48 0
BBX 48 48 0 -6
BITMAP
000000000000
000000000000
000000000000
000000000000
000000000000
000000000000
000000000000
000000000000
000000000000
000000000000
000000000000
000000000000
000000000000
000000000000
000006000000
00000F9F0000
00000F9F0000
00000F1E0000
00000F1E0000
00000F1E0000
00001E3C0000
00001E3C0000
00001C3C0000
00001C380000
00003C780000
000038700000
000038700000
000070600000
000070E00000
000060C00000
000060C00000
0000E0C00000
0000C0000000
000000000000
000000000000
000000000000
000000000000
000000000000
000000000000
000000000000
000000000000
000000000000
000000000000
000000000000
000000000000
000000000000
000000000000
000000000000
ENDCHAR

STARTCHAR kor_A1A9
ENCODING 41385
SWIDTH 1024 0
DWIDTH 48 0
BBX 48 48 0 -6
BITMAP
000000000000
000000000000
000000000000
000000000000
000000000000
000000000000
000000000000
000000000000
000000000000
000000000000
000000000000
000000000000
000000000000
000000000000
000000000000
000000000000
000000000000
000000000000
000000000000
000000000000
000000000000
000000000000
0000FFFF8000
0000FFFF8000
000000000000
000000000000
000000000000
000000000000
000000000000
000000000000
000000000000
000000000000
000000000000
000000000000
000000000000
000000000000
000000000000
000000000000
000000000000
000000000000
000000000000
000000000000
000000000000
000000000000
000000000000
000000000000
000000000000
000000000000
ENDCHAR

STARTCHAR kor_A1AA
ENCODING 41386
SWIDTH 1024 0
DWIDTH 48 0
BBX 48 48 0 -6
BITMAP
000000000000
000000000000
000000000000
000000000000
000000000000
000000000000
000000000000
000000000000
000000000000
000000000000
000000000000
000000000000
000000000000
000000000000
000000000000
000000000000
000000000000
000000000000
000000000000
000000000000
000000000000
000000000000
FFFFFFFFFFFF
FFFFFFFFFFFF
000000000000
000000000000
000000000000
000000000000
000000000000
000000000000
000000000000
000000000000
000000000000
000000000000
000000000000
000000000000
000000000000
000000000000
000000000000
000000000000
000000000000
000000000000
000000000000
000000000000
000000000000
000000000000
000000000000
000000000000
ENDCHAR

STARTCHAR kor_A1AB
ENCODING 41387
SWIDTH 1024 0
DWIDTH 48 0
BBX 48 48 0 -6
BITMAP
000000000000
000000000000
000000000000
000000000000
000000000000
000000000000
000000000000
0000381C0000
0000381C0000
0000381C0000
0000381C0000
0000381C0000
0000381C0000
0000381C0000
0000381C0000
0000381C0000
0000381C0000
0000381C0000
0000381C0000
0000381C0000
0000381C0000
0000381C0000
0000381C0000
0000381C0000
0000381C0000
0000381C0000
0000381C0000
0000381C0000
0000381C0000
0000381C0000
0000381C0000
0000381C0000
0000381C0000
0000381C0000
0000381C0000
0000381C0000
0000381C0000
0000381C0000
0000381C0000
000000000000
000000000000
000000000000
000000000000
000000000000
000000000000
000000000000
000000000000
000000000000
ENDCHAR

STARTCHAR kor_A1AC
ENCODING 41388
SWIDTH 1024 0
DWIDTH 48 0
BBX 48 48 0 -6
BITMAP
000000000000
300000000000
780000000000
7C0000000000
1E0000000000
0F0000000000
078000000000
03C000000000
01E000000000
00F000000000
007800000000
003C00000000
001E00000000
000F00000000
000780000000
0003C0000000
0001E0000000
0000F0000000
000078000000
00003C000000
00001E000000
00000F000000
000007800000
000003C00000
000001E00000
000000F00000
000000780000
0000003C0000
0000001E0000
0000000F0000
000000078000
00000003C000
00000001E000
00000000F000
000000007800
000000003C00
000000001E00
000000000F00
000000000780
0000000003C0
0000000001E0
0000000000F0
000000000078
00000000001C
00000000000E
000000000006
000000000000
000000000000
ENDCHAR

STARTCHAR kor_A1AD
ENCODING 41389
SWIDTH 1024 0
DWIDTH 48 0
BBX 48 48 0 -6
BITMAP
000000000000
000000000000
000000000000
000000000000
000000000000
000000000000
000000000000
000000000000
000000000000
000000000000
000000000000
000000000000
000000000000
000000000000
000000000000
000000000000
000000000000
000000000000
000000000000
000FF8000000
003FFF000180
00FFFFC00780
00F80FF81F80
00E003FFFF00
0000007FFC00
0000000FF000
000000000000
000000000000
000000000000
000000000000
000000000000
000000000000
000000000000
000000000000
000000000000
000000000000
000000000000
000000000000
000000000000
000000000000
000000000000
000000000000
000000000000
000000000000
000000000000
000000000000
000000000000
000000000000
ENDCHAR

STARTCHAR kor_A1AE
ENCODING 41390
SWIDTH 1024 0
DWIDTH 48 0
BBX 48 48 0 -6
BITMAP
000000000000
000000000000
000000000000
000000003800
000000007C00
00000000FC00
00000000F800
00000001F000
00000001F000
00000001E000
00000001FC00
00000001FC00
00000001FC00
00000001FC00
00000001FC00
00000001FC00
000000000000
000000000000
000000000000
000000000000
000000000000
000000000000
000000000000
000000000000
000000000000
000000000000
000000000000
000000000000
000000000000
000000000000
000000000000
000000000000
000000000000
000000000000
000000000000
000000000000
000000000000
000000000000
000000000000
000000000000
000000000000
000000000000
000000000000
000000000000
000000000000
000000000000
000000000000
000000000000
ENDCHAR

STARTCHAR kor_A1AF
ENCODING 41391
SWIDTH 1024 0
DWIDTH 48 0
BBX 48 48 0 -6
BITMAP
000000000000
000000000000
000000000000
001FC0000000
001FC0000000
001FC0000000
001FC0000000
001FC0000000
001FC0000000
0003C0000000
0007C0000000
0007C0000000
000F80000000
001F80000000
001F00000000
000E00000000
000000000000
000000000000
000000000000
000000000000
000000000000
000000000000
000000000000
000000000000
000000000000
000000000000
000000000000
000000000000
000000000000
000000000000
000000000000
000000000000
000000000000
000000000000
000000000000
000000000000
000000000000
000000000000
000000000000
000000000000
000000000000
000000000000
000000000000
000000000000
000000000000
000000000000
000000000000
000000000000
ENDCHAR

STARTCHAR kor_A1B0
ENCODING 41392
SWIDTH 1024 0
DWIDTH 48 0
BBX 48 48 0 -6
BITMAP
000000000000
000000000000
000000000000
0000000701C0
0000000F83E0
0000001F87E0
0000001F07C0
0000003E0F80
0000003E0F80
0000003C0F00
0000003F8FE0
0000003F8FE0
0000003F8FE0
0000003F8FE0
0000003F8FE0
0000003F8FE0
000000000000
000000000000
000000000000
000000000000
000000000000
000000000000
000000000000
000000000000
000000000000
000000000000
000000000000
000000000000
000000000000
000000000000
000000000000
000000000000
000000000000
000000000000
000000000000
000000000000
000000000000
000000000000
000000000000
000000000000
000000000000
000000000000
000000000000
000000000000
000000000000
000000000000
000000000000
000000000000
ENDCHAR

STARTCHAR kor_A1B1
ENCODING 41393
SWIDTH 1024 0
DWIDTH 48 0
BBX 48 48 0 -6
BITMAP
000000000000
000000000000
000000000000
07F1FC000000
07F1FC000000
07F1FC000000
07F1FC000000
07F1FC000000
07F1FC000000
00F03C000000
01F07C000000
01F07C000000
03E0F8000000
07E1F8000000
07C1F0000000
0380E0000000
000000000000
000000000000
000000000000
000000000000
000000000000
000000000000
000000000000
000000000000
000000000000
000000000000
000000000000
000000000000
000000000000
000000000000
000000000000
000000000000
000000000000
000000000000
000000000000
000000000000
000000000000
000000000000
000000000000
000000000000
000000000000
000000000000
000000000000
000000000000
000000000000
000000000000
000000000000
000000000000
ENDCHAR

STARTCHAR kor_A1B2
ENCODING 41394
SWIDTH 1024 0
DWIDTH 48 0
BBX 48 48 0 -6
BITMAP
0000000003E0
000000003FE0
00000001FF80
00000001F800
000000018000
000000018000
000000018000
000000018000
000000018000
000000018000
000000018000
000000018000
000000018000
000000018000
000000018000
000000018000
000000018000
000000018000
000000018000
000000018000
000000018000
000000018000
000000018000
000000018000
000000018000
000000018000
000000018000
000000018000
000000018000
000000018000
000000018000
000000018000
000000018000
000000018000
000000018000
000000018000
000000018000
000000018000
000000018000
000000018000
000000018000
00000001C000
00000001FC00
00000000FFC0
000000000FE0
0000000000E0
000000000000
000000000000
ENDCHAR

STARTCHAR kor_A1B3
ENCODING 41395
SWIDTH 1024 0
DWIDTH 48 0
BBX 48 48 0 -6
BITMAP
03C000000000
03FC00000000
01FFC0000000
000FC0000000
0000C0000000
0000C0000000
0000C0000000
0000C0000000
0000C0000000
0000C0000000
0000C0000000
0000C0000000
0000C0000000
0000C0000000
0000C0000000
0000C0000000
0000C0000000
0000C0000000
0000C0000000
0000C0000000
0000C0000000
0000C0000000
0000C0000000
0000C0000000
0000C0000000
0000C0000000
0000C0000000
0000C0000000
0000C0000000
0000C0000000
0000C0000000
0000C0000000
0000C0000000
0000C0000000
0000C0000000
0000C0000000
0000C0000000
0000C0000000
0000C0000000
0000C0000000
0000C0000000
0003C0000000
003FC0000000
03FF80000000
03F800000000
038000000000
000000000000
000000000000
ENDCHAR

STARTCHAR kor_A1B4
ENCODING 41396
SWIDTH 1024 0
DWIDTH 48 0
BBX 48 48 0 -6
BITMAP
000000000000
000000000060
0000000000E0
0000000001E0
0000000003C0
000000000380
000000000700
000000000F00
000000001E00
000000003C00
000000003800
000000007000
00000000F000
00000001E000
00000003C000
000000038000
000000070000
0000000F0000
0000001E0000
0000003C0000
000000380000
000000700000
000000F00000
000000F00000
000000780000
000000380000
0000001C0000
0000000E0000
0000000F0000
000000078000
00000003C000
00000001C000
00000000E000
00000000F000
000000007800
000000003C00
000000001C00
000000000E00
000000000700
000000000780
0000000003C0
0000000001C0
0000000000E0
000000000060
000000000000
000000000000
000000000000
000000000000
ENDCHAR

STARTCHAR kor_A1B5
ENCODING 41397
SWIDTH 1024 0
DWIDTH 48 0
BBX 48 48 0 -6
BITMAP
000000000000
030000000000
070000000000
078000000000
03C000000000
01E000000000
00E000000000
007000000000
007800000000
003C00000000
001E00000000
000F00000000
000700000000
000380000000
0003C0000000
0001E0000000
0000F0000000
000070000000
000038000000
00003C000000
00001E000000
00000F000000
000007000000
000007000000
00000E000000
00001C000000
00003C000000
000078000000
000070000000
0000E0000000
0001C0000000
0003C0000000
000780000000
000700000000
000E00000000
001C00000000
003C00000000
007800000000
00F000000000
00E000000000
01C000000000
03C000000000
078000000000
070000000000
000000000000
000000000000
000000000000
000000000000
ENDCHAR

STARTCHAR kor_A1B6
ENCODING 41398
SWIDTH 1024 0
DWIDTH 48 0
BBX 48 48 0 -6
BITMAP
000000000000
000000000338
000000000738
000000000F78
000000000E70
000000001EE0
000000001CE0
0000000039C0
000000003BC0
000000007380
00000000F780
00000000E700
00000001EE00
00000001CE00
000000039C00
00000007BC00
000000073800
0000000F7800
0000000E7000
0000001EE000
0000001CE000
00000039C000
0000007BC000
0000007BC000
00000039C000
0000001CE000
0000001EF000
0000000E7000
0000000F7800
000000073800
000000039C00
00000003DE00
00000001CE00
00000001EF00
00000000E700
000000007380
000000007BC0
0000000039C0
000000003DE0
000000001CE0
000000000E70
000000000F78
000000000738
000000000738
000000000300
000000000000
000000000000
000000000000
ENDCHAR

STARTCHAR kor_A1B7
ENCODING 41399
SWIDTH 1024 0
DWIDTH 48 0
BBX 48 48 0 -6
BITMAP
000000000000
1CE000000000
1CE000000000
0EF000000000
0E7000000000
073800000000
073800000000
039C00000000
03DE00000000
01CE00000000
00EF00000000
00E700000000
007380000000
007B80000000
0039C0000000
003DE0000000
001CE0000000
000EF0000000
000E70000000
000738000000
0007BC000000
00039C000000
0003DE000000
0003DE000000
00039C000000
000738000000
000F38000000
000E70000000
001EF0000000
001CE0000000
0039C0000000
0039C0000000
007380000000
00F780000000
00E700000000
01CE00000000
01CE00000000
039C00000000
07BC00000000
073800000000
0E7000000000
0E7000000000
1CE000000000
1CE000000000
0C6000000000
000000000000
000000000000
000000000000
ENDCHAR

STARTCHAR kor_A1B8
ENCODING 41400
SWIDTH 1024 0
DWIDTH 48 0
BBX 48 48 0 -6
BITMAP
000000000000
000000000000
00000007FFE0
00000007FFE0
000000070000
000000070000
000000070000
000000070000
000000070000
000000070000
000000070000
000000070000
000000070000
000000070000
000000070000
000000070000
000000070000
000000070000
000000070000
000000070000
000000070000
000000070000
000000070000
000000070000
000000070000
000000070000
000000070000
000000070000
000000070000
000000070000
000000070000
000000070000
000000070000
000000070000
000000070000
000000070000
000000070000
000000070000
000000070000
000000070000
000000070000
000000070000
000000070000
000000070000
000000000000
000000000000
000000000000
000000000000
ENDCHAR

STARTCHAR kor_A1B9
ENCODING 41401
SWIDTH 1024 0
DWIDTH 48 0
BBX 48 48 0 -6
BITMAP
000000000000
000000000000
000060000000
000060000000
000060000000
000060000000
000060000000
000060000000
000060000000
000060000000
000060000000
000060000000
000060000000
000060000000
000060000000
000060000000
000060000000
000060000000
000060000000
000060000000
000060000000
000060000000
000060000000
000060000000
000060000000
000060000000
000060000000
000060000000
000060000000
000060000000
000060000000
000060000000
000060000000
000060000000
000060000000
000060000000
000060000000
000060000000
000060000000
000060000000
000060000000
000060000000
1FFFE0000000
1FFFE0000000
000000000000
000000000000
000000000000
000000000000
ENDCHAR

STARTCHAR kor_A1BA
ENCODING 41402
SWIDTH 1024 0
DWIDTH 48 0
BBX 48 48 0 -6
BITMAP
00000001FFF8
00000001FFF8
00000001FFF8
000000018018
000000019FF8
000000019FF8
000000019800
000000019800
000000019800
000000019800
000000019800
000000019800
000000019800
000000019800
000000019800
000000019800
000000019800
000000019800
000000019800
000000019800
000000019800
000000019800
00000001F800
00000001F800
00000001F800
000000000000
000000000000
000000000000
000000000000
000000000000
000000000000
000000000000
000000000000
000000000000
000000000000
000000000000
000000000000
000000000000
000000000000
000000000000
000000000000
000000000000
000000000000
000000000000
000000000000
000000000000
000000000000
000000000000
ENDCHAR

STARTCHAR kor_A1BB
ENCODING 41403
SWIDTH 1024 0
DWIDTH 48 0
BBX 48 48 0 -6
BITMAP
000000000000
000000000000
000000000000
000000000000
000000000000
000000000000
000000000000
000000000000
000000000000
000000000000
000000000000
000000000000
000000000000
000000000000
000000000000
000000000000
000000000000
000000000000
000000000000
000000000000
000FE0000000
000FE0000000
000EE0000000
000EE0000000
000EE0000000
000EE0000000
000EE0000000
000EE0000000
000EE0000000
000EE0000000
000EE0000000
000EE0000000
000EE0000000
000EE0000000
000EE0000000
000EE0000000
000EE0000000
000EE0000000
0FFEE0000000
0FFEE0000000
0C00E0000000
0FFFE0000000
0FFFE0000000
000000000000
000000000000
000000000000
000000000000
000000000000
ENDCHAR

STARTCHAR kor_A1BC
ENCODING 41404
SWIDTH 1024 0
DWIDTH 48 0
BBX 48 48 0 -6
BITMAP
000000000000
000000000000
00000003FFF0
00000003FFF0
00000003FFE0
00000003FFC0
00000003FFC0
00000003FF80
00000003FF00
00000003FF00
00000003FF00
00000003FE00
00000003FE00
00000003FE00
00000003FC00
00000003FC00
00000003FC00
00000003FC00
00000003FC00
00000003FC00
00000003F800
00000003F800
00000003F800
00000003F800
00000003F800
00000003F800
00000003FC00
00000003FC00
00000003FC00
00000003FC00
00000003FC00
00000003FC00
00000003FE00
00000003FE00
00000003FE00
00000003FF00
00000003FF00
00000003FF00
00000003FF80
00000003FFC0
00000003FFC0
00000003FFE0
00000003FFF0
00000003FFF0
000000000000
000000000000
000000000000
000000000000
ENDCHAR

STARTCHAR kor_A1BD
ENCODING 41405
SWIDTH 1024 0
DWIDTH 48 0
BBX 48 48 0 -6
BITMAP
000000000000
000000000000
0FFFE0000000
0FFFE0000000
03FFE0000000
01FFE0000000
01FFE0000000
00FFE0000000
00FFE0000000
007FE0000000
007FE0000000
003FE0000000
003FE0000000
003FE0000000
001FE0000000
001FE0000000
001FE0000000
001FE0000000
001FE0000000
001FE0000000
001FE0000000
000FE0000000
000FE0000000
000FE0000000
000FE0000000
001FE0000000
001FE0000000
001FE0000000
001FE0000000
001FE0000000
001FE0000000
003FE0000000
003FE0000000
003FE0000000
003FE0000000
007FE0000000
007FE0000000
00FFE0000000
00FFE0000000
01FFE0000000
03FFE0000000
07FFE0000000
0FFFE0000000
0FFFE0000000
000000000000
000000000000
000000000000
000000000000
ENDCHAR

STARTCHAR kor_A1BE
ENCODING 41406
SWIDTH 1024 0
DWIDTH 48 0
BBX 48 48 0 -6
BITMAP
000000000000
000000000000
000000000000
000001C00000
000001C00000
000001C00000
000001C00000
000001C00000
000001C00000
000001C00000
000001C00000
000001C00000
000001C00000
000001C00000
000001C00000
00FFFFFFFF00
00FFFFFFFF00
00FFFFFFFF00
000001C00000
000001C00000
000001C00000
000001C00000
000001C00000
000001C00000
000001C00000
000001C00000
000001C00000
000001C00000
000001C00000
000001C00000
000000000000
000000000000
00FFFFFFFF00
00FFFFFFFF00
00FFFFFFFF00
000000000000
000000000000
000000000000
000000000000
000000000000
000000000000
000000000000
000000000000
000000000000
000000000000
000000000000
000000000000
000000000000
ENDCHAR

STARTCHAR kor_A1BF
ENCODING 41407
SWIDTH 1024 0
DWIDTH 48 0
BBX 48 48 0 -6
BITMAP
000000000000
000000000000
000000000000
000000000000
000000000000
000000000000
000000000000
000000000000
001800001800
003C00003800
003E00007800
001F0000F000
000F8001E000
0007C003C000
0003E0078000
0001F00F0000
0000F81E0000
00007C3C0000
00003E780000
00001FF00000
00000FE00000
000007C00000
000007E00000
00000FF00000
00001EF80000
00003C7C0000
0000783E0000
0000F01F0000
0001E00F8000
0003C007C000
00078003E000
000F0001F000
001E0000F800
003C00007C00
003800003C00
001800001800
000000000000
000000000000
000000000000
000000000000
000000000000
000000000000
000000000000
000000000000
000000000000
000000000000
000000000000
000000000000
ENDCHAR

STARTCHAR kor_A1C0
ENCODING 41408
SWIDTH 1024 0
DWIDTH 48 0
BBX 48 48 0 -6
BITMAP
000000000000
000000000000
000000000000
000000000000
000000000000
000000000000
000000000000
000000000000
000000000000
000003E00000
000007E00000
000007F00000
000007F00000
000007E00000
000003E00000
000000000000
000000000000
000000000000
000000000000
000000000000
000000000000
000000000000
00FFFFFFFF00
00FFFFFFFF00
000000000000
000000000000
000000000000
000000000000
000000000000
000000000000
000000000000
000003C00000
000007E00000
000007F00000
000007F00000
000007F00000
000003E00000
000000000000
000000000000
000000000000
000000000000
000000000000
000000000000
000000000000
000000000000
000000000000
000000000000
000000000000
ENDCHAR

STARTCHAR kor_A1C1
ENCODING 41409
SWIDTH 1024 0
DWIDTH 48 0
BBX 48 48 0 -6
BITMAP
000000000000
000000000000
000000000000
000000000000
000000000000
000000000000
000000000000
000038000000
000038000000
000038000000
000018000000
00001C000000
00001C000000
00001C000000
00000E000000
00000E000000
00000E000000
03FFFFFFFF00
03FFFFFFFF00
000007000000
000007000000
000003800000
000003800000
000003800000
000001800000
03FFFFFFFF00
03FFFFFFFF00
000001C00000
000000C00000
000000E00000
000000E00000
000000E00000
000000700000
000000700000
000000700000
000000300000
000000380000
000000180000
000000000000
000000000000
000000000000
000000000000
000000000000
000000000000
000000000000
000000000000
000000000000
000000000000
ENDCHAR

STARTCHAR kor_A1C2
ENCODING 41410
SWIDTH 1024 0
DWIDTH 48 0
BBX 48 48 0 -6
BITMAP
000000000000
000000000000
000000000000
000000000000
000000000000
000000000000
000000000300
000000000F00
000000007F00
00000001FC00
0000000FF000
0000003F8000
000000FE0000
000007F00000
00001FC00000
0000FF000000
0003F8000000
001FE0000000
007F00000000
00FC00000000
00FF80000000
001FE0000000
0003FC000000
00007F800000
00000FE00000
000003FC0000
0000007F8000
0000000FE000
00000003FC00
000000007F00
000000000F00
000000000300
000000000000
00FFFFFFFF80
00FFFFFFFF80
000000000000
000000000000
000000000000
000000000000
000000000000
000000000000
000000000000
000000000000
000000000000
000000000000
000000000000
000000000000
000000000000
ENDCHAR

STARTCHAR kor_A1C3
ENCODING 41411
SWIDTH 1024 0
DWIDTH 48 0
BBX 48 48 0 -6
BITMAP
000000000000
000000000000
000000000000
000000000000
000000000000
000000000000
006000000000
007800000000
007F00000000
003FC0000000
0007F0000000
0001FE000000
00007F800000
00000FE00000
000003F80000
000000FF0000
0000003FC000
00000007F000
00000001FE00
000000007F00
00000000FF00
00000007F800
0000001FE000
000000FF0000
000007FC0000
00001FE00000
0000FF800000
0003FC000000
001FE0000000
007F80000000
00FC00000000
00F000000000
000000000000
00FFFFFFFF00
00FFFFFFFF00
000000000000
000000000000
000000000000
000000000000
000000000000
000000000000
000000000000
000000000000
000000000000
000000000000
000000000000
000000000000
000000000000
ENDCHAR

STARTCHAR kor_A1C4
ENCODING 41412
SWIDTH 1024 0
DWIDTH 48 0
BBX 48 48 0 -6
BITMAP
000000000000
000000000000
000000000000
000000000000
000000000000
000000000000
000000000000
000000000000
000000000000
000000000000
000000000000
000000000000
001F8003F800
007FF00FFE00
01FFF81FFF00
03E07C3E0F80
03C03E7803C0
07800EF001C0
07000FE000E0
070007E000E0
060003C000E0
060003C00060
0E0003C000E0
0F0007C000E0
070007E000E0
07000FF001E0
07801E7801C0
03E03C7C03C0
01F8F83F0F80
00FFF01FFF00
003FC007FC00
00000000E000
000000000000
000000000000
000000000000
000000000000
000000000000
000000000000
000000000000
000000000000
000000000000
000000000000
000000000000
000000000000
000000000000
000000000000
000000000000
000000000000
ENDCHAR

STARTCHAR kor_A1C5
ENCODING 41413
SWIDTH 1024 0
DWIDTH 48 0
BBX 48 48 0 -6
BITMAP
000000000000
000000000000
000000000000
000000000000
000000000000
000000000000
000000000000
000000000000
000000000000
000003E00000
000007E00000
000007F00000
000007F00000
000007E00000
000003E00000
000000000000
000000000000
000000000000
000000000000
000000000000
000000000000
000000000000
000000000000
000000000000
000000000000
000000000000
000000000000
000000000000
001F0000FC00
003F8000FC00
003F8000FC00
003F8000FC00
003F8000FC00
001F00007800
000000000000
000000000000
000000000000
000000000000
000000000000
000000000000
000000000000
000000000000
000000000000
000000000000
000000000000
000000000000
000000000000
000000000000
ENDCHAR

STARTCHAR kor_A1C6
ENCODING 41414
SWIDTH 1024 0
DWIDTH 48 0
BBX 48 48 0 -6
BITMAP
000000000000
000000000000
000000000000
01F800000000
07FC00000000
0FFE00000000
0E0F00000000
0E0700000000
0C0700000000
0C0700000000
0C0700000000
0E0F00000000
0F1F00000000
07FE00000000
03FC00000000
000000000000
000000000000
000000000000
000000000000
000000000000
000000000000
000000000000
000000000000
000000000000
000000000000
000000000000
000000000000
000000000000
000000000000
000000000000
000000000000
000000000000
000000000000
000000000000
000000000000
000000000000
000000000000
000000000000
000000000000
000000000000
000000000000
000000000000
000000000000
000000000000
000000000000
000000000000
000000000000
000000000000
ENDCHAR

STARTCHAR kor_A1C7
ENCODING 41415
SWIDTH 1024 0
DWIDTH 48 0
BBX 48 48 0 -6
BITMAP
000000000000
000000000000
000000000000
000000000000
00FC00000000
00FC00000000
01F000000000
01F000000000
03E000000000
03C000000000
03C000000000
078000000000
070000000000
0E0000000000
0E0000000000
0C0000000000
1C0000000000
180000000000
000000000000
000000000000
000000000000
000000000000
000000000000
000000000000
000000000000
000000000000
000000000000
000000000000
000000000000
000000000000
000000000000
000000000000
000000000000
000000000000
000000000000
000000000000
000000000000
000000000000
000000000000
000000000000
000000000000
000000000000
000000000000
000000000000
000000000000
000000000000
000000000000
000000000000
ENDCHAR

STARTCHAR kor_A1C8
ENCODING 41416
SWIDTH 1024 0
DWIDTH 48 0
BBX 48 48 0 -6
BITMAP
000000000000
000000000000
000000000000
000000000000
007E7E000000
00FE7E000000
00F87C000000
00F8F8000000
01F0F8000000
01E1F0000000
03E1E0000000
03C1C0000000
0383C0000000
070380000000
070700000000
0E0600000000
0C0600000000
000000000000
000000000000
000000000000
000000000000
000000000000
000000000000
000000000000
000000000000
000000000000
000000000000
000000000000
000000000000
000000000000
000000000000
000000000000
000000000000
000000000000
000000000000
000000000000
000000000000
000000000000
000000000000
000000000000
000000000000
000000000000
000000000000
000000000000
000000000000
000000000000
000000000000
000000000000
ENDCHAR

STARTCHAR kor_A1C9
ENCODING 41417
SWIDTH 1024 0
DWIDTH 48 0
BBX 48 48 0 -6
BITMAP
000000000000
000000000000
000000000000
003C00000000
00FF00000000
00FF00000000
01E780000000
01C3807F8000
01C383FFF000
01E78FFFF800
00FF1FFFFC00
00FF3F80FE00
003C7E003E00
00007C001F00
0000F8001F00
0000F8000F80
0000F0000F80
0001F0000F80
0001F0000F80
0001E0000000
0001E0000000
0001E0000000
0001E0000000
0001E0000000
0001E0000000
0001E0000000
0001E0000000
0001E0000000
0001F0000F80
0001F0000F80
0000F0000F80
0000F8001F80
0000F8001F00
00007C003F00
00007E007E00
00003F81FE00
00001FFFFC00
00000FFFF800
000003FFF000
0000007FC000
000000000000
000000000000
000000000000
000000000000
000000000000
000000000000
000000000000
000000000000
ENDCHAR

STARTCHAR kor_A1CA
ENCODING 41418
SWIDTH 1024 0
DWIDTH 48 0
BBX 48 48 0 -6
BITMAP
00000FF00000
00000FF00000
00001E780000
00001C380000
00001C380000
00001E780000
00000FF00000
00000FF00000
000003C00000
000003C00000
000003C00000
000007E00000
000007E00000
00000FF00000
00000FF00000
00001FF80000
00001FF80000
00003FFC0000
00003E7C0000
00007E7E0000
00007C3E0000
0000FC3F0000
0000F81F0000
0001F81F8000
0001F00F8000
0003F00FC000
0003FFFFC000
0007FFFFE000
0007FFFFE000
000FFFFFF000
000F8001F000
001F8001F800
001F0000F800
003F0000FC00
003E00007C00
007E00007E00
007C00003E00
007C00003E00
000000000000
000000000000
000000000000
000000000000
000000000000
000000000000
000000000000
000000000000
000000000000
000000000000
ENDCHAR

STARTCHAR kor_A1CB
ENCODING 41419
SWIDTH 1024 0
DWIDTH 48 0
BBX 48 48 0 -6
BITMAP
000000000000
000000000000
000000000000
0000000E0000
0000000E0000
0000001E0000
0000001E0000
0000001C0000
0000001C0000
0000003C0000
000003FC0000
00000FFF0000
00001FFF8000
00003FFF8000
00007F7FC000
0000FCF7C000
0000F8F7C000
0001F8E7C000
0001F1E00000
0001F1E00000
0003F1C00000
0003E1C00000
0003E3C00000
0003E3C00000
0003E3800000
0003F78F8000
0001F78F8000
0001FF1F8000
0000FFFF0000
00007FFE0000
00003FFC0000
00000FE00000
00001E000000
00001E000000
00001C000000
00001C000000
00003C000000
00003C000000
000038000000
000078000000
000078000000
000070000000
000000000000
000000000000
000000000000
000000000000
000000000000
000000000000
ENDCHAR

STARTCHAR kor_A1CC
ENCODING 41420
SWIDTH 1024 0
DWIDTH 48 0
BBX 48 48 0 -6
BITMAP
000000000000
000000000000
000000000000
000000000000
000000000000
000000000000
000000000000
000001FE0000
000007FF8000
00000FFFC000
00001FFFE000
00001FC3E000
00003F01F000
00003E01F000
00003E01F000
00007C01F000
00007C01F000
00007C000000
00007C000000
00007C000000
00007C000000
00007C000000
00007C000000
00007E000000
000FFFFFF000
000FFFFFF000
000FFFFFF000
00003E000000
00001F000000
0001FF000000
0007FF000000
0007FF807000
000FFF807800
000F8FC0F800
000F1FF1F800
000FFFFFF000
000FFDFFF000
0007FCFFE000
0003F03F8000
000000000000
000000000000
000000000000
000000000000
000000000000
000000000000
000000000000
000000000000
000000000000
ENDCHAR

STARTCHAR kor_A1CD
ENCODING 41421
SWIDTH 1024 0
DWIDTH 48 0
BBX 48 48 0 -6
BITMAP
000000000000
000000000000
000000000000
003E00003E00
003F00007E00
001F00007C00
001F8000FC00
000FC001F800
0007C001F000
0007E003F000
0003F007E000
0001F007C000
0001F80FC000
0000FC1F8000
00007C1F0000
00007E3F0000
007FFFFFFF00
007FFFFFFF00
007FFFFFFF00
00000FF80000
000007F00000
000003E00000
007FFFFFFF00
007FFFFFFF00
007FFFFFFF00
000003E00000
000003E00000
000003E00000
000003E00000
000003E00000
000003E00000
000003E00000
000003E00000
000003E00000
000003E00000
000003E00000
000003E00000
000003E00000
000000000000
000000000000
000000000000
000000000000
000000000000
000000000000
000000000000
000000000000
000000000000
000000000000
ENDCHAR

STARTCHAR kor_A1CE
ENCODING 41422
SWIDTH 1024 0
DWIDTH 48 0
BBX 48 48 0 -6
BITMAP
000000000000
000001800000
000001800000
000003C00000
000007E00000
00000FF00000
00001FF80000
00001DF80000
00003DBC0000
0000799E0000
0000F18F0000
0001E1878000
0001C1878000
0003C183C000
00078181E000
000F0180F000
000E01807000
000C01807000
000001800000
000001800000
000001800000
000001800000
000001800000
000001800000
000001800000
000001800000
00003FF80000
00007FFC0000
0000783E0000
0000F00F0000
0001E00F0000
0001C0078000
0001C0038000
0001C0038000
0001C0038000
0001C0038000
0001C0038000
0001C0070000
0001E00F0000
0000F01F0000
00007C3E0000
00003FFC0000
00001FF00000
000000000000
000000000000
000000000000
000000000000
000000000000
ENDCHAR

STARTCHAR kor_A1CF
ENCODING 41423
SWIDTH 1024 0
DWIDTH 48 0
BBX 48 48 0 -6
BITMAP
000000000000
00000FF00000
00003FFC0000
00007FFE0000
0000781F0000
0000F00F0000
0001E0078000
0001C0038000
0001C0038000
0001C0038000
0001C0038000
0001C0038000
0001C0038000
0001E0078000
0000F0070000
0000780F0000
00007FFE0000
00003FFC0000
000007F00000
000001800000
000001800000
000001800000
000001800000
000001800000
000001800000
007FFFFFFE00
007FFFFFFE00
000001800000
000001800000
000001800000
000001800000
000001800000
000001800000
000001800000
000001800000
000001800000
000001800000
000001800000
000001800000
000001800000
000001800000
000001800000
000001800000
000001800000
000000000000
000000000000
000000000000
000000000000
ENDCHAR

STARTCHAR kor_A1D0
ENCODING 41424
SWIDTH 1024 0
DWIDTH 48 0
BBX 48 48 0 -6
BITMAP
000000000000
000000000000
000000000000
000000000000
000000000000
000000000000
000000000000
000000003000
000000007800
00000000F800
00000001E000
00000003C000
000000078000
0000000F0000
0000001E0000
0000003E0000
0000007C0000
000000F80000
000001F00000
000003E00000
000007C00000
000007800000
00000F000000
00001E000000
00003C000000
000078000000
0000F0000000
0001E0000000
0003C0000000
000780000000
000F00000000
001E00000000
003C00000000
007FFFFFFE00
007FFFFFFE00
000000000000
000000000000
000000000000
000000000000
000000000000
000000000000
000000000000
000000000000
000000000000
000000000000
000000000000
000000000000
000000000000
ENDCHAR

STARTCHAR kor_A1D1
ENCODING 41425
SWIDTH 1024 0
DWIDTH 48 0
BBX 48 48 0 -6
BITMAP
000000000000
000000000000
000000000000
000000000000
000000000000
000000000000
000000000000
000001800000
000001800000
000001800000
000001800000
000001800000
000001800000
000001800000
000001800000
000001800000
000001800000
000001800000
000001800000
000001800000
000001800000
000001800000
000001800000
000001800000
000001800000
000001800000
000001800000
000001800000
000001800000
000001800000
000001800000
000001800000
000001800000
00FFFFFFFF00
00FFFFFFFF00
00FFFFFFFF00
000000000000
000000000000
000000000000
000000000000
000000000000
000000000000
000000000000
000000000000
000000000000
000000000000
000000000000
000000000000
ENDCHAR

STARTCHAR kor_A1D2
ENCODING 41426
SWIDTH 1024 0
DWIDTH 48 0
BBX 48 48 0 -6
BITMAP
000000000000
000000000000
00001FF00000
00007FFC0000
0000FFFE0000
0001FFFF0000
0001F83F0000
0003E00F8000
0003C0078000
0003C0078000
000000000000
000000000000
000000000000
000000000000
000000000000
000000000000
000000000000
000000000000
000000000000
000000000000
000000000000
000000000000
000000000000
000000000000
000000000000
000000000000
000000000000
000000000000
000000000000
000000000000
000000000000
000000000000
000000000000
000000000000
000000000000
000000000000
000000000000
000000000000
000000000000
000000000000
000000000000
000000000000
000000000000
000000000000
000000000000
000000000000
000000000000
000000000000
ENDCHAR

STARTCHAR kor_A1D3
ENCODING 41427
SWIDTH 1024 0
DWIDTH 48 0
BBX 48 48 0 -6
BITMAP
000000000000
000000000000
000000000000
000000000000
000003F80000
00000FFE0000
00001FFF0000
00003FFF8000
00007F8F8000
00007E07C000
00003C07C000
00001803E000
00000003E000
00000003E000
00000003E000
00000003E000
00000003E000
00000003E000
00000FE3E000
00003FFBE000
00007FFFE000
0000FFFFE000
0001FC3FE000
0001F01FC000
0003E00FC000
0003E00FC000
0003C00FC000
0007C00F8000
0007C01F8000
0007C01F8000
0007C01F0000
0007C03F0000
0007C03E0000
0007E07C0000
0003F1FC0000
0003FFF80000
0001FFF00000
0000FFE00000
00003F800000
000000000000
000000000000
000000000000
000000000000
000000000000
000000000000
000000000000
000000000000
000000000000
ENDCHAR

STARTCHAR kor_A1D4
ENCODING 41428
SWIDTH 1024 0
DWIDTH 48 0
BBX 48 48 0 -6
BITMAP
000000000000
000000000000
000000000000
000000000000
000000000000
000000000000
000000000000
000000000000
07FFFFFFFFF0
07FFFFFFFFF0
03C0000001E0
01C0000001C0
00E000000380
00F000000780
007000000700
007800000E00
003800001E00
001C00001C00
001E00003C00
000E00003800
000700007000
00078000F000
00038000E000
0001C001C000
0001E003C000
0000E0038000
000070070000
0000780F0000
0000380E0000
00003C1C0000
00001C3C0000
00000E380000
00000F700000
000007700000
000003E00000
000003E00000
000001C00000
000000C00000
000000000000
000000000000
000000000000
000000000000
000000000000
000000000000
000000000000
000000000000
000000000000
000000000000
ENDCHAR

STARTCHAR kor_A1D5
ENCODING 41429
SWIDTH 1024 0
DWIDTH 48 0
BBX 48 48 0 -6
BITMAP
000000000000
000000000000
000000000000
000000000000
000000000000
000000000000
000000000000
000000000000
000000000000
000000000000
000000000000
000000000000
000000000000
000000000000
01FFFFFFFF80
01FFFFFFFF80
01FFFFFFFF80
000000000000
000000000000
000000000000
000000000000
000000000000
00FFFFFFFF80
00FFFFFFFF80
000000000000
000000000000
000000000000
000000000000
000000000000
01FFFFFFFF80
01FFFFFFFF80
01FFFFFFFF80
000000000000
000000000000
000000000000
000000000000
000000000000
000000000000
000000000000
000000000000
000000000000
000000000000
000000000000
000000000000
000000000000
000000000000
000000000000
000000000000
ENDCHAR

STARTCHAR kor_A1D6
ENCODING 41430
SWIDTH 1024 0
DWIDTH 48 0
BBX 48 48 0 -6
BITMAP
000000000000
000000000000
000000000000
000000000000
000000000000
000000000000
000000000000
000000000000
000000000000
000F80000000
000FC0000000
001FC0000000
001FC0000000
001FC0000000
000F80000000
000000000000
000000000000
000000000000
01FFFFFFFF80
01FFFFFFFF80
01FFFFFFFF80
000000000000
000000000000
000000000000
000000000000
000000000000
000000000000
01FFFFFFFF80
01FFFFFFFF80
000000000000
000000000000
000000000000
00000001F000
00000003F800
00000003F800
00000003F800
00000003F800
00000001F000
000000000000
000000000000
000000000000
000000000000
000000000000
000000000000
000000000000
000000000000
000000000000
000000000000
ENDCHAR

STARTCHAR kor_A1D7
ENCODING 41431
SWIDTH 1024 0
DWIDTH 48 0
BBX 48 48 0 -6
BITMAP
00000FF80000
00003FFE0000
00007FFF0000
00007FFF0000
0000FC1F8000
0000F80F8000
0000F80F8000
0000F80F8000
0000FC0F8000
0000FE000000
00007F000000
00007F800000
00003FC00000
00001FE00000
00000FF00000
000007F80000
00003FFC0000
0000FFFE0000
0001FFFF0000
0001FFFF8000
0003F03FC000
0003E01FC000
0003E00FE000
0003F007E000
0003F807E000
0001FC03E000
0001FE07E000
0000FFFFC000
00007FFFC000
00003FFF8000
00001FFE0000
00000FF00000
000007F80000
000003FC0000
000001FE0000
000000FF0000
0000007F0000
0001F03F8000
0001F01F8000
0001F00F8000
0001F00F8000
0001F81F8000
0000FFFF0000
0000FFFF0000
00007FFE0000
00001FF80000
000000000000
000000000000
ENDCHAR

STARTCHAR kor_A1D8
ENCODING 41432
SWIDTH 1024 0
DWIDTH 48 0
BBX 48 48 0 -6
BITMAP
000000000000
000000000000
000000000000
000000000000
000000000000
000000000000
000000000000
00E000000E00
00F007C01E00
00F80FE03E00
007C1FF07C00
003E1FF07800
001F1FF0F000
000F9FF1E000
0007CFF3C000
0003E7E78000
0001F00F0000
0000F81E0000
00007C3C0000
003FBE79F800
007F9FF3FC00
007FCFE3FE00
007FC7C3FE00
007FC7E3FE00
007FCFF3FC00
003F9EF9FC00
001F3C7CF800
0000783E0000
0000F01F0000
0001E7CF8000
0003CFE3C000
00079FF1E000
000F9FF0F000
001F1FF07800
003E1FF03C00
007C0FF01E00
00F80FE00F00
00F003C00700
006000000300
000000000000
000000000000
000000000000
000000000000
000000000000
000000000000
000000000000
000000000000
000000000000
ENDCHAR

STARTCHAR kor_A1D9
ENCODING 41433
SWIDTH 1024 0
DWIDTH 48 0
BBX 48 48 0 -6
BITMAP
000000000000
000000000000
000000000000
000000000000
000001C00000
000001C00000
000001C00000
000003E00000
000003E00000
000003E00000
000007F00000
000007700000
000007700000
00000F780000
00000E380000
00000E380000
00001E3C0000
07FFFC1FFFF0
07FFFC1FFFF0
07FFFC1FFFF0
01F0000007C0
00FC00001F80
007E00003F00
001F00007C00
000FC001F800
0007E003F000
0001E003C000
0000E0038000
0000E0038000
0001E1C3C000
0001C3E1C000
0001C7F1C000
0003CFF9E000
00039F7CE000
0003FE3FE000
0007FC1FF000
0007F007F000
0007E003F000
000FC001F800
000F00007800
000E00003800
000C00001800
000000000000
000000000000
000000000000
000000000000
000000000000
000000000000
ENDCHAR

STARTCHAR kor_A1DA
ENCODING 41434
SWIDTH 1024 0
DWIDTH 48 0
BBX 48 48 0 -6
BITMAP
000000000000
000000000000
000000000000
000000000000
000001C00000
000001C00000
000001C00000
000003E00000
000003E00000
000003E00000
000007F00000
000007F00000
000007F00000
00000FF80000
00000FF80000
00000FF80000
00001FFC0000
07FFFFFFFFF0
07FFFFFFFFF0
07FFFFFFFFF0
01FFFFFFFFC0
00FFFFFFFF80
007FFFFFFF00
001FFFFFFC00
000FFFFFF800
0007FFFFF000
0001FFFFC000
0000FFFF8000
0000FFFF8000
0001FFFFC000
0001FFFFC000
0001FFFFC000
0003FFFFE000
0003FF7FE000
0003FE3FE000
0007FC1FF000
0007F007F000
0007E003F000
000FC001F800
000F00007800
000E00003800
000C00001800
000000000000
000000000000
000000000000
000000000000
000000000000
000000000000
ENDCHAR

STARTCHAR kor_A1DB
ENCODING 41435
SWIDTH 1024 0
DWIDTH 48 0
BBX 48 48 0 -6
BITMAP
000000000000
000000000000
000000000000
00003FFC0000
0000FFFF8000
0007F01FE000
000F8003F800
001E00007C00
003C00001E00
007800000F00
00F000000780
01E000000380
01C0000003C0
0380000001C0
0300000000E0
0700000000E0
0700000000E0
060000000070
060000000070
0E0000000070
0E0000000070
0E0000000030
0E0000000030
0E0000000030
0E0000000030
0E0000000070
0E0000000070
060000000070
060000000070
0700000000E0
0700000000E0
0300000000E0
0380000001C0
01C0000003C0
01E000000780
00F000000700
007800000F00
003C00003E00
001E00007C00
000F8003F000
0003E01FE000
0000FFFF0000
00003FF80000
000000000000
000000000000
000000000000
000000000000
000000000000
ENDCHAR

STARTCHAR kor_A1DC
ENCODING 41436
SWIDTH 1024 0
DWIDTH 48 0
BBX 48 48 0 -6
BITMAP
000000000000
000000000000
000000000000
00003FFC0000
0000FFFF8000
0007FFFFE000
000FFFFFF800
001FFFFFFC00
003FFFFFFE00
007FFFFFFF00
00FFFFFFFF80
01FFFFFFFF80
01FFFFFFFFC0
03FFFFFFFFC0
03FFFFFFFFE0
07FFFFFFFFE0
07FFFFFFFFE0
07FFFFFFFFF0
07FFFFFFFFF0
0FFFFFFFFFF0
0FFFFFFFFFF0
0FFFFFFFFFF0
0FFFFFFFFFF0
0FFFFFFFFFF0
0FFFFFFFFFF0
0FFFFFFFFFF0
0FFFFFFFFFF0
07FFFFFFFFF0
07FFFFFFFFF0
07FFFFFFFFE0
07FFFFFFFFE0
03FFFFFFFFE0
03FFFFFFFFC0
01FFFFFFFFC0
01FFFFFFFF80
00FFFFFFFF00
007FFFFFFF00
003FFFFFFE00
001FFFFFFC00
000FFFFFF000
0003FFFFE000
0000FFFF0000
00001FF80000
000000000000
000000000000
000000000000
000000000000
000000000000
ENDCHAR

STARTCHAR kor_A1DD
ENCODING 41437
SWIDTH 1024 0
DWIDTH 48 0
BBX 48 48 0 -6
BITMAP
000000000000
000000000000
000000000000
00003FFC0000
0000FFFF8000
0007F01FE000
000F8003F800
001E00007C00
003C00001E00
00787FFE0F00
00F1FFFF8780
01E3FFFFC380
01C3FFFFE3C0
0387FFFFF1C0
030FFFFFF8E0
071FFFFFFCE0
071FFFFFFCE0
063FFFFFFC70
063FFFFFFE70
0E3FFFFFFE70
0E3FFFFFFE70
0E3FFFFFFE30
0E3FFFFFFE30
0E3FFFFFFE30
0E3FFFFFFE30
0E3FFFFFFE70
0E3FFFFFFE70
063FFFFFFE70
063FFFFFFC70
071FFFFFFCE0
071FFFFFF8E0
030FFFFFF0E0
0387FFFFF1C0
01C3FFFFE3C0
01E1FFFFC780
00F0FFFF8700
00783FFE0F00
003C00003E00
001E00007C00
000F8003F000
0003E01FE000
0000FFFF0000
00003FF80000
000000000000
000000000000
000000000000
000000000000
000000000000
ENDCHAR

STARTCHAR kor_A1DE
ENCODING 41438
SWIDTH 1024 0
DWIDTH 48 0
BBX 48 48 0 -6
BITMAP
000000000000
000003800000
000007C00000
00000FE00000
00001EF00000
00003C780000
0000783C0000
0000F01E0000
0001E00F0000
0003C0078000
00078003C000
000F0001E000
001E0000F000
003C00007800
007800003C00
00F000001E00
01E000000F00
03C000000780
0780000003C0
0F00000001E0
1E00000000F0
3C0000000078
38000000003C
3C000000003C
1E0000000078
0F00000000F0
0780000001E0
03C0000003C0
01E000000780
00F000000F00
007800001E00
003C00003C00
001E00007800
000F0000F000
00078001E000
0003C003C000
0001E0078000
0000F00F0000
0000781E0000
00003C3C0000
00001E780000
00000FF00000
000007E00000
000003C00000
000001800000
000000000000
000000000000
000000000000
ENDCHAR

STARTCHAR kor_A1DF
ENCODING 41439
SWIDTH 1024 0
DWIDTH 48 0
BBX 48 48 0 -6
BITMAP
000000000000
000003800000
000007C00000
00000FE00000
00001FF00000
00003FF80000
00007FFC0000
0000FFFE0000
0001FFFF0000
0003FFFF8000
0007FFFFC000
000FFFFFE000
001FFFFFF000
003FFFFFF800
007FFFFFFC00
00FFFFFFFE00
01FFFFFFFF00
03FFFFFFFF80
07FFFFFFFFC0
0FFFFFFFFFE0
1FFFFFFFFFF0
3FFFFFFFFFF8
3FFFFFFFFFFC
3FFFFFFFFFFC
1FFFFFFFFFF8
0FFFFFFFFFF0
07FFFFFFFFE0
03FFFFFFFFC0
01FFFFFFFF80
00FFFFFFFF00
007FFFFFFE00
003FFFFFFC00
001FFFFFF800
000FFFFFF000
0007FFFFE000
0003FFFFC000
0001FFFF8000
0000FFFF0000
00007FFE0000
00003FFC0000
00001FF80000
00000FF00000
000007E00000
000003C00000
000001800000
000000000000
000000000000
000000000000
ENDCHAR

STARTCHAR kor_A1E0
ENCODING 41440
SWIDTH 1024 0
DWIDTH 48 0
BBX 48 48 0 -6
BITMAP
000000000000
000000000000
000000000000
000000000000
07FFFFFFFFE0
07FFFFFFFFE0
070000000060
070000000060
070000000060
070000000060
070000000060
070000000060
070000000060
070000000060
070000000060
070000000060
070000000060
070000000060
070000000060
070000000060
070000000060
070000000060
070000000060
070000000060
070000000060
070000000060
070000000060
070000000060
070000000060
070000000060
070000000060
070000000060
070000000060
070000000060
070000000060
070000000060
070000000060
070000000060
070000000060
070000000060
07FFFFFFFFE0
07FFFFFFFFE0
000000000000
000000000000
000000000000
000000000000
000000000000
000000000000
ENDCHAR

STARTCHAR kor_A1E1
ENCODING 41441
SWIDTH 1024 0
DWIDTH 48 0
BBX 48 48 0 -6
BITMAP
000000000000
000000000000
000000000000
000000000000
07FFFFFFFFE0
07FFFFFFFFE0
07FFFFFFFFE0
07FFFFFFFFE0
07FFFFFFFFE0
07FFFFFFFFE0
07FFFFFFFFE0
07FFFFFFFFE0
07FFFFFFFFE0
07FFFFFFFFE0
07FFFFFFFFE0
07FFFFFFFFE0
07FFFFFFFFE0
07FFFFFFFFE0
07FFFFFFFFE0
07FFFFFFFFE0
07FFFFFFFFE0
07FFFFFFFFE0
07FFFFFFFFE0
07FFFFFFFFE0
07FFFFFFFFE0
07FFFFFFFFE0
07FFFFFFFFE0
07FFFFFFFFE0
07FFFFFFFFE0
07FFFFFFFFE0
07FFFFFFFFE0
07FFFFFFFFE0
07FFFFFFFFE0
07FFFFFFFFE0
07FFFFFFFFE0
07FFFFFFFFE0
07FFFFFFFFE0
07FFFFFFFFE0
07FFFFFFFFE0
07FFFFFFFFE0
07FFFFFFFFE0
07FFFFFFFFE0
000000000000
000000000000
000000000000
000000000000
000000000000
000000000000
ENDCHAR

STARTCHAR kor_A1E2
ENCODING 41442
SWIDTH 1024 0
DWIDTH 48 0
BBX 48 48 0 -6
BITMAP
000000000000
000000000000
000000000000
000000000000
000000000000
000000000000
000000000000
000000000000
000001800000
000003C00000
000003C00000
000007E00000
00000FF00000
00000E700000
00001C780000
00003C380000
0000381C0000
0000781E0000
0000F00E0000
0000E00F0000
0001E0078000
0003C0038000
00038003C000
00078001E000
000F0000E000
000E0000F000
001E00007000
003C00003800
003800003C00
007800001C00
00F000001E00
00E000000F00
01E000000700
03C000000780
0380000003C0
0780000001C0
0FFFFFFFFFE0
0FFFFFFFFFE0
000000000000
000000000000
000000000000
000000000000
000000000000
000000000000
000000000000
000000000000
000000000000
000000000000
ENDCHAR

STARTCHAR kor_A1E3
ENCODING 41443
SWIDTH 1024 0
DWIDTH 48 0
BBX 48 48 0 -6
BITMAP
000000000000
000000000000
000000000000
000000000000
000000000000
000000000000
000000000000
000000000000
000001800000
000003C00000
000003C00000
000007E00000
00000FF00000
00000FF00000
00001FF80000
00003FF80000
00003FFC0000
00007FFE0000
0000FFFE0000
0000FFFF0000
0001FFFF8000
0003FFFF8000
0003FFFFC000
0007FFFFE000
000FFFFFE000
000FFFFFF000
001FFFFFF000
003FFFFFF800
003FFFFFFC00
007FFFFFFC00
00FFFFFFFE00
00FFFFFFFF00
01FFFFFFFF00
03FFFFFFFF80
03FFFFFFFFC0
07FFFFFFFFC0
0FFFFFFFFFE0
0FFFFFFFFFE0
000000000000
000000000000
000000000000
000000000000
000000000000
000000000000
000000000000
000000000000
000000000000
000000000000
ENDCHAR

STARTCHAR kor_A1E4
ENCODING 41444
SWIDTH 1024 0
DWIDTH 48 0
BBX 48 48 0 -6
BITMAP
000000000000
000000000000
000000000000
000000000000
000000000000
000000000000
000000000000
000000000000
07FFFFFFFFF0
07FFFFFFFFF0
03C0000001E0
01C0000003C0
01E000000380
00F000000780
007000000700
007800000E00
003C00001E00
001C00001C00
001E00003C00
000E00007800
000F00007000
00078000F000
00038000E000
0003C001C000
0001E003C000
0000E0038000
0000F0070000
0000780F0000
0000380E0000
00003C1E0000
00001C1C0000
00000E380000
00000F780000
000007700000
000007E00000
000003E00000
000001C00000
000001C00000
000000000000
000000000000
000000000000
000000000000
000000000000
000000000000
000000000000
000000000000
000000000000
000000000000
ENDCHAR

STARTCHAR kor_A1E5
ENCODING 41445
SWIDTH 1024 0
DWIDTH 48 0
BBX 48 48 0 -6
BITMAP
000000000000
000000000000
000000000000
000000000000
000000000000
000000000000
000000000000
000000000000
07FFFFFFFFF0
07FFFFFFFFF0
03FFFFFFFFE0
01FFFFFFFFC0
01FFFFFFFF80
00FFFFFFFF80
007FFFFFFF00
007FFFFFFE00
003FFFFFFE00
001FFFFFFC00
001FFFFFFC00
000FFFFFF800
000FFFFFF000
0007FFFFF000
0003FFFFE000
0003FFFFC000
0001FFFFC000
0000FFFF8000
0000FFFF0000
00007FFF0000
00003FFE0000
00003FFE0000
00001FFC0000
00000FF80000
00000FF80000
000007F00000
000007E00000
000003E00000
000001C00000
000001C00000
000000000000
000000000000
000000000000
000000000000
000000000000
000000000000
000000000000
000000000000
000000000000
000000000000
ENDCHAR

STARTCHAR kor_A1E6
ENCODING 41446
SWIDTH 1024 0
DWIDTH 48 0
BBX 48 48 0 -6
BITMAP
000000000000
000000000000
000000000000
000000000000
000000000000
000000000000
000000000000
000000000000
000000000000
000000000000
000000000000
000000000000
000000000000
000000000000
00000000E000
00000000F000
000000007C00
000000003E00
000000001F80
000000000FC0
000000000FE0
3FFFFFFFFFF8
3FFFFFFFFFFC
3FFFFFFFFFFC
0000000007F0
000000000FC0
000000001F80
000000003E00
000000007C00
000000007000
00000000E000
00000000C000
000000000000
000000000000
000000000000
000000000000
000000000000
000000000000
000000000000
000000000000
000000000000
000000000000
000000000000
000000000000
000000000000
000000000000
000000000000
000000000000
ENDCHAR

STARTCHAR kor_A1E7
ENCODING 41447
SWIDTH 1024 0
DWIDTH 48 0
BBX 48 48 0 -6
BITMAP
000000000000
000000000000
000000000000
000000000000
000000000000
000000000000
000000000000
000000000000
000000000000
000000000000
000000000000
000000000000
000000000000
000000000000
000700000000
000F00000000
003E00000000
007C00000000
01F800000000
03F000000000
0FE000000000
1FFFFFFFFFFC
3FFFFFFFFFFC
3FFFFFFFFFFC
0FE000000000
07F000000000
01F800000000
00F800000000
003C00000000
001E00000000
000700000000
000300000000
000000000000
000000000000
000000000000
000000000000
000000000000
000000000000
000000000000
000000000000
000000000000
000000000000
000000000000
000000000000
000000000000
000000000000
000000000000
000000000000
ENDCHAR

STARTCHAR kor_A1E8
ENCODING 41448
SWIDTH 1024 0
DWIDTH 48 0
BBX 48 48 0 -6
BITMAP
000000000000
000001800000
000003C00000
000003C00000
000007E00000
00000FF00000
00000FF00000
00001FF80000
00003FFC0000
00003FBC0000
0000799E0000
0000F18F0000
0000E1870000
0000C183C000
00000181C000
000001800000
000001800000
000001800000
000001800000
000001800000
000001800000
000001800000
000001800000
000001800000
000001800000
000001800000
000001800000
000001800000
000001800000
000001800000
000001800000
000001800000
000001800000
000001800000
000001800000
000001800000
000001800000
000001800000
000001800000
000001800000
000001800000
000001800000
000001800000
000001800000
000001800000
000000000000
000000000000
000000000000
ENDCHAR

STARTCHAR kor_A1E9
ENCODING 41449
SWIDTH 1024 0
DWIDTH 48 0
BBX 48 48 0 -6
BITMAP
000000000000
000001C00000
000001C00000
000001C00000
000001C00000
000001C00000
000001C00000
000001C00000
000001C00000
000001C00000
000001C00000
000001C00000
000001C00000
000001C00000
000001C00000
000001C00000
000001C00000
000001C00000
000001C00000
000001C00000
000001C00000
000001C00000
000001C00000
000001C00000
000001C00000
000001C00000
000001C00000
000001C00000
000001C00000
000001C00000
000001C00000
000181C0C000
0001C1C3C000
0000E1C78000
0000F1CF0000
00007DDE0000
00003FFE0000
00003FFC0000
00001FF80000
00000FF80000
00000FF00000
000007E00000
000003E00000
000003C00000
000001800000
000000000000
000000000000
000000000000
ENDCHAR

STARTCHAR kor_A1EA
ENCODING 41450
SWIDTH 1024 0
DWIDTH 48 0
BBX 48 48 0 -6
BITMAP
000000000000
000000000000
000000000000
000000000000
000000000000
000000000000
000000000000
000000000000
000000000000
000000000000
000000000000
000000000000
000000000000
000000000000
000600003000
000E00003800
001C00003C00
007800001E00
00F800000F00
01F000000F80
03E0000007C0
07E0000003F0
0FFFFFFFFFF0
0FFFFFFFFFF0
07E0000007E0
03F0000007C0
00F000000F80
007800001E00
003C00001C00
001E00003800
000600003000
000600000000
000000000000
000000000000
000000000000
000000000000
000000000000
000000000000
000000000000
000000000000
000000000000
000000000000
000000000000
000000000000
000000000000
000000000000
000000000000
000000000000
ENDCHAR

STARTCHAR kor_A1EB
ENCODING 41451
SWIDTH 1024 0
DWIDTH 48 0
BBX 48 48 0 -6
BITMAP
000000000000
000000000000
000000000000
000000000000
000000000000
000000000000
000000000000
000000000000
000000000000
000000000000
000000000000
000000000000
000000000000
000000000000
000000000000
FFFFFFFFFFFE
FFFFFFFFFFFE
FFFFFFFFFFFE
000000000000
000000000000
000000000000
000000000000
000000000000
000000000000
000000000000
000000000000
000000000000
000000000000
FFFFFFFFFFFE
FFFFFFFFFFFE
FFFFFFFFFFFE
000000000000
000000000000
000000000000
000000000000
000000000000
000000000000
000000000000
000000000000
000000000000
000000000000
000000000000
000000000000
000000000000
000000000000
000000000000
000000000000
000000000000
ENDCHAR

STARTCHAR kor_A1EC
ENCODING 41452
SWIDTH 1024 0
DWIDTH 48 0
BBX 48 48 0 -6
BITMAP
000000000000
000000000000
000000000000
000000000000
000000000000
0000000600C0
0000000F01E0
0000003F07E0
0000007C0F80
000001F83F00
000003E07C00
00000FC1F800
00001F03E000
00007E0FC000
0000F81F0000
0003F07E0000
0007C0F80000
001F83F00000
003E07C00000
00FC1F800000
01F03E000000
07E0FC000000
0780F0000000
07E0FC000000
01F03E000000
00FC1F800000
003E07C00000
001F83F00000
0007C0F80000
0003F07E0000
0000F81F0000
00007E0FC000
00001F03E000
00000F81F000
000003E07C00
000001F03E00
0000007C0F80
0000003E07C0
0000000F01E0
0000000700E0
000000000000
000000000000
000000000000
000000000000
000000000000
000000000000
000000000000
000000000000
ENDCHAR

STARTCHAR kor_A1ED
ENCODING 41453
SWIDTH 1024 0
DWIDTH 48 0
BBX 48 48 0 -6
BITMAP
000000000000
000000000000
000000000000
000000000000
000000000000
0600E0000000
0F80F0000000
0FC0F8000000
03F03E000000
00F81F000000
007C07C00000
001F03E00000
000F80F80000
0003E07C0000
0001F01F0000
00007C0F8000
00003E07E000
00000F81F000
000007C0FC00
000003F03E00
000000F81F80
0000007E07C0
0000001E03E0
0000007E07E0
000000F81F00
000003F03E00
000007C0FC00
00001F81F000
00003E07E000
0000FC0F8000
0001F03F0000
0007E07C0000
000F81F80000
003F03E00000
007C0FC00000
01F81F000000
03E07E000000
0FC0F8000000
0F01F0000000
0601C0000000
000000000000
000000000000
000000000000
000000000000
000000000000
000000000000
000000000000
000000000000
ENDCHAR

STARTCHAR kor_A1EE
ENCODING 41454
SWIDTH 1024 0
DWIDTH 48 0
BBX 48 48 0 -6
BITMAP
0000003FFFFF
0000003FFFFF
000000380000
000000700000
000000700000
000000700000
000000E00000
000000E00000
000000E00000
000001C00000
000001C00000
000001C00000
000003800000
000003800000
000007000000
000007000000
000007000000
00000E000000
00000E000000
00000E000000
00001C000000
00001C000000
00001C000000
000038000000
006038000000
00E030000000
01E070000000
03E070000000
07F0E0000000
0FF0E0000000
1FF0E0000000
1CF9C0000000
00F9C0000000
007DC0000000
007F80000000
007F80000000
003F80000000
003F00000000
001F00000000
001E00000000
001E00000000
000E00000000
000E00000000
000600000000
000000000000
000000000000
000000000000
000000000000
ENDCHAR

STARTCHAR kor_A1EF
ENCODING 41455
SWIDTH 1024 0
DWIDTH 48 0
BBX 48 48 0 -6
BITMAP
000000000000
000000000000
000000000000
000000000000
000000000000
000000000000
000000000000
000000000000
000000000000
000000000000
000000000000
000000000000
000000000000
000F8000F000
007FF007FE00
00FFF01FFF00
01F0703E0F80
03C0007C03C0
0380007801E0
078000F000E0
070000E000E0
070001E00060
070001C00070
070003C00070
070003800070
0700078000E0
07800F0000E0
03800F0001E0
03C01E0003C0
01F07C070F80
00FFF80FFF00
003FF00FFC00
000000006000
000000000000
000000000000
000000000000
000000000000
000000000000
000000000000
000000000000
000000000000
000000000000
000000000000
000000000000
000000000000
000000000000
000000000000
000000000000
ENDCHAR

STARTCHAR kor_A1F0
ENCODING 41456
SWIDTH 1024 0
DWIDTH 48 0
BBX 48 48 0 -6
BITMAP
000000000000
000000000000
000000000000
000000000000
000000000000
000000000000
000000000000
000000000000
000000000000
000000000000
000000000000
000000000000
000000000000
007FC007FC00
00FFF01FFE00
01F8F83FBE00
03C03C7C0000
03801E780000
07800FF00000
07000FE00000
070007E00000
070003C00000
0E0003C00000
0E0007C00000
070007E00000
07000FE00000
07801EF00000
03C01E780000
03E07C3C0600
01FDF83FBE00
00FFF00FFE00
003FC007F800
000000000000
000000000000
000000000000
000000000000
000000000000
000000000000
000000000000
000000000000
000000000000
000000000000
000000000000
000000000000
000000000000
000000000000
000000000000
000000000000
ENDCHAR

STARTCHAR kor_A1F1
ENCODING 41457
SWIDTH 1024 0
DWIDTH 48 0
BBX 48 48 0 -6
BITMAP
000000000000
000000000000
000000000000
000000000000
000000000000
003E00007800
007F0000FC00
007F0000FE00
007F0000FE00
007F0000FE00
007F0000FC00
003E00007C00
000000000000
000000000000
000000000000
000000000000
000000000000
000000000000
000000000000
000000000000
000000000000
000000000000
000000000000
000000000000
000000000000
000000000000
000000000000
000000000000
000000000000
000007C00000
00000FE00000
00000FE00000
00000FE00000
00000FE00000
000007C00000
000000000000
000000000000
000000000000
000000000000
000000000000
000000000000
000000000000
000000000000
000000000000
000000000000
000000000000
000000000000
000000000000
ENDCHAR

STARTCHAR kor_A1F2
ENCODING 41458
SWIDTH 1024 0
DWIDTH 48 0
BBX 48 48 0 -6
BITMAP
000000000000
000000000000
000007E00000
00001FF80000
00001FF80000
00003FFC0000
00003E7C0000
00003C3C0000
00003C3C0000
00003C000000
00003C000000
00003C000000
00003C000000
00003C000000
00003C000000
00003E000000
00001E000000
00001E000000
00001E000000
00001F000000
00000F000000
00000F000000
00000F800000
000007800000
000007C00000
000003C00000
000003C00000
000003E00000
000001E00000
000001E00000
000001E00000
000001F00000
000000F00000
000000F00000
000000F00000
000000F00000
000000F00000
000000F00000
0000F0F00000
0000F0F00000
0000F9F00000
0000FFF00000
00007FE00000
00007FE00000
00001F800000
000000000000
000000000000
000000000000
ENDCHAR

STARTCHAR kor_A1F3
ENCODING 41459
SWIDTH 1024 0
DWIDTH 48 0
BBX 48 48 0 -6
BITMAP
000000000000
000000000000
0000F80F8000
0003FE3FE000
0003FE3FE000
0007FF7FF000
0007DF7DF000
00078F78F000
00078F78F000
000780780000
000780780000
000780780000
000780780000
000780780000
000780780000
000780780000
0007C07C0000
0003C03C0000
0003C03C0000
0003C03C0000
0003E03E0000
0001E01E0000
0001E01E0000
0001F01F0000
0000F00F0000
0000F00F0000
0000F80F8000
000078078000
000078078000
000078078000
00007C07C000
00003C03C000
00003C03C000
00003C03C000
00003C03C000
00003C03C000
00003C03C000
00003C03C000
001E3DE3C000
001E3DE3C000
001F7DF7C000
001FFDFFC000
000FF8FF8000
000FF8FF8000
0003E03E0000
000000000000
000000000000
000000000000
ENDCHAR

STARTCHAR kor_A1F4
ENCODING 41460
SWIDTH 1024 0
DWIDTH 48 0
BBX 48 48 0 -6
BITMAP
000000000000
000000000000
000000000000
000000000000
000000000000
000000000000
000000000000
000000000000
000000000000
0003FFFFFF80
000FFFFFFF80
001FFFFFFF80
003E00000000
007800000000
00F000000000
00E000000000
01E000000000
01C000000000
03C000000000
038000000000
038000000000
03FFFFFFFF80
03FFFFFFFF80
03FFFFFFFF80
038000000000
038000000000
01C000000000
01C000000000
01E000000000
00F000000000
00F800000000
007C00000000
003F00000000
001FFFFFFF80
0007FFFFFF80
0001FFFFFF80
000000000000
000000000000
000000000000
000000000000
000000000000
000000000000
000000000000
000000000000
000000000000
000000000000
000000000000
000000000000
ENDCHAR

STARTCHAR kor_A1F5
ENCODING 41461
SWIDTH 1024 0
DWIDTH 48 0
BBX 48 48 0 -6
BITMAP
000000000000
000000000000
000000000000
000000000000
000000000000
000000000000
000000000000
000000000000
000000000000
01FFFFFFC000
01FFFFFFF000
00000003F800
000000007C00
000000001E00
000000000F00
000000000700
000000000780
000000000380
000000000380
0000000003C0
0000000001C0
01FFFFFFFFC0
01FFFFFFFFC0
01FFFFFFFFC0
0000000001C0
000000000380
000000000380
000000000380
000000000780
000000000F00
000000001F00
000000003E00
00000000FC00
01FFFFFFF800
01FFFFFFE000
01FFFFFF8000
000000000000
000000000000
000000000000
000000000000
000000000000
000000000000
000000000000
000000000000
000000000000
000000000000
000000000000
000000000000
ENDCHAR

STARTCHAR kor_A1F6
ENCODING 41462
SWIDTH 1024 0
DWIDTH 48 0
BBX 48 48 0 -6
BITMAP
000000000000
000000000000
000000000000
000000000000
000000000000
000000000000
000000000000
000000000000
0003FFFFFE00
000FFFFFFE00
001F80000000
003C00000000
007800000000
007000000000
007000000000
00E000000000
00E000000000
00E000000000
00E000000000
00E000000000
00E000000000
007000000000
007000000000
007800000000
003E00000000
001F80000000
000FFFFFFE00
0003FFFFFE00
000000000000
000000000000
000000000000
000000000000
000000000000
000000000000
00FFFFFFFE00
00FFFFFFFE00
00FFFFFFFE00
000000000000
000000000000
000000000000
000000000000
000000000000
000000000000
000000000000
000000000000
000000000000
000000000000
000000000000
ENDCHAR

STARTCHAR kor_A1F7
ENCODING 41463
SWIDTH 1024 0
DWIDTH 48 0
BBX 48 48 0 -6
BITMAP
000000000000
000000000000
000000000000
000000000000
000000000000
000000000000
000000000000
000000000000
007FFFFFC000
007FFFFFF000
00000001F800
000000007C00
000000003C00
000000001E00
000000000E00
000000000F00
000000000700
000000000700
000000000700
000000000700
000000000700
000000000E00
000000000E00
000000001E00
000000003C00
00000000F800
007FFFFFF000
007FFFFFE000
007FFFFF0000
000000000000
000000000000
000000000000
000000000000
000000000000
007FFFFFFE00
007FFFFFFE00
007FFFFFFE00
000000000000
000000000000
000000000000
000000000000
000000000000
000000000000
000000000000
000000000000
000000000000
000000000000
000000000000
ENDCHAR

STARTCHAR kor_A1F8
ENCODING 41464
SWIDTH 1024 0
DWIDTH 48 0
BBX 48 48 0 -6
BITMAP
000000000000
000000000000
000000000000
000000000000
000000000000
000000000000
000000000000
000000000000
000000000000
0003FFFFFF80
000FFFFFFF80
001FFFFFFF80
003E00000000
007800000000
00F000000000
00E000000000
01E000000000
01C000000000
03C000000000
038000000000
038000000000
038000000000
038000000000
038000000000
038000000000
038000000000
01C000000000
01C000000000
01E000000000
00F000000000
00F000000000
007C00000000
003F00000000
001FFFFFFF80
0007FFFFFF80
0001FFFFFF80
000000000000
000000000000
000000000000
000000000000
000000000000
000000000000
000000000000
000000000000
000000000000
000000000000
000000000000
000000000000
ENDCHAR

STARTCHAR kor_A1F9
ENCODING 41465
SWIDTH 1024 0
DWIDTH 48 0
BBX 48 48 0 -6
BITMAP
000000000000
000000000000
000000000000
000000000000
000000000000
000000000000
000000000000
000000000000
000000000000
01FFFFFFC000
01FFFFFFF000
00000003F800
000000007C00
000000001E00
000000000F00
000000000700
000000000780
000000000380
000000000380
0000000003C0
0000000001C0
0000000001C0
0000000001C0
0000000001C0
0000000001C0
000000000380
000000000380
000000000380
000000000780
000000000F00
000000001F00
000000003E00
00000000FC00
01FFFFFFF800
01FFFFFFE000
01FFFFFF8000
000000000000
000000000000
000000000000
000000000000
000000000000
000000000000
000000000000
000000000000
000000000000
000000000000
000000000000
000000000000
ENDCHAR

STARTCHAR kor_A1FA
ENCODING 41466
SWIDTH 1024 0
DWIDTH 48 0
BBX 48 48 0 -6
BITMAP
000000000000
000000000000
000000000000
000000000000
000000000000
003800001C00
003800001C00
003800001C00
003800001C00
003800001C00
003800001C00
003800001C00
003800001C00
003800001C00
003800001C00
003800001C00
003800001C00
003800001C00
003800001C00
003800001C00
003800001C00
003800001C00
003800001C00
003800001C00
003800001C00
003800001C00
003800001C00
003800001C00
003800001C00
003800003C00
003C00003800
001C00007800
001E00007800
000E0000F000
000F0001F000
00078003E000
0003E00FC000
0001FC7F0000
0000FFFE0000
00001FF00000
000000000000
000000000000
000000000000
000000000000
000000000000
000000000000
000000000000
000000000000
ENDCHAR

STARTCHAR kor_A1FB
ENCODING 41467
SWIDTH 1024 0
DWIDTH 48 0
BBX 48 48 0 -6
BITMAP
000000000000
000000000000
000000000000
000000000000
000000000000
000007E00000
00003FFC0000
0000FFFF0000
0003F01F8000
0007C003C000
000F8001E000
000F0000F000
001E00007000
001C00007800
003C00003800
003800003C00
003800001C00
003800001C00
003800001C00
003800001C00
003800001C00
003800001C00
003800001C00
003800001C00
003800001C00
003800001C00
003800001C00
003800001C00
003800001C00
003800001C00
003800001C00
003800001C00
003800001C00
003800001C00
003800001C00
003800001C00
003800001C00
003800001C00
003800001C00
003800001C00
003800001C00
000000000000
000000000000
000000000000
000000000000
000000000000
000000000000
000000000000
ENDCHAR

STARTCHAR kor_A1FC
ENCODING 41468
SWIDTH 1024 0
DWIDTH 48 0
BBX 48 48 0 -6
BITMAP
000000000000
000000000000
000000000000
000000000000
000000000000
000000000000
000000000000
000001800000
000003800000
000003C00000
000007C00000
000007E00000
00000FE00000
00000E700000
00001E700000
00001C380000
00003C380000
0000381C0000
0000701C0000
0000700E0000
0000E00F0000
0000E0070000
0001C0078000
0001C0038000
00038003C000
00038001C000
00070001E000
00070000E000
000E0000F000
001E00007000
001C00007800
003C00003800
003800003C00
007800001C00
007000001E00
00F000000E00
00E000000F00
006000000700
000000000000
000000000000
000000000000
000000000000
000000000000
000000000000
000000000000
000000000000
000000000000
000000000000
ENDCHAR

STARTCHAR kor_A1FD
ENCODING 41469
SWIDTH 1024 0
DWIDTH 48 0
BBX 48 48 0 -6
BITMAP
000000000000
000000000000
000000000000
000000000000
000000000000
000000000000
000000000000
00E000000600
00E000000F00
00F000000F00
007000001E00
007800001C00
003800003C00
001C00003800
001C00007800
000E00007000
000F0000F000
00070000E000
00078001E000
00038001C000
0003C003C000
0001C0038000
0001E0078000
0000E0070000
0000F00F0000
0000700E0000
0000781E0000
0000381C0000
00003C3C0000
00001C380000
00001E700000
00000E700000
00000FE00000
000007E00000
000003C00000
000003C00000
000001800000
000001800000
000000000000
000000000000
000000000000
000000000000
000000000000
000000000000
000000000000
000000000000
000000000000
000000000000
ENDCHAR

STARTCHAR kor_A1FE
ENCODING 41470
SWIDTH 1024 0
DWIDTH 48 0
BBX 48 48 0 -6
BITMAP
000000000000
000000000000
000000000000
000000000000
000000000000
07FFFFFFFFE0
07FFFFFFFFE0
07FFFFFFFFE0
000000000060
000000000060
000000000060
000000000060
000000000060
000000000060
000000000060
000000000060
000000000060
000000000060
000000000060
000000000060
000000000060
000000000000
000000000000
000000000000
000000000000
000000000000
000000000000
000000000000
000000000000
000000000000
000000000000
000000000000
000000000000
000000000000
000000000000
000000000000
000000000000
000000000000
000000000000
000000000000
000000000000
000000000000
000000000000
000000000000
000000000000
000000000000
000000000000
000000000000
ENDCHAR

STARTCHAR kor_A2A1
ENCODING 41633
SWIDTH 1024 0
DWIDTH 48 0
BBX 48 48 0 -6
BITMAP
000000000000
000000000000
000000000000
000000000000
000000000000
000000C00000
000000E00000
000000F00000
000000780000
0000003C0000
0000001E0000
0000000F0000
00FFFFFF0000
00FFFFFF8000
00000003C000
00000001E000
00000000F000
000000007800
000000003800
000000001C00
000000001E00
000000000F00
000000000780
000000000780
000000000F00
000000001E00
000000003C00
000000003800
000000007000
00000000F000
00000001E000
00FFFFFFC000
00FFFFFF8000
00FFFFFF0000
0000000F0000
0000001E0000
0000003C0000
000000380000
000000700000
000000F00000
000000E00000
000000600000
000000000000
000000000000
000000000000
000000000000
000000000000
000000000000
ENDCHAR

STARTCHAR kor_A2A2
ENCODING 41634
SWIDTH 1024 0
DWIDTH 48 0
BBX 48 48 0 -6
BITMAP
000000000000
000000000000
000000000000
000000000000
000000000000
000000000000
000000000000
000000000000
000000000000
000000000000
000180030000
0003C0038000
0007C003C000
000F8001E000
001F0000F000
003C00007800
007800003C00
00FFFFFFFE00
01FFFFFFFF00
03C000000780
0780000003C0
0F00000001E0
1E00000000F0
1F00000000F0
0780000001E0
07C0000003C0
03FFFFFFFF80
01FFFFFFFF00
00FFFFFFFE00
007C00003C00
003E00007800
001F0000F000
000F8001E000
0007C003C000
0003C0038000
000180018000
000000000000
000000000000
000000000000
000000000000
000000000000
000000000000
000000000000
000000000000
000000000000
000000000000
000000000000
000000000000
ENDCHAR

STARTCHAR kor_A2A3
ENCODING 41635
SWIDTH 1024 0
DWIDTH 48 0
BBX 48 48 0 -6
BITMAP
000000000000
000000000000
01C000000380
01C000000380
01E000000780
00E000000700
00E000000700
00F000000F00
007000000E00
007800001E00
003800001C00
003C00003C00
001C00003800
001C00003800
000FFFFFF000
000FFFFFF000
000F0000F000
00070000E000
00078001E000
00038001C000
0003C001C000
0001C0038000
0001C0038000
0000E0078000
0000E0070000
0000F00F0000
0000700E0000
0000780E0000
0000381C0000
0000381C0000
00001C3C0000
00001C380000
00001E780000
00000E700000
00000F700000
000007E00000
000007E00000
000003C00000
000003C00000
000001C00000
000001800000
000001800000
000000000000
000000000000
000000000000
000000000000
000000000000
000000000000
ENDCHAR

STARTCHAR kor_A2A4
ENCODING 41636
SWIDTH 1024 0
DWIDTH 48 0
BBX 48 48 0 -6
BITMAP
000000000000
000000000000
000000000000
000000000000
000000000000
001FFFFFF000
001FFFFFF000
000000007000
000000007000
000000007000
000000007000
000000007000
000000007000
000000007000
000000007000
000000007000
000000007000
000000007000
000000007000
000000007000
001FFFFFF000
001FFFFFF000
001FFFFFF000
000000007000
000000007000
000000007000
000000007000
000000007000
000000007000
000000007000
000000007000
000000007000
000000007000
000000007000
000000007000
000000007000
001FFFFFF000
001FFFFFF000
001FFFFFF000
000000000000
000000000000
000000000000
000000000000
000000000000
000000000000
000000000000
000000000000
000000000000
ENDCHAR

STARTCHAR kor_A2A5
ENCODING 41637
SWIDTH 1024 0
DWIDTH 48 0
BBX 48 48 0 -6
BITMAP
000000000000
000000000000
000007FC0000
000007FC0000
00000FE00000
00000FC00000
00001F000000
00001E000000
00003C000000
000030000000
000000000000
000000000000
000000000000
000000000000
000000000000
000000000000
000000000000
000000000000
000000000000
000000000000
000000000000
000000000000
000000000000
000000000000
000000000000
000000000000
000000000000
000000000000
000000000000
000000000000
000000000000
000000000000
000000000000
000000000000
000000000000
000000000000
000000000000
000000000000
000000000000
000000000000
000000000000
000000000000
000000000000
000000000000
000000000000
000000000000
000000000000
000000000000
ENDCHAR

STARTCHAR kor_A2A6
ENCODING 41638
SWIDTH 1024 0
DWIDTH 48 0
BBX 48 48 0 -6
BITMAP
000000000000
000000000000
0001FF006000
0003FFE0E000
0007FFFFE000
0007FFFFC000
00071FFFC000
000E07FF8000
000C00FF0000
000000000000
000000000000
000000000000
000000000000
000000000000
000000000000
000000000000
000000000000
000000000000
000000000000
000000000000
000000000000
000000000000
000000000000
000000000000
000000000000
000000000000
000000000000
000000000000
000000000000
000000000000
000000000000
000000000000
000000000000
000000000000
000000000000
000000000000
000000000000
000000000000
000000000000
000000000000
000000000000
000000000000
000000000000
000000000000
000000000000
000000000000
000000000000
000000000000
ENDCHAR

STARTCHAR kor_A2A7
ENCODING 41639
SWIDTH 1024 0
DWIDTH 48 0
BBX 48 48 0 -6
BITMAP
000000000000
000300018000
000380038000
0003E00F8000
0000F83E0000
00007EFE0000
00003FFC0000
00001FF80000
00000FF00000
000007E00000
000000000000
000000000000
000000000000
000000000000
000000000000
000000000000
000000000000
000000000000
000000000000
000000000000
000000000000
000000000000
000000000000
000000000000
000000000000
000000000000
000000000000
000000000000
000000000000
000000000000
000000000000
000000000000
000000000000
000000000000
000000000000
000000000000
000000000000
000000000000
000000000000
000000000000
000000000000
000000000000
000000000000
000000000000
000000000000
000000000000
000000000000
000000000000
ENDCHAR

STARTCHAR kor_A2A8
ENCODING 41640
SWIDTH 1024 0
DWIDTH 48 0
BBX 48 48 0 -6
BITMAP
000000000000
000000038000
000180038000
0003C0038000
0003E0078000
0001F01F8000
0001FFFF0000
0000FFFE0000
00007FFC0000
00001FF80000
000000000000
000000000000
000000000000
000000000000
000000000000
000000000000
000000000000
000000000000
000000000000
000000000000
000000000000
000000000000
000000000000
000000000000
000000000000
000000000000
000000000000
000000000000
000000000000
000000000000
000000000000
000000000000
000000000000
000000000000
000000000000
000000000000
000000000000
000000000000
000000000000
000000000000
000000000000
000000000000
000000000000
000000000000
000000000000
000000000000
000000000000
000000000000
ENDCHAR

STARTCHAR kor_A2A9
ENCODING 41641
SWIDTH 1024 0
DWIDTH 48 0
BBX 48 48 0 -6
BITMAP
000000000000
000000000000
00003FFC0000
00003FFC0000
00003EF80000
00003CF00000
00003CF00000
000038E00000
000079E00000
000071C00000
000071C00000
000061800000
000001800000
000000000000
000000000000
000000000000
000000000000
000000000000
000000000000
000000000000
000000000000
000000000000
000000000000
000000000000
000000000000
000000000000
000000000000
000000000000
000000000000
000000000000
000000000000
000000000000
000000000000
000000000000
000000000000
000000000000
000000000000
000000000000
000000000000
000000000000
000000000000
000000000000
000000000000
000000000000
000000000000
000000000000
000000000000
000000000000
ENDCHAR

STARTCHAR kor_A2AA
ENCODING 41642
SWIDTH 1024 0
DWIDTH 48 0
BBX 48 48 0 -6
BITMAP
000000000000
000000000000
000003F00000
000007F80000
00000E380000
00000E180000
00000C180000
00000C180000
00000E380000
00000FF80000
000007F00000
000000000000
000000000000
000000000000
000000000000
000000000000
000000000000
000000000000
000000000000
000000000000
000000000000
000000000000
000000000000
000000000000
000000000000
000000000000
000000000000
000000000000
000000000000
000000000000
000000000000
000000000000
000000000000
000000000000
000000000000
000000000000
000000000000
000000000000
000000000000
000000000000
000000000000
000000000000
000000000000
000000000000
000000000000
000000000000
000000000000
000000000000
ENDCHAR

STARTCHAR kor_A2AB
ENCODING 41643
SWIDTH 1024 0
DWIDTH 48 0
BBX 48 48 0 -6
BITMAP
000000000000
000000000000
000007C00000
000007E00000
00000FE00000
00000FE00000
00000FE00000
000007E00000
000003C00000
000000000000
000000000000
000000000000
000000000000
000000000000
000000000000
000000000000
000000000000
000000000000
000000000000
000000000000
000000000000
000000000000
000000000000
000000000000
000000000000
000000000000
000000000000
000000000000
000000000000
000000000000
000000000000
000000000000
000000000000
000000000000
000000000000
000000000000
000000000000
000000000000
000000000000
000000000000
000000000000
000000000000
000000000000
000000000000
000000000000
000000000000
000000000000
000000000000
ENDCHAR

STARTCHAR kor_A2AC
ENCODING 41644
SWIDTH 1024 0
DWIDTH 48 0
BBX 48 48 0 -6
BITMAP
000000000000
000000000000
000000000000
000000000000
000000000000
000000000000
000000000000
000000000000
000000000000
000000000000
000000000000
000000000000
000000000000
000000000000
000000000000
000000000000
000000000000
000000000000
000000000000
000000000000
000000000000
000000000000
000000000000
000000000000
000000000000
000000000000
000000000000
000000000000
000000000000
000000000000
000000000000
000000000000
000000000000
000000000000
000001E00000
000007E00000
00000FF00000
00000FF00000
000001F00000
000001F00000
000001F00000
000003F00000
00003FE00000
00003F800000
000000000000
000000000000
000000000000
000000000000
ENDCHAR

STARTCHAR kor_A2AD
ENCODING 41645
SWIDTH 1024 0
DWIDTH 48 0
BBX 48 48 0 -6
BITMAP
000000000000
000000000000
000000000000
000000000000
000000000000
000000000000
000000000000
000000000000
000000000000
000000000000
000000000000
000000000000
000000000000
000000000000
000000000000
000000000000
000000000000
000000000000
000000000000
000000000000
000000000000
000000000000
000000000000
000000000000
000000000000
000000000000
000000000000
000000000000
000000000000
000000000000
000000000000
000000000000
000000000000
000000C00000
000001C00000
000003800000
000007000000
000007000000
000007000000
00000F180000
00000FF80000
000007F00000
000003E00000
000000000000
000000000000
000000000000
000000000000
000000000000
ENDCHAR

STARTCHAR kor_A2AE
ENCODING 41646
SWIDTH 1024 0
DWIDTH 48 0
BBX 48 48 0 -6
BITMAP
000000000000
000000000000
000007F00000
000007F00000
000007F00000
000007F00000
000007F00000
000007F00000
000007F00000
000000000000
000000000000
000000000000
000001C00000
000001C00000
000001C00000
000001C00000
000001C00000
000001C00000
000001C00000
000003E00000
000003E00000
000003E00000
000003E00000
000003E00000
000003E00000
000003E00000
000003E00000
000003E00000
000003E00000
000003E00000
000007F00000
000007F00000
000007F00000
000007F00000
000007F00000
000007F00000
000007F00000
000007F00000
000000000000
000000000000
000000000000
000000000000
000000000000
000000000000
000000000000
000000000000
000000000000
000000000000
ENDCHAR

STARTCHAR kor_A2AF
ENCODING 41647
SWIDTH 1024 0
DWIDTH 48 0
BBX 48 48 0 -6
BITMAP
000000000000
000000000000
000001F80000
000001F80000
000001F80000
000001F80000
000001F80000
000001F80000
000000000000
000000000000
000000000000
000000000000
000000F00000
000000F00000
000000F00000
000000F00000
000000F00000
000000F00000
000007F00000
00001FF00000
00003FF00000
00007FF00000
0000FE000000
0000F8000000
0001F0000000
0001F0000000
0001E0000000
0001E0000000
0001E0000000
0001F00F0000
0001F00F0000
0000FC1F0000
0000FFFF0000
00007FFE0000
00003FFE0000
00000FF80000
000000000000
000000000000
000000000000
000000000000
000000000000
000000000000
000000000000
000000000000
000000000000
000000000000
000000000000
000000000000
ENDCHAR

STARTCHAR kor_A2B0
ENCODING 41648
SWIDTH 1024 0
DWIDTH 48 0
BBX 48 48 0 -6
BITMAP
000000000000
000000000000
000000000000
000000000000
000000000000
000000000000
000000000000
000000000000
000000000000
000000000000
000000000000
000000000000
000000000000
000000000000
000007F80000
000007F80000
000007F80000
000003F00000
000003F00000
000001E00000
000001E00000
000000C00000
000000C00000
000000000000
000000000000
000000000000
000000000000
000000000000
000000C00000
000000C00000
000001E00000
000001E00000
000003F00000
000003F00000
000007F80000
000007F80000
000007F80000
000000000000
000000000000
000000000000
000000000000
000000000000
000000000000
000000000000
000000000000
000000000000
000000000000
000000000000
ENDCHAR

STARTCHAR kor_A2B1
ENCODING 41649
SWIDTH 1024 0
DWIDTH 48 0
BBX 48 48 0 -6
BITMAP
000000000000
000000000000
00000003F800
0000000FFC00
0000001FFE00
0000003FFE00
0000003E1E00
0000007C1E00
0000007C1E00
000000780000
000000F80000
000000F00000
000000F00000
000000F00000
000001F00000
00000FF80000
00003FFE0000
00007FFF0000
00007DFF0000
0000F3E78000
0000F3C78000
0000E3C38000
0000E3C38000
0000E3C38000
0000F3C78000
0000F7C78000
00007F9F0000
00007FFF0000
00003FFE0000
00000FF80000
000007800000
00000F800000
00000F000000
00000F000000
00000F000000
00001F000000
00001E000000
003C1E000000
003C3E000000
003C7C000000
003FFC000000
003FF8000000
001FF0000000
000FC0000000
000000000000
000000000000
000000000000
000000000000
ENDCHAR

STARTCHAR kor_A2B2
ENCODING 41650
SWIDTH 1024 0
DWIDTH 48 0
BBX 48 48 0 -6
BITMAP
000000000000
000000000000
000000000000
07FFFFFFFFE0
07FFFFFFFFE0
07FFFFFFFFE0
03FC000007E0
01FE000007E0
00FF000003E0
007F800003E0
003FC00003E0
001FE00003E0
000FF00001E0
0007F80001E0
0003FC0001E0
0001FE0001E0
0000FF0000E0
00007F8000E0
00003FC000E0
00001FE000E0
00000FF00000
000007F80000
000003F80000
000003F00000
000007E00000
00000FC00000
00001F800000
00003F000000
00007E000000
0000FC000000
0001F80000E0
0003F00000E0
0007E00000E0
000FC00000E0
001F800000E0
003F000000E0
007E000000E0
00FC000000E0
01FFFFFFFFE0
03FFFFFFFFE0
07FFFFFFFFE0
07FFFFFFFFE0
07FFFFFFFFE0
000000000000
000000000000
000000000000
000000000000
000000000000
ENDCHAR

STARTCHAR kor_A2B3
ENCODING 41651
SWIDTH 1024 0
DWIDTH 48 0
BBX 48 48 0 -6
BITMAP
000000000000
000000000000
000000000000
000000000000
00FFFFFFFF80
00FFFFFFFF80
00FFFFFFFF80
0003E003E000
0003E003E000
0003E003E000
0003E003E000
0003E003E000
0003E003E000
0003E003E000
0003E003E000
0003E003E000
0003E003E000
0003E003E000
0003E003E000
0003E003E000
0003E003E000
0003E003E000
0003E003E000
0003E003E000
0003E003E000
0003E003E000
0003E003E000
0003E003E000
0003E003E000
0003E003E000
0003E003E000
0003E003E000
0003E003E000
0003E003E000
0003E003E000
0003E003E000
0003E003E000
0003E003E000
0003E003E000
000000000000
000000000000
000000000000
000000000000
000000000000
000000000000
000000000000
000000000000
000000000000
ENDCHAR

STARTCHAR kor_A2B4
ENCODING 41652
SWIDTH 1024 0
DWIDTH 48 0
BBX 48 48 0 -6
BITMAP
000000000000
000000000000
000000000000
000000000000
0300000000C0
0780000001E0
07C0000003E0
01E000000780
00F007E00F00
00787FFE1E00
003DFFFF3C00
001FE007F800
000F8001F000
000F0000F000
001E00007000
001C00007800
003800003800
003800001C00
003000001C00
007000000C00
007000000E00
007000000E00
007000000E00
007000000E00
007000000E00
007000000E00
007000000C00
003000001C00
003800001C00
003800003800
001C00007800
001E0000F000
000F0000F000
001F8001F800
003FE007FC00
007DFFFF1E00
00F87FFC0F00
01F003800780
03E0000003C0
03C0000003E0
0380000001E0
0000000000C0
000000000000
000000000000
000000000000
000000000000
000000000000
000000000000
ENDCHAR

STARTCHAR kor_A2B5
ENCODING 41653
SWIDTH 1024 0
DWIDTH 48 0
BBX 48 48 0 -6
BITMAP
000000000000
000000000000
000007FFFFE0
03E007FFFFE0
0FF807FFFFE0
0FF807FFFFE0
1E3C07C00000
1C1C07C00000
1C1C07C00000
1C1C07C00000
1E3C07C00000
0FF807C00000
0FF807C00000
03E007C00000
000007C00000
000007C00000
000007C00000
000007FFFC00
000007FFFC00
000007FFFC00
000007FFFC00
000007C00000
000007C00000
000007C00000
000007C00000
000007C00000
000007C00000
000007C00000
000007C00000
000007C00000
000007C00000
000007C00000
000007C00000
000007C00000
000007C00000
000007C00000
000000000000
000000000000
000000000000
000000000000
000000000000
000000000000
000000000000
000000000000
000000000000
000000000000
000000000000
000000000000
ENDCHAR

STARTCHAR kor_A2B6
ENCODING 41654
SWIDTH 1024 0
DWIDTH 48 0
BBX 48 48 0 -6
BITMAP
000000000000
007C00000000
01FF00000000
03FF80000000
07FFC00C0000
07EFC01E0000
0F83E03E0000
0F83E03E0000
0F01E07C0000
0F01E0F80000
0F01E0F00000
0F01E1F00000
0F01E3E00000
0F01E3C00000
0F01E7C00000
0F01EF800000
0F83EF000000
0F83FF000000
07EFFE000000
07FFFC000000
03FFFC000000
01FFF8000000
007CF3E00F80
0001FFF83FE0
0003FFFC7FF0
0003DFFC7FF0
0007FE3EF8F8
000FBC1EF078
000F3C1EF078
001F3C1EF078
003E3C1EF078
003C3C1EF078
007C3C1EF078
00F83C1EF078
00F03C1EF078
01F03C1EF078
03E03C1EF078
07C03C1EF078
07C03C1EF078
07803E3EF8F8
03001FFC7FF0
00001FFC7FF0
00000FF83FE0
000003E00F80
000000000000
000000000000
000000000000
000000000000
ENDCHAR

STARTCHAR kor_A2B7
ENCODING 41655
SWIDTH 1024 0
DWIDTH 48 0
BBX 48 48 0 -6
BITMAP
000000000000
000000000000
000000000000
000000000000
000000000600
000000001E00
000000003E00
00000000FE00
00000003F600
00000007C600
0000001F0600
0000003E0600
000000F80600
000001F00600
000007C00600
00001F800600
00003E000600
0000F8000600
0001F0000600
0007C0000600
000F80000600
003E00000600
007C00000600
007C00000600
003F00000600
000F80000600
0003E0000600
0001F0000600
00007C000600
00003F000600
00000F800600
000003E00600
000001F00600
0000007C0600
0000003E0600
0000000F8600
00000003E600
00000001F600
000000007E00
000000003E00
000000000E00
000000000600
000000000000
000000000000
000000000000
000000000000
000000000000
000000000000
ENDCHAR

STARTCHAR kor_A2B8
ENCODING 41656
SWIDTH 1024 0
DWIDTH 48 0
BBX 48 48 0 -6
BITMAP
000000000000
000000000000
000000000000
000000000000
000000000600
000000001E00
000000003E00
00000000FE00
00000003FE00
00000007FE00
0000001FFE00
0000003FFE00
000000FFFE00
000001FFFE00
000007FFFE00
00001FFFFE00
00003FFFFE00
0000FFFFFE00
0001FFFFFE00
0007FFFFFE00
000FFFFFFE00
003FFFFFFE00
007FFFFFFE00
007FFFFFFE00
003FFFFFFE00
000FFFFFFE00
0003FFFFFE00
0001FFFFFE00
00007FFFFE00
00003FFFFE00
00000FFFFE00
000003FFFE00
000001FFFE00
0000007FFE00
0000003FFE00
0000000FFE00
00000003FE00
00000001FE00
000000007E00
000000003E00
000000000E00
000000000600
000000000000
000000000000
000000000000
000000000000
000000000000
000000000000
ENDCHAR

STARTCHAR kor_A2B9
ENCODING 41657
SWIDTH 1024 0
DWIDTH 48 0
BBX 48 48 0 -6
BITMAP
000000000000
000000000000
000000000000
000000000000
006000000000
007800000000
007C00000000
007F00000000
0077C0000000
0073E0000000
0070F8000000
00707C000000
00701F000000
00700F800000
007003E00000
007000F00000
0070007C0000
0070001F0000
0070000F8000
00700003E000
00700001F000
007000007C00
007000003E00
007000003F00
007000007F00
00700001F000
00700003E000
0070000F8000
0070003F0000
0070007C0000
007001F00000
007003E00000
00700F800000
00701F000000
00707C000000
0071F8000000
0073E0000000
007FC0000000
007F00000000
007C00000000
007800000000
006000000000
000000000000
000000000000
000000000000
000000000000
000000000000
000000000000
ENDCHAR

STARTCHAR kor_A2BA
ENCODING 41658
SWIDTH 1024 0
DWIDTH 48 0
BBX 48 48 0 -6
BITMAP
000000000000
000000000000
000000000000
000000000000
006000000000
007800000000
007C00000000
007F00000000
007FC0000000
007FE0000000
007FF8000000
007FFC000000
007FFF000000
007FFF800000
007FFFE00000
007FFFF00000
007FFFFC0000
007FFFFF0000
007FFFFF8000
007FFFFFE000
007FFFFFF000
007FFFFFFC00
007FFFFFFE00
007FFFFFFF00
007FFFFFFF00
007FFFFFF000
007FFFFFE000
007FFFFF8000
007FFFFF0000
007FFFFC0000
007FFFF00000
007FFFE00000
007FFF800000
007FFF000000
007FFC000000
007FF8000000
007FE0000000
007FC0000000
007F00000000
007C00000000
007800000000
006000000000
000000000000
000000000000
000000000000
000000000000
000000000000
000000000000
ENDCHAR

STARTCHAR kor_A2BB
ENCODING 41659
SWIDTH 1024 0
DWIDTH 48 0
BBX 48 48 0 -6
BITMAP
000000000000
000000000000
000003800000
000003C00000
000007E00000
00000FE00000
00001FF00000
00001FF80000
00003EFC0000
00007C7E0000
0000FC3E0000
0000F81F0000
0001F00F8000
0003E00FC000
0007C007C000
0007C003E000
000F8001F000
001F0001F000
001F0000F800
003E00007C00
003C00007C00
007C00003E00
00F800001E00
00F800001F00
00F000000F00
01F000000F00
01E000000F80
01E000000F80
01E000000780
01E000000F80
01F00E700F80
01F03FFC1F00
00F8FFFFFF00
00FFFFFFFE00
007FFFFFFE00
003FFFF7F800
000F9EF80000
00001E780000
00001E780000
00003E7C0000
00003FFC0000
00007FFE0000
00007FFE0000
00007FFE0000
000000000000
000000000000
000000000000
000000000000
ENDCHAR

STARTCHAR kor_A2BC
ENCODING 41660
SWIDTH 1024 0
DWIDTH 48 0
BBX 48 48 0 -6
BITMAP
000000000000
000003800000
000007C00000
000007E00000
00000FF00000
00001FF80000
00003FF80000
00007FFC0000
0000FFFE0000
0001FFFF0000
0001FFFF8000
0003FFFFC000
0007FFFFC000
0007FFFFE000
000FFFFFF000
001FFFFFF000
001FFFFFF800
003FFFFFFC00
007FFFFFFC00
007FFFFFFE00
00FFFFFFFE00
00FFFFFFFF00
01FFFFFFFF00
01FFFFFFFF80
01FFFFFFFF80
01FFFFFFFF80
03FFFFFFFF80
03FFFFFFFF80
03FFFFFFFF80
03FFFFFFFF80
03FFFFFFFF80
01FFFBFFFF80
01FFFFFFFF00
00FFF7DFFF00
007FE7EFFE00
003FCFE3F800
00000FE00000
00000FF00000
00001FF00000
00001FF80000
00003FF80000
00007FFC0000
00007FFC0000
000000000000
000000000000
000000000000
000000000000
000000000000
ENDCHAR

STARTCHAR kor_A2BD
ENCODING 41661
SWIDTH 1024 0
DWIDTH 48 0
BBX 48 48 0 -6
BITMAP
000000000000
000000000000
001FF00FF800
007FF81FFE00
00FFFC3FFF00
01FFFE7FFF80
03F87F7E1FC0
03F01FFC07C0
07E01FF803E0
07C00FF803E0
07C00FF001E0
07C00FF001F0
078007F001F0
07C007E001F0
07C007E001F0
07C0000001F0
07C0000001E0
03C0000003E0
03E0000003E0
03E0000007C0
01F0000007C0
01F000000F80
01F000000F80
00F800001F00
00FC00001F00
007C00003E00
003E00007E00
003E00007C00
001F0000F800
001F8001F800
000FC003F000
0007C007E000
0007E007C000
0003F00FC000
0001F81F8000
0000FC3F0000
00007E7E0000
00007FFC0000
00003FFC0000
00001FF80000
00000FF00000
000007E00000
000003C00000
000001800000
000000000000
000000000000
000000000000
000000000000
ENDCHAR

STARTCHAR kor_A2BE
ENCODING 41662
SWIDTH 1024 0
DWIDTH 48 0
BBX 48 48 0 -6
BITMAP
000000000000
000000000000
001FF00FF800
007FF81FFE00
00FFFC3FFF00
01FFFE7FFF80
03FFFF7FFFC0
03FFFFFFFFC0
07FFFFFFFFE0
07FFFFFFFFE0
07FFFFFFFFE0
07FFFFFFFFF0
07FFFFFFFFF0
07FFFFFFFFF0
07FFFFFFFFF0
07FFFFFFFFF0
07FFFFFFFFE0
07FFFFFFFFE0
03FFFFFFFFE0
03FFFFFFFFC0
01FFFFFFFFC0
01FFFFFFFF80
01FFFFFFFF80
00FFFFFFFF80
00FFFFFFFF00
007FFFFFFE00
007FFFFFFE00
003FFFFFFC00
001FFFFFF800
001FFFFFF800
000FFFFFF000
0007FFFFE000
0007FFFFC000
0003FFFFC000
0001FFFF8000
0000FFFF0000
00007FFE0000
00007FFC0000
00003FFC0000
00001FF80000
00000FF00000
000007E00000
000003C00000
000001800000
000000000000
000000000000
000000000000
000000000000
ENDCHAR

STARTCHAR kor_A2BF
ENCODING 41663
SWIDTH 1024 0
DWIDTH 48 0
BBX 48 48 0 -6
BITMAP
000000000000
000000000000
00000FF00000
00003FFC0000
00007FFE0000
0000FFFF0000
0001FC3F8000
0001F00F8000
0003E007C000
0003E007C000
0003C003C000
0003C003C000
0003E003C000
0003E003C000
0001E007C000
0001F0078000
0000F80F8000
0000FC3F0000
007F7E3FFF00
01FFFF7FFFC0
03FFFF7FFFE0
07FFFF7FFFF0
07E1FF7F81F0
0F807E3E00F0
0F80000000F8
0F00000000F8
0F0000000078
0F0000000078
0F0000000078
0F000E7800F8
0F001F7C00F8
0F803F7E01F0
0FC0FF7F83F0
07F7FF7FFFE0
03FFFF7FFFC0
01FFEF7FFF80
00FFCE79FE00
001E1E780000
00001E7C0000
00003E7C0000
00003FFC0000
00003FFC0000
00003FFC0000
00003FFC0000
000000000000
000000000000
000000000000
000000000000
ENDCHAR

STARTCHAR kor_A2C0
ENCODING 41664
SWIDTH 1024 0
DWIDTH 48 0
BBX 48 48 0 -6
BITMAP
000000000000
00000FF00000
00003FFC0000
00007FFE0000
0000FFFF0000
0001FFFF0000
0001FFFF8000
0001FFFF8000
0003FFFF8000
0003FFFF8000
0003FFFF8000
0003FFFF8000
0003FFFF8000
0003FFFF8000
0001FFFF8000
0001FFFF0000
0000FFFF0000
00FF7FFEFE00
01FFFFFFFF80
03FFFFFFFFC0
07FFFFFFFFE0
0FFFFFFFFFF0
0FFFFFFFFFF0
1FFFFFFFFFF0
1FFFFFFFFFF0
1FFFFFFFFFF0
1FFFFFFFFFF0
1FFFFFFFFFF0
1FFFFFFFFFF0
1FFFFFBFFFF0
0FFFFB9FFFF0
0FFFFBDFFFE0
07FFF3CFFFE0
03FFE3C7FFC0
01FF87C3FF80
007E07E07E00
000007E00000
00000FE00000
00000FF00000
00001FF00000
00003FF80000
00003FFC0000
00003FFC0000
00003FFC0000
000000000000
000000000000
000000000000
000000000000
ENDCHAR

STARTCHAR kor_A2C1
ENCODING 41665
SWIDTH 1024 0
DWIDTH 48 0
BBX 48 48 0 -6
BITMAP
000000000000
000000000000
000000000000
00003FFC0000
0000FFFF8000
0007F01FE000
000F8003F800
001E00007C00
003C00001E00
007800000F00
00F03FFC0780
01E0FFFF0380
01C0FFFF83C0
0381FFFFC1C0
0303FFFFE0E0
0707FFFFF0E0
070FFFFFF0E0
060FFFFFF870
060FFFFFF870
0E1FFFFFF870
0E1FFFFFF870
0E1FFFFFF830
0E1FFFFFF830
0E1FFFFFF830
0E1FFFFFF830
0E1FFFFFF870
0E1FFFFFF870
060FFFFFF870
060FFFFFF870
070FFFFFF0E0
0707FFFFE0E0
0303FFFFC0E0
0381FFFFC1C0
01C0FFFF83C0
01E07FFF0780
00F01FFC0700
007800000F00
003C00003E00
001E00007C00
000F8003F000
0003E01FE000
0000FFFF0000
00003FF80000
000000000000
000000000000
000000000000
000000000000
000000000000
ENDCHAR

STARTCHAR kor_A2C2
ENCODING 41666
SWIDTH 1024 0
DWIDTH 48 0
BBX 48 48 0 -6
BITMAP
000000000000
000001C00000
000003E00000
000007F00000
00000F780000
00001E3C0000
00003C1E0000
0000780F0000
0000F1C78000
0001E3E3C000
0003C7F1E000
00078FF8F000
000F1FFC7800
001E3FFE3C00
003C7FFF1E00
0078FFFF8F00
00F1FFFFC780
01E3FFFFE3C0
03C7FFFFF1E0
078FFFFFF8F0
0F1FFFFFFC78
1E3FFFFFFE3C
3C7FFFFFFF1C
3C7FFFFFFF3C
1E3FFFFFFF78
0F1FFFFFFCF0
078FFFFFF9E0
03C7FFFFF3C0
01E3FFFFE780
00F1FFFFCF00
0078FFFF9E00
003C7FFF3C00
001E3FFE7800
000F1FFCF000
00078FF9E000
0003C7F3C000
0001E3E78000
0000F1CF0000
0000781E0000
00003C3C0000
00001E780000
00000FF00000
000007E00000
000003C00000
000001800000
000000000000
000000000000
000000000000
ENDCHAR

STARTCHAR kor_A2C3
ENCODING 41667
SWIDTH 1024 0
DWIDTH 48 0
BBX 48 48 0 -6
BITMAP
000000000000
000000000000
000000000000
000000000000
07FFFFFFFFE0
07FFFFFFFFE0
07FFFFFFFFE0
0600000000E0
0600000000E0
0600000000E0
0600000000E0
0600000000E0
0600000000E0
0603FFFFC0E0
0603FFFFC0E0
0603FFFFC0E0
0603FFFFC0E0
0603FFFFC0E0
0603FFFFC0E0
0603FFFFC0E0
0603FFFFC0E0
0603FFFFC0E0
0603FFFFC0E0
0603FFFFC0E0
0603FFFFC0E0
0603FFFFC0E0
0603FFFFC0E0
0603FFFFC0E0
0603FFFFC0E0
0603FFFFC0E0
0603FFFFC0E0
0603FFFFC0E0
0603FFFFC0E0
0603FFFFC0E0
0600000000E0
0600000000E0
0600000000E0
0600000000E0
0600000000E0
0600000000E0
07FFFFFFFFE0
07FFFFFFFFE0
000000000000
000000000000
000000000000
000000000000
000000000000
000000000000
ENDCHAR

STARTCHAR kor_A2C4
ENCODING 41668
SWIDTH 1024 0
DWIDTH 48 0
BBX 48 48 0 -6
BITMAP
000000000000
000000000000
000000000000
00003FFC0000
0000FFFF0000
0007FF0FE000
000FFF01F000
003FFF007C00
003FFF001E00
007FFF000F00
00FFFF000700
01FFFF000380
01FFFF0003C0
03FFFF0001C0
03FFFF0000E0
07FFFF0000E0
07FFFF0000E0
07FFFF000070
07FFFF000070
0FFFFF000070
0FFFFF000030
0FFFFF000030
0FFFFF000030
0FFFFF000030
0FFFFF000030
0FFFFF000030
0FFFFF000070
07FFFF000070
07FFFF000070
07FFFF0000E0
07FFFF0000E0
03FFFF0000E0
03FFFF0001C0
01FFFF0003C0
01FFFF000780
00FFFF000F00
007FFF000F00
003FFF003E00
001FFF007C00
000FFF03F000
0003FF1FC000
0000FFFF0000
00001FF80000
000000000000
000000000000
000000000000
000000000000
000000000000
ENDCHAR

STARTCHAR kor_A2C5
ENCODING 41669
SWIDTH 1024 0
DWIDTH 48 0
BBX 48 48 0 -6
BITMAP
000000000000
000000000000
000000000000
00003FFC0000
0000FFFF8000
0007F9FFE000
000FC1FFF800
001E01FFFC00
003C01FFFE00
007801FFFF00
00F001FFFF00
01E001FFFF80
01C001FFFFC0
038001FFFFC0
038001FFFFE0
070001FFFFE0
070001FFFFE0
070001FFFFF0
060001FFFFF0
0E0001FFFFF0
0E0001FFFFF0
0E0001FFFFF0
0E0001FFFFF0
0E0001FFFFF0
0E0001FFFFF0
0E0001FFFFF0
0E0001FFFFF0
060001FFFFF0
070001FFFFF0
070001FFFFE0
070001FFFFE0
038001FFFFE0
038001FFFFC0
01C001FFFFC0
01E001FFFF80
00F001FFFF00
007801FFFF00
003C01FFFE00
001F01FFFC00
000FC1FFF000
0003F9FFE000
0000FFFF0000
00001FF80000
000000000000
000000000000
000000000000
000000000000
000000000000
ENDCHAR

STARTCHAR kor_A2C6
ENCODING 41670
SWIDTH 1024 0
DWIDTH 48 0
BBX 48 48 0 -6
BITMAP
000000000000
000000000000
000000000000
000000000000
07FFFFFFFFE0
07FFFFFFFFE0
060000000060
0638381C0E60
0638381C0E60
0638381C0E60
060000000060
060000000060
060000000060
060000000060
060000000060
060000000060
07C383C383E0
07C383C383E0
07C383C383E0
060000000060
060000000060
060000000060
060000000060
060000000060
060000000060
0638381C0C60
0638381C0E60
0638381C0E60
0638381C0E60
060000000060
060000000060
060000000060
060000000060
060000000060
060000000060
07C383C383E0
07C383C383E0
07C383C383E0
060000000060
060000000060
07FFFFFFFFE0
07FFFFFFFFE0
000000000000
000000000000
000000000000
000000000000
000000000000
000000000000
ENDCHAR

STARTCHAR kor_A2C7
ENCODING 41671
SWIDTH 1024 0
DWIDTH 48 0
BBX 48 48 0 -6
BITMAP
000000000000
000000000000
000000000000
000000000000
07FFFFFFFFE0
07FFFFFFFFE0
060000000060
060000000060
060000000060
060000000060
060000000060
060000000060
07FFFFFFFFE0
07FFFFFFFFE0
07FFFFFFFFE0
060000000060
060000000060
060000000060
060000000060
060000000060
060000000060
07FFFFFFFFE0
07FFFFFFFFE0
07FFFFFFFFE0
060000000060
060000000060
060000000060
060000000060
060000000060
060000000060
060000000060
07FFFFFFFFE0
07FFFFFFFFE0
060000000060
060000000060
060000000060
060000000060
060000000060
060000000060
060000000060
07FFFFFFFFE0
07FFFFFFFFE0
000000000000
000000000000
000000000000
000000000000
000000000000
000000000000
ENDCHAR

STARTCHAR kor_A2C8
ENCODING 41672
SWIDTH 1024 0
DWIDTH 48 0
BBX 48 48 0 -6
BITMAP
000000000000
000000000000
000000000000
000000000000
07FFFFFFFFE0
07FFFFFFFFE0
06030180C060
06030180C060
06030180C060
06030180C060
06030180C060
06030180C060
06030180C060
06030180C060
06030180C060
06030180C060
06030180C060
06030180C060
06030180C060
06030180C060
06030180C060
06030180C060
06030180C060
06030180C060
06030180C060
06030180C060
06030180C060
06030180C060
06030180C060
06030180C060
06030180C060
06030180C060
06030180C060
06030180C060
06030180C060
06030180C060
06030180C060
06030180C060
06030180C060
06030180C060
07FFFFFFFFE0
07FFFFFFFFE0
000000000000
000000000000
000000000000
000000000000
000000000000
000000000000
ENDCHAR

STARTCHAR kor_A2C9
ENCODING 41673
SWIDTH 1024 0
DWIDTH 48 0
BBX 48 48 0 -6
BITMAP
000000000000
000000000000
000000000000
000000000000
07FFFFFFFFE0
07FFFFFFFFE0
0600078003E0
06000F0007E0
06001E000F60
06003C001E60
060078003C60
0600F0007860
0601E000F060
0603C001E060
06078003C060
060F00078060
061E000F0060
063C001E0060
0678003C0060
06F000780060
07E000F00060
07C001E00060
078003C000E0
0700078001E0
06000F0003E0
06001E0007E0
06003C000F60
060078001E60
0600F0003C60
0601E0007860
0603C000F060
06078001E060
060F0003C060
061E00078060
063C000F0060
0678001E0060
06F0003C0060
07E000780060
07C000F00060
078001E00060
07FFFFFFFFE0
07FFFFFFFFE0
000000000000
000000000000
000000000000
000000000000
000000000000
000000000000
ENDCHAR

STARTCHAR kor_A2CA
ENCODING 41674
SWIDTH 1024 0
DWIDTH 48 0
BBX 48 48 0 -6
BITMAP
000000000000
000000000000
000000000000
000000000000
07FFFFFFFFE0
07FFFFFFFFE0
07C001E00060
07E000F00060
06F000780060
0678003C0060
063C001E0060
061E000F0060
060F00078060
06078003C060
0603C001E060
0601E000F060
0600F0007860
060078003C60
06003C001E60
06001E000F60
06000F0007E0
0600078003E0
070003C001E0
078001E000E0
07C000F00060
06E000780060
0670003C0060
0638001E0060
061C000F0060
060E00078060
06070003C060
06038001E060
0601C000F060
0600E0007860
060070003C60
060038001E60
06001C000F60
06000E0007E0
0600070003E0
0600038001E0
07FFFFFFFFE0
07FFFFFFFFE0
000000000000
000000000000
000000000000
000000000000
000000000000
000000000000
ENDCHAR

STARTCHAR kor_A2CB
ENCODING 41675
SWIDTH 1024 0
DWIDTH 48 0
BBX 48 48 0 -6
BITMAP
000000000000
000000000000
000000000000
000000000000
07FFFFFFFFE0
07FFFFFFFFE0
06030180C060
06030180C060
06030180C060
06030180C060
06030180C060
06030180C060
06030180C060
07FFFFFFFFE0
07FFFFFFFFE0
07FFFF80C060
06030180C060
06030180C060
06030180C060
06030180C060
06030180C060
06030180C060
07FFFFFFFFE0
07FFFFFFFFE0
07FFFFFFC060
06030180C060
06030180C060
06030180C060
06030180C060
06030180C060
06030180C060
07FFFFFFFFE0
07FFFFFFFFE0
06030180C060
06030180C060
06030180C060
06030180C060
06030180C060
06030180C060
06030180C060
07FFFFFFFFE0
07FFFFFFFFE0
000000000000
000000000000
000000000000
000000000000
000000000000
000000000000
ENDCHAR

STARTCHAR kor_A2CC
ENCODING 41676
SWIDTH 1024 0
DWIDTH 48 0
BBX 48 48 0 -6
BITMAP
000000000000
000000000000
000000000000
000000000000
07FFFFFFFFE0
07FFFFFFFFE0
078003E003E0
07C007F007E0
07E00F780FE0
06F01E3C1FE0
06783C1E3EE0
063C780F7CE0
061EF007F8E0
060FE003F0E0
0607C003E0E0
060FC007F0E0
061FE00FF8E0
063EF01F3CE0
067C783E1EE0
06F83C7C0FE0
07F01EF007E0
07E00FE003E0
07C007C001E0
078007C003E0
07C00FE007E0
07E01EF00F60
06F03C781E60
0678783C3C60
063CF01E7860
061FE00FF060
060FC007E060
06078003C060
060FC007E060
061FE00FF060
063CF01E7860
0678783C3C60
06F03C781E60
07E01EF00F60
07C00FE007E0
078007C003E0
07FFFFFFFFE0
07FFFFFFFFE0
000000000000
000000000000
000000000000
000000000000
000000000000
000000000000
ENDCHAR

STARTCHAR kor_A2CD
ENCODING 41677
SWIDTH 1024 0
DWIDTH 48 0
BBX 48 48 0 -6
BITMAP
000000000000
000000000000
000000600000
000000E00000
000000E00000
000030E18000
000070E18000
000071E38000
000071E38000
0000F3E78000
0000F3E78000
0001F7CF8000
0001E7CF8000
0001E7CF0000
0001E7CF0000
0001E7CF0000
0001E7CF0000
0001F7CF8000
0001F3EF8000
0001F3EF8000
0000FBE7C000
0000F9F7C000
0000F9F7C000
0000F9F3C000
000079F3C000
000779F3C000
003F79F3FE00
00FCF9F3FF80
01F0F9F7C7C0
03E0F1E7C3E0
07C0F3E781F0
0F81E3C780F0
0F81E3CF00F8
0F81C38E00F8
0F81C78E01F8
0FC1C70E07F0
0FF1830C1FF0
07FF8303FFE0
03FFFFFFFFE0
01FFFFFFFFC0
00FFFFFFFF00
003FFFFFFC00
0007FFFFF000
00003FFE0000
000000000000
000000000000
000000000000
000000000000
ENDCHAR

STARTCHAR kor_A2CE
ENCODING 41678
SWIDTH 1024 0
DWIDTH 48 0
BBX 48 48 0 -6
BITMAP
000000000000
000000000000
000000000000
000000000000
000000000000
000000000000
000000000000
00003FF80000
000FFFFFF000
007FE00FFE00
01F800003F80
07E3B000C7E0
0F8FBFFDF0F0
1E1FBFFDF878
1C1DB00D9838
3819B00D981C
381DBFFDB81C
300D9FF9B00C
301D9FF1B80C
307FFFFDFF0C
3FFBF01FCFFC
3FC7E00FE3FC
1C0FC007F000
001F8003F000
003F8001B800
007B0001DC00
00730001CE00
00E30001C700
01C30001C700
01C30001C380
01830001C380
038380038180
0381C0038180
0301E0070180
0700E00E01C0
0700783C00C0
06003FF800C0
07FFFFFFFFC0
07FFFFFFFFC0
000000000000
000000000000
000000000000
000000000000
000000000000
000000000000
000000000000
000000000000
000000000000
ENDCHAR

STARTCHAR kor_A2CF
ENCODING 41679
SWIDTH 1024 0
DWIDTH 48 0
BBX 48 48 0 -6
BITMAP
000000000000
000000000000
000000000000
000000000000
000000000000
000000000000
000000000000
00003FF80000
000FFFFFF000
007FFFFFFE00
01FFFFFFFF80
07FFFFFFFFE0
0FFFFFFFFFF0
1FFFE007FFF8
1FFDE0079FF8
3FF9E0079FFC
3FFDFC1FBFFC
3FFDFFFFBFFC
3FFDFFFFBFFC
3FFFF81FFFFC
3FFBE007CFFC
3FC7C003E3FC
1C0F8001F000
001F0000F000
003F0000F800
007E0000FC00
007E00007E00
00FE00007F00
01FE00007F00
01FE00007F80
01FF0000FF80
03FF0000FF80
03FF8001FF80
03FFC003FF80
07FFE007FFC0
07FFF00FFFC0
07FFFFFFFFC0
07FFFFFFFFC0
07FFFFFFFFC0
000000000000
000000000000
000000000000
000000000000
000000000000
000000000000
000000000000
000000000000
000000000000
ENDCHAR

STARTCHAR kor_A2D0
ENCODING 41680
SWIDTH 1024 0
DWIDTH 48 0
BBX 48 48 0 -6
BITMAP
000000000000
000000000000
000000000000
000000000000
000000000000
000000000000
000000000000
000000000000
000000000000
000000000000
000000000000
000000000000
000000000000
003FFFFFE000
1FFFFFFFF87E
7FF003FF3E7E
700007F00FE6
70001E0003E6
3FFFFC000066
1FFFF0F60066
000FE3FE0066
000DC7FE0066
000DFFFF0066
000FFFDB8066
0007FF3DC066
0003FE7CF066
000383EC7066
0001FFDC01E6
0000FE380FE6
000038F07F7E
00003FFFF83C
00001FFFC000
000000000000
000000000000
000000000000
000000000000
000000000000
000000000000
000000000000
000000000000
000000000000
000000000000
000000000000
000000000000
000000000000
000000000000
000000000000
000000000000
ENDCHAR

STARTCHAR kor_A2D1
ENCODING 41681
SWIDTH 1024 0
DWIDTH 48 0
BBX 48 48 0 -6
BITMAP
000000000000
000000000000
000000000000
000000000000
000000000000
000000000000
000000000000
000000000000
000000000000
000000000000
000000000000
000000000000
000000000000
0007FFFFF800
001FFFFFFFF8
3F3EFFC00FFE
3FF007F0000E
33E00078000E
3300001FFFFC
3300000FFFF8
33003FC7B800
33003FE19800
33007FFDB800
3300FBFFF000
3303DDFFE000
330FBF7FE000
330E3F86E000
33001BFFC000
33F01CFF8000
3FFC0F0E0000
3E1FFFFC0000
0007FFFC0000
000000000000
000000000000
000000000000
000000000000
000000000000
000000000000
000000000000
000000000000
000000000000
000000000000
000000000000
000000000000
000000000000
000000000000
000000000000
000000000000
ENDCHAR

STARTCHAR kor_A2D2
ENCODING 41682
SWIDTH 1024 0
DWIDTH 48 0
BBX 48 48 0 -6
BITMAP
000000000000
000000000000
00007FC1E000
0001FFC1E000
0003FFC1E000
0007FFC1E000
000FE3C1E000
000F83C1E000
001F03C1E000
001F03C1E000
001E03C1E000
001E03C1E000
001E03C1E000
001E03C1E000
001F03C1E000
001F03C1E000
000F83C1E000
000FE3C1E000
0007FFC1E000
0003FFC1E000
0001FFC1E000
00007FC1E000
000003C1E000
000003C1E000
000003C1E000
000003C1E000
000003C1E000
000003C1E000
000003C1E000
000003C1E000
000003C1E000
000003C1E000
000003C1E000
000003C1E000
000003C1E000
000003C1E000
000003C1E000
000003C1E000
000003C1E000
000003C1E000
000003C1E000
000003C1E000
000003C1E000
000003C1E000
000000000000
000000000000
000000000000
000000000000
ENDCHAR

STARTCHAR kor_A2D3
ENCODING 41683
SWIDTH 1024 0
DWIDTH 48 0
BBX 48 48 0 -6
BITMAP
000000000000
000003C00000
000003C00000
000003C00000
000003C00000
000003C00000
000003C00000
000003C00000
000003C00000
000003C00000
000003C00000
000003C00000
001FFFFFF800
001FFFFFF800
001FFFFFF800
001FFFFFF800
000003C00000
000003C00000
000003C00000
000003C00000
000003C00000
000003C00000
000003C00000
000003C00000
000003C00000
000003C00000
000003C00000
000003C00000
000003C00000
000003C00000
000003C00000
000003C00000
000003C00000
000003C00000
000003C00000
000003C00000
000003C00000
000003C00000
000003C00000
000003C00000
000003C00000
000003C00000
000003C00000
000003C00000
000003C00000
000003C00000
000000000000
000000000000
ENDCHAR

STARTCHAR kor_A2D4
ENCODING 41684
SWIDTH 1024 0
DWIDTH 48 0
BBX 48 48 0 -6
BITMAP
000000000000
000003C00000
000003C00000
000003C00000
000003C00000
000003C00000
000003C00000
001FFFFFF800
001FFFFFF800
001FFFFFF800
001FFFFFF800
000003C00000
000003C00000
000003C00000
000003C00000
000FFFFFF000
000FFFFFF000
000FFFFFF000
000FFFFFF000
000003C00000
000003C00000
000003C00000
000003C00000
000003C00000
000003C00000
000003C00000
000003C00000
000003C00000
000003C00000
000003C00000
000003C00000
000003C00000
000003C00000
000003C00000
000003C00000
000003C00000
000003C00000
000003C00000
000003C00000
000003C00000
000003C00000
000003C00000
000003C00000
000003C00000
000003C00000
000000000000
000000000000
000000000000
ENDCHAR

STARTCHAR kor_A2D5
ENCODING 41685
SWIDTH 1024 0
DWIDTH 48 0
BBX 48 48 0 -6
BITMAP
000000000000
000000000000
000001800000
000001800000
000003C00000
000007E00000
00000FF00000
00001FF80000
00003FFC0000
00007FBE0000
0000799E0000
0000E1870000
0001C1838000
000181818000
000001800000
000001800000
000001800000
000001800000
000001800000
000001800000
000001800000
000001800000
000001800000
000001800000
000001800000
000001800000
000001800000
000001800000
000001800000
000001800000
000001800000
000001800000
000181800000
0001C1838000
0000F18F8000
00007DBE0000
00003FFC0000
00001FFC0000
00000FF80000
00000FF00000
000007E00000
000003C00000
000001800000
000000000000
000000000000
000000000000
000000000000
000000000000
ENDCHAR

STARTCHAR kor_A2D6
ENCODING 41686
SWIDTH 1024 0
DWIDTH 48 0
BBX 48 48 0 -6
BITMAP
000000000000
000000000000
000000000000
000000000000
000000000000
000000000000
000000000000
000000000000
00000001F800
000000FFF800
000000FFF800
0000000FF800
00000003F800
00000007F800
0000000FF800
0000001F7800
0000003E7000
0000007C3000
000000F83000
000001F03800
000003E01800
000007C00000
00000F800000
00001F000000
00003E000000
00007C000000
0000F8000000
0001F0000000
0003E0000000
0007C0000000
000F80000000
001F00000000
003E00000000
007C00000000
00F800000000
01F000000000
01E000000000
00C000000000
000000000000
000000000000
000000000000
000000000000
000000000000
000000000000
000000000000
000000000000
000000000000
000000000000
ENDCHAR

STARTCHAR kor_A2D7
ENCODING 41687
SWIDTH 1024 0
DWIDTH 48 0
BBX 48 48 0 -6
BITMAP
000000000000
000000000000
000000000000
000000000000
000000000000
000000000000
000000000000
000000000000
000000000300
000000000780
000000000F80
000000001E00
000000003C00
000000007800
00000000F000
00000001E000
00000003C000
000000078000
0000000F0000
0000001E0000
0000003C0000
000000780000
000000F00000
000001E00000
001803C00000
001807800000
00180F000000
001C1E000000
001C3C000000
001C78000000
001CF0000000
001FE0000000
001FC0000000
001F80000000
001FF0000000
001FFF000000
001FFF000000
001E00000000
000000000000
000000000000
000000000000
000000000000
000000000000
000000000000
000000000000
000000000000
000000000000
000000000000
ENDCHAR

STARTCHAR kor_A2D8
ENCODING 41688
SWIDTH 1024 0
DWIDTH 48 0
BBX 48 48 0 -6
BITMAP
000000000000
000000000000
000000000000
000000000000
000000000000
000000000000
000000000000
000000000000
000000000000
003FF8000000
003FFF000000
003FFF000000
001FE0000000
001F80000000
001FC0000000
001FE0000000
001CF0000000
001C78000000
001C3C000000
001C1E000000
00180F000000
001807800000
000003C00000
000001E00000
000000F00000
000000780000
0000003C0000
0000001E0000
0000000F0000
000000078000
00000003C000
00000001E000
00000000F000
000000007800
000000003C00
000000001E00
000000000F00
000000000700
000000000300
000000000000
000000000000
000000000000
000000000000
000000000000
000000000000
000000000000
000000000000
000000000000
ENDCHAR

STARTCHAR kor_A2D9
ENCODING 41689
SWIDTH 1024 0
DWIDTH 48 0
BBX 48 48 0 -6
BITMAP
000000000000
000000000000
000000000000
000000000000
000000000000
000000000000
000000000000
006000000000
00E000000000
00F000000000
007800000000
003C00000000
001E00000000
000F00000000
000780000000
0003C0000000
0001E0000000
0000F0000000
000078000000
00003C000000
00001E000000
00000F000000
000007800000
000003C00C00
000001E01C00
000000F01800
000000781800
0000003C3800
0000001E3800
0000000F3800
00000007F800
00000003F800
00000001F800
00000007F800
0000007FFC00
000000FFFC00
000000C07C00
000000000000
000000000000
000000000000
000000000000
000000000000
000000000000
000000000000
000000000000
000000000000
000000000000
000000000000
ENDCHAR

STARTCHAR kor_A2DA
ENCODING 41690
SWIDTH 1024 0
DWIDTH 48 0
BBX 48 48 0 -6
BITMAP
000000000000
000000000000
000000000000
000000000000
000000000000
000000000000
0000E0000000
0000E0000000
0000E0000000
0000E0000000
0000E0000000
0000E0000000
0000E0000000
0000E0000000
0000E0000000
0000E0000000
0000E1F00000
0000EFFC0000
0000FFFE0000
0000FE7F0000
0000F83F8000
0000F01F8000
0000E01F8000
0000E01F8000
0000E00F8000
0000E01F8000
0000E01F8000
0000E01F8000
0000E03F0000
0000E03F0000
0000E07E0000
0000E0FE0000
0000E0FC0000
0000E1F80000
0000E7F00000
0000EFE00000
0000FF800000
0000FE000000
0000FC000000
0000E0000000
000000000000
000000000000
000000000000
000000000000
000000000000
000000000000
000000000000
000000000000
ENDCHAR

STARTCHAR kor_A2DB
ENCODING 41691
SWIDTH 1024 0
DWIDTH 48 0
BBX 48 48 0 -6
BITMAP
000000000000
000000000000
000000700000
000000700000
000000700000
000000700000
000000700000
000000700000
000000700000
000000700000
000000700000
000000700000
000000700000
000000700000
000000700000
000000700000
000000700000
000000700000
000000700000
000000700000
000000700000
000000700000
000000700000
000000700000
000000700000
000000700000
000000700000
000000700000
000000700000
000000700000
000000700000
000000700000
000000700000
000000700000
000000700000
00000FF00000
00001FF00000
00003FF00000
00007FE00000
00007FE00000
0000FFC00000
0000FF800000
00007F000000
000038000000
000000000000
000000000000
000000000000
000000000000
ENDCHAR

STARTCHAR kor_A2DC
ENCODING 41692
SWIDTH 1024 0
DWIDTH 48 0
BBX 48 48 0 -6
BITMAP
000000000000
000000000000
000000000000
00001C000000
00001C000000
00001E000000
00001F000000
00001F800000
00001FC00000
00001FF00000
00001FF80000
00001FFC0000
00001FFE0000
00001FFF0000
00001CFF8000
00001C7FC000
00001C1FC000
00001C0FE000
00001C07E000
00001C03E000
00001C01E000
00001C01E000
00001C01E000
00001C01E000
00001C01E000
00001C01C000
00001C03C000
00001C038000
00001C078000
00001C0F0000
00001C1E0000
00001C3C0000
00001C700000
00001C600000
00007C000000
0003FC000000
000FFC000000
001FFC000000
001FF8000000
001FF8000000
003FF0000000
003FE0000000
001F80000000
000000000000
000000000000
000000000000
000000000000
000000000000
ENDCHAR

STARTCHAR kor_A2DD
ENCODING 41693
SWIDTH 1024 0
DWIDTH 48 0
BBX 48 48 0 -6
BITMAP
000000000000
000000000000
000000000600
00000000FE00
0000001FFC00
000001FFFC00
00003FFFFC00
0003FFFFFC00
0003FFFFFC00
0003FFFF8C00
0003FFF83C00
0003FF83FC00
0003F03FFC00
000303FFFC00
00037FFFFC00
0003FFFFFC00
0003FFFFFC00
0003FFFF0C00
0003FFE00C00
0003FE000C00
0003C0000C00
000300000C00
000300000C00
000300000C00
000300000C00
000300000C00
000300000C00
000300000C00
00030001FC00
00030003FC00
00030007FC00
0003000FFC00
0007001FFC00
000F001FF800
007F001FF000
01FF001FF000
03FF001FC000
07FE000F8000
0FFE00000000
0FFC00000000
0FF800000000
0FF000000000
0FC000000000
000000000000
000000000000
000000000000
000000000000
000000000000
ENDCHAR

STARTCHAR kor_A2DE
ENCODING 41694
SWIDTH 1024 0
DWIDTH 48 0
BBX 48 48 0 -6
BITMAP
000000000000
000000000000
00003FFE0000
0001FFFFC000
0007FFFFF000
001FFFFFFC00
003FE003FE00
007F00007F00
00FC00001F80
01F800000FC0
03F0000007C0
03E0000003E0
07C0000001E0
0780000001F0
0F80000000F0
0F003C3E00F0
0F003C7E00F0
1F003CFC0000
1E003DF80000
1E003FF00000
1E003FE00000
1FFC3FC0FFF8
1FFC3FE0FFF8
1FFC3FF0FFF8
1FFC3FF0FFF8
00003CF80078
00003CFC0078
00003C7C00F8
0F003C3E00F0
0F003C3F00F0
0F803C1F01F0
0780000001E0
07C0000003E0
03E0000007C0
03F000000FC0
01F800001F80
00FC00003F00
007F0000FE00
003FE007FC00
001FFFFFF800
0007FFFFE000
0001FFFF8000
00003FFC0000
000000000000
000000000000
000000000000
000000000000
000000000000
ENDCHAR

STARTCHAR kor_A2DF
ENCODING 41695
SWIDTH 1024 0
DWIDTH 48 0
BBX 48 48 0 -6
BITMAP
000000000000
000000000000
00C000000180
01E0000003C0
01E0000003C0
03C0000001E0
03CFFFFFF9E0
078FFFFFF8F0
078FFFFFF8F0
070FFFFFF870
0F0003E00078
0F0007F00078
0E000FF80038
0E001FFC0038
1E007FFF003C
1E00FF7F803C
1C03FE3FE01C
1C3FF80FFE1C
1C3FF007FE1C
1C1FC001FC1C
1C1E00003C1C
1C000000001C
1C000000001C
1CFFFFFFFF9C
1CFFFFFFFF9C
1CFFFFFFFF9C
1CFFFFFFFF9C
1C0003E0001C
1C0003E0001C
1C0003E0001C
1C0003E0001C
1E0003E0003C
1E0003E0003C
0E0003E00038
0E0003E00038
0F0003E00078
0F0003E00078
070003E00070
078003E000F0
078003E000F0
03C003E001E0
03C003E001E0
01E003E003C0
01E0000003C0
00C000000180
000000000000
000000000000
000000000000
ENDCHAR

STARTCHAR kor_A2E0
ENCODING 41696
SWIDTH 1024 0
DWIDTH 48 0
BBX 48 48 0 -6
BITMAP
000000000000
000000000000
000000000000
000000000000
1E001E000000
1E001E000000
1F001E000000
1F001E000000
1F801E000000
1F801E000000
1FC01E000000
1FC01E000000
1FE01E000000
1FE01E000000
1FF01E000000
1EF01E01FC00
1EF81E07FF00
1E781E0FFF80
1E7C1E1FFFC0
1E3C1E3F8FE0
1E3E1E3E03E0
1E1E1E7C01F0
1E1F1E7C01F0
1E0F1E7800F0
1E0F9E7800F0
1E079E7800F0
1E07DE7800F0
1E03DE7800F0
1E03FE7800F0
1E01FE7800F0
1E01FE7C01F0
1E00FE7C01F0
1E00FE3E03E0
1E007E3F8FFE
1E007E1FFFFE
1E003E0FFFBE
1E003E07FF3E
1E001E01FC3E
000000000000
000000000000
000000000000
000000000000
000000000000
000000000000
000000000000
000000000000
000000000000
000000000000
ENDCHAR

STARTCHAR kor_A2E1
ENCODING 41697
SWIDTH 1024 0
DWIDTH 48 0
BBX 48 48 0 -6
BITMAP
000000000000
000000000000
000000000000
001FC0000000
007FF0000000
00FFF8000000
01FFFC000000
03F8FC000000
03E03E000000
07C01E000000
07C01F000000
07800F000000
0F800F000000
0F800F000000
0F0000000000
0F000003F800
0F00000FFE00
0F00001FFF00
0F00003FFF80
0F00007F1FC0
0F00007C07C0
0F0000F803E0
0F0000F803E0
0F0000F001E0
0F0000F001E0
0F0000F001E0
0F0000F001E0
0F0000F001E0
0F000FF001E0
0F800FF001E0
07800FF803E0
07C01FF803E0
07C01E7C07C0
03E03E7F1FFE
03F8FC3FFFBE
01FFFC1FFF3E
00FFF80FFE3E
007FF003F83E
001FC0000000
000000000000
000000000000
000000000000
000000000000
000000000000
000000000000
000000000000
000000000000
000000000000
ENDCHAR

STARTCHAR kor_A2E2
ENCODING 41698
SWIDTH 1024 0
DWIDTH 48 0
BBX 48 48 0 -6
BITMAP
000000000000
000000000000
000000000000
000000000000
0FFFFE780078
0FFFFE780078
0FFFFE780078
0FFFFE7C00F8
000F007C00F8
000F007C00F8
000F007C00F8
000F007E01F8
000F007E01F8
000F007E01F8
000F007E01F8
000F007F03F8
000F007F03F8
000F007F03F8
000F007F03F8
000F007F87F8
000F007F87F8
000F007F87F8
000F007F87F8
000F007FCFF8
000F007BCF78
000F007BCF78
000F007BCF78
000F007BFF78
000F0079FE78
000F0079FE78
000F0079FE78
000F0079FE78
000F0078FC78
000F0078FC78
000F0078FC78
000F0078FC78
000F00787878
000F00787878
000F00787878
000000000000
000000000000
000000000000
000000000000
000000000000
000000000000
000000000000
000000000000
000000000000
ENDCHAR

STARTCHAR kor_A2E3
ENCODING 41699
SWIDTH 1024 0
DWIDTH 48 0
BBX 48 48 0 -6
BITMAP
000000000000
000000000000
000000000000
000000000000
000000000000
000000000000
000000000000
000000000000
000000000000
000000000000
000000000000
000000000000
000000000000
000000000000
000000000000
000000000000
000000000000
000000000000
000000000000
07F800FFBE00
1FFE00FFFF80
1FFE00FFFF80
3FFF00FFFFC0
3E1F00FBF7C0
3C0F00F1E3C0
3C0F00F1E3C0
000F00F1E3C0
07FF00F1E3C0
1FFF00F1E3C0
1FFF00F1E3C0
3FFF00F1E3C0
3E0F00F1E3C0
3C0F00F1E3C0
3C0F00F1E3C0
3E1F00F1E3C0
3FFFDEF1E3FC
1FFFDEF1E3FC
1FFFDEF1E3FC
07F7DEF1E3FC
000000000000
000000000000
000000000000
000000000000
000000000000
000000000000
000000000000
000000000000
000000000000
ENDCHAR

STARTCHAR kor_A2E4
ENCODING 41700
SWIDTH 1024 0
DWIDTH 48 0
BBX 48 48 0 -6
BITMAP
000000000000
000000000000
000000000000
000000000000
000000000000
000000000000
000000000000
000000000000
000000000000
000000000000
000000000000
000000000000
000000000000
000000000000
000000000000
000000000000
000000000000
000000000000
000000000000
0FFE00FFBE00
0FFF80FFFF80
0FFFC0FFFF80
0FFFE0FFFFC0
0FC7E0FBF7C0
0F01F0F1E3C0
0F01F0F1E3C0
0F00F0F1E3C0
0F00F0F1E3C0
0F00F0F1E3C0
0F00F0F1E3C0
0F00F0F1E3C0
0F00F0F1E3C0
0F01F0F1E3C0
0F01F0F1E3C0
0FC7E0F1E3C0
0FFFFEF1E3FC
0FFFDEF1E3FC
0FFF9EF1E3FC
0FFE1EF1E3FC
0F0000000000
0F0000000000
0F0000000000
0F0000000000
0F0000000000
000000000000
000000000000
000000000000
000000000000
ENDCHAR

STARTCHAR kor_A2E5
ENCODING 41701
SWIDTH 1024 0
DWIDTH 48 0
BBX 48 48 0 -6
BITMAP
000000000000
000000000000
000000000000
000000000000
1FFFFF800078
1FFFFF800078
1FFFFF800078
1FFFFF800078
000F00000078
000F00000078
000F00000078
000F00000078
000F00000078
000F00000078
000F003F0078
000F00FFC078
000F01FFE078
000F03FFF078
000F03E1F078
000F07C0F878
000F07807878
000F07807878
000F07807878
000F07FFF878
000F07FFF878
000F07FFF878
000F07FFF878
000F07800078
000F07800078
000F07800078
000F07807878
000F07807878
000F07807878
000F07C0F878
000F03E1F078
000F03FFF078
000F01FFE078
000F00FFC078
000F003F0078
000000000000
000000000000
000000000000
000000000000
000000000000
000000000000
000000000000
000000000000
000000000000
ENDCHAR

STARTCHAR default_char
ENCODING 41702
SWIDTH 48 0
DWIDTH 48 0
BBX 48 48 0 -6
BITMAP
000000000000
000000000000
30000000000C
30000000000C
000000000000
000000000000
000000000000
000000000000
000000000000
000000000000
000000000000
000000000000
000000000000
000000000000
000000000000
000000000000
000000000000
000000000000
000000000000
000000000000
000000000000
000000000000
000000000000
000000000000
000000000000
000000000000
000000000000
000000000000
000000000000
000000000000
000000000000
000000000000
000000000000
000000000000
000000000000
000000000000
000000000000
000000000000
000000000000
000000000000
000000000000
000000000000
000000000000
000000000000
30000000000C
30000000000C
000000000000
000000000000
ENDCHAR

STARTCHAR kor_A3A1
ENCODING 41889
SWIDTH 1024 0
DWIDTH 48 0
BBX 48 48 0 -6
BITMAP
000000000000
000000000000
000007E00000
000007E00000
000007E00000
000007E00000
000007E00000
000007E00000
000007E00000
000007E00000
000007E00000
000007E00000
000007E00000
000007E00000
000007E00000
000007E00000
000003C00000
000003C00000
000003C00000
000003C00000
000003C00000
000003C00000
000003C00000
000003C00000
000003C00000
000003C00000
000003C00000
000000000000
000000000000
000000000000
000000000000
000000000000
000007E00000
000007E00000
000007E00000
000007E00000
000007E00000
000007E00000
000000000000
000000000000
000000000000
000000000000
000000000000
000000000000
000000000000
000000000000
000000000000
000000000000
ENDCHAR

STARTCHAR kor_A3A2
ENCODING 41890
SWIDTH 1024 0
DWIDTH 48 0
BBX 48 48 0 -6
BITMAP
000000000000
000000000000
00001F1F0000
00001F1F0000
00001F1F0000
00001F1F0000
00001F1F0000
00001F1F0000
00001F1F0000
00001F1F0000
00001F1F0000
00001F1F0000
00001F1F0000
00001F1F0000
000000000000
000000000000
000000000000
000000000000
000000000000
000000000000
000000000000
000000000000
000000000000
000000000000
000000000000
000000000000
000000000000
000000000000
000000000000
000000000000
000000000000
000000000000
000000000000
000000000000
000000000000
000000000000
000000000000
000000000000
000000000000
000000000000
000000000000
000000000000
000000000000
000000000000
000000000000
000000000000
000000000000
000000000000
ENDCHAR

STARTCHAR kor_A3A3
ENCODING 41891
SWIDTH 1024 0
DWIDTH 48 0
BBX 48 48 0 -6
BITMAP
000000000000
000000000000
000000000000
00001F03E000
00001F03E000
00001F03E000
00001F03E000
00001F03E000
00001F03E000
00001F03E000
00003F07E000
00003E07C000
00003E07C000
00003E07C000
000FFFFFFE00
000FFFFFFE00
000FFFFFFE00
000FFFFFFE00
00007C0F8000
00007C0F8000
00007C0F8000
00007C0F8000
0000FC0F8000
0000F81F8000
0000F81F0000
0000F81F0000
0000F81F0000
0000F81F0000
003FFFFFF800
003FFFFFF800
003FFFFFF800
003FFFFFF800
0001F03E0000
0001F03E0000
0001F03E0000
0003F07E0000
0003E07C0000
0003E07C0000
0003E07C0000
0003E07C0000
0003E07C0000
0003E07C0000
0003E07C0000
0003E07C0000
000000000000
000000000000
000000000000
000000000000
ENDCHAR

STARTCHAR kor_A3A4
ENCODING 41892
SWIDTH 1024 0
DWIDTH 48 0
BBX 48 48 0 -6
BITMAP
000000000000
000000000000
000000000000
000007700000
000007700000
00000FF00000
00003FFC0000
00007FFE0000
0000FFFF0000
0001FF7F8000
0001FF7F8000
0003F77FC000
0003F77FC000
0003E777C000
0003E777C000
0003F7700000
0003F7700000
0001FF700000
0001FF700000
0000FFF00000
00007FFC0000
00003FFF0000
00000FFF8000
0000077FC000
0000077FC000
00000777E000
00000777E000
00000773E000
0007C773E000
0007C773E000
0007E777E000
0007E777E000
0003F77FC000
0003FF7FC000
0001FFFF8000
0000FFFF0000
00007FFE0000
00001FF80000
000007700000
000007700000
000007700000
000000000000
000000000000
000000000000
000000000000
000000000000
000000000000
000000000000
ENDCHAR

STARTCHAR kor_A3A5
ENCODING 41893
SWIDTH 1024 0
DWIDTH 48 0
BBX 48 48 0 -6
BITMAP
000000000000
000000000030
0003F0000078
000FFC0000FC
003FFE0001FC
007FFE0003F8
00FF3F0007F0
01FC1F000FE0
03F81F001FC0
03F01F003F80
07E01F007F00
07C03E00FE00
07C03E01FC00
0F807E03F800
0F80FC07F000
0F81FC0FE000
0F83F81FC000
0FCFF03F8000
07FFE07F0000
07FFC0FE0000
03FF01FC0000
00FC03F80000
000007F01F80
00000FE07FE0
00001FC1FFF0
00003F83FFF0
00007F07F9F8
0000FE0FE0F8
0001FC1FC0F8
0003F81F80F8
0007F03F01F8
000FE03E01F0
001FC03E03F0
003F807C07E0
007F007C0FE0
00FE007C1FC0
01FC007E7F80
03F8003FFF00
07F0003FFE00
0FE0001FF800
0FC00007E000
078000000000
030000000000
000000000000
000000000000
000000000000
000000000000
000000000000
ENDCHAR

STARTCHAR kor_A3A6
ENCODING 41894
SWIDTH 1024 0
DWIDTH 48 0
BBX 48 48 0 -6
BITMAP
000000000000
000000000000
000000000000
00003F800000
0000FFE00000
0001FFF00000
0003FFF00000
0003F1F80000
0007E0F80000
0007C0F80000
0007C0F80000
0007C0F80000
0007E1F80000
0007E1F00000
0003F3F00000
0003F7E00000
0001FFE00000
0001FFC00000
0003FF800000
000FFF000000
001FFF800000
003FDFC1F000
003F0FE1F000
007E07F1F000
007E03FBF000
007C01FFE000
007C00FFE000
007C007FE000
007E003FC000
007E003FC000
003F007FE000
003FC3FFF000
001FFFFFF800
000FFFF9FC00
0003FFE0FE00
00007E007E00
000000000000
000000000000
000000000000
000000000000
000000000000
000000000000
000000000000
000000000000
000000000000
000000000000
000000000000
000000000000
ENDCHAR

STARTCHAR kor_A3A7
ENCODING 41895
SWIDTH 1024 0
DWIDTH 48 0
BBX 48 48 0 -6
BITMAP
000000000000
000000000000
000003E00000
000003E00000
000003E00000
000003E00000
000003E00000
000003E00000
000003E00000
000003E00000
000003E00000
000003E00000
000003E00000
000003E00000
000000000000
000000000000
000000000000
000000000000
000000000000
000000000000
000000000000
000000000000
000000000000
000000000000
000000000000
000000000000
000000000000
000000000000
000000000000
000000000000
000000000000
000000000000
000000000000
000000000000
000000000000
000000000000
000000000000
000000000000
000000000000
000000000000
000000000000
000000000000
000000000000
000000000000
000000000000
000000000000
000000000000
000000000000
ENDCHAR

STARTCHAR kor_A3A8
ENCODING 41896
SWIDTH 1024 0
DWIDTH 48 0
BBX 48 48 0 -6
BITMAP
000000000000
000000000000
000000000060
0000000000F0
0000000001F8
0000000001F8
0000000003F0
0000000003E0
0000000007E0
0000000007C0
000000000FC0
000000000F80
000000000F80
000000001F80
000000001F00
000000001F00
000000001F00
000000003F00
000000003E00
000000003E00
000000003E00
000000003E00
000000003E00
000000003E00
000000003E00
000000003E00
000000003E00
000000003E00
000000003E00
000000003F00
000000001F00
000000001F00
000000001F00
000000001F80
000000000F80
000000000F80
000000000FC0
0000000007C0
0000000007E0
0000000003E0
0000000003F0
0000000001F8
0000000001F8
0000000000F0
000000000060
000000000000
000000000000
000000000000
ENDCHAR

STARTCHAR kor_A3A9
ENCODING 41897
SWIDTH 1024 0
DWIDTH 48 0
BBX 48 48 0 -6
BITMAP
000000000000
000000000000
030000000000
078000000000
0FC000000000
0FC000000000
07E000000000
03E000000000
03F000000000
01F000000000
01F800000000
00F800000000
00F800000000
00FC00000000
007C00000000
007C00000000
007C00000000
007E00000000
003E00000000
003E00000000
003E00000000
003E00000000
003E00000000
003E00000000
003E00000000
003E00000000
003E00000000
003E00000000
003E00000000
007E00000000
007C00000000
007C00000000
007C00000000
00FC00000000
00F800000000
00F800000000
01F800000000
01F000000000
03F000000000
03E000000000
07E000000000
0FC000000000
0FC000000000
078000000000
030000000000
000000000000
000000000000
000000000000
ENDCHAR

STARTCHAR kor_A3AA
ENCODING 41898
SWIDTH 1024 0
DWIDTH 48 0
BBX 48 48 0 -6
BITMAP
000000000000
000000000000
000000000000
000000000000
000000000000
000000000000
000000000000
000000000000
000000000000
000000000000
000000000000
000000000000
000000000000
000001C00000
000003E00000
000003E00000
000003E00000
0000E3E38000
0001F3E7C000
0001F9CFC000
0001FDDFC000
0000FFFF8000
00003FFE0000
000007F00000
000007F00000
00003FFE0000
0000FFFF8000
0001FDDFC000
0001F9CFC000
0001F3E7C000
0000E3E38000
000003E00000
000003E00000
000003E00000
000001C00000
000000000000
000000000000
000000000000
000000000000
000000000000
000000000000
000000000000
000000000000
000000000000
000000000000
000000000000
000000000000
000000000000
ENDCHAR

STARTCHAR kor_A3AB
ENCODING 41899
SWIDTH 1024 0
DWIDTH 48 0
BBX 48 48 0 -6
BITMAP
000000000000
000000000000
000000000000
000000000000
000000000000
000000000000
000000000000
000001E00000
000001E00000
000001E00000
000001E00000
000001E00000
000001E00000
000001E00000
000001E00000
000001E00000
000001E00000
000001E00000
000001E00000
000001E00000
000001E00000
00FFFFFFFFC0
00FFFFFFFFC0
00FFFFFFFFC0
00FFFFFFFFC0
000001E00000
000001E00000
000001E00000
000001E00000
000001E00000
000001E00000
000001E00000
000001E00000
000001E00000
000001E00000
000001E00000
000001E00000
000001E00000
000001E00000
000000000000
000000000000
000000000000
000000000000
000000000000
000000000000
000000000000
000000000000
000000000000
ENDCHAR

STARTCHAR kor_A3AC
ENCODING 41900
SWIDTH 1024 0
DWIDTH 48 0
BBX 48 48 0 -6
BITMAP
000000000000
000000000000
000000000000
000000000000
000000000000
000000000000
000000000000
000000000000
000000000000
000000000000
000000000000
000000000000
000000000000
000000000000
000000000000
000000000000
000000000000
000000000000
000000000000
000000000000
000000000000
000000000000
000000000000
000000000000
000000000000
000000000000
000000000000
000000000000
000000000000
000000000000
000000000000
0FE000000000
0FE000000000
0FE000000000
0FE000000000
0FE000000000
0FE000000000
0FE000000000
03E000000000
03C000000000
07C000000000
0F8000000000
0F8000000000
070000000000
000000000000
000000000000
000000000000
000000000000
ENDCHAR

STARTCHAR kor_A3AD
ENCODING 41901
SWIDTH 1024 0
DWIDTH 48 0
BBX 48 48 0 -6
BITMAP
000000000000
000000000000
000000000000
000000000000
000000000000
000000000000
000000000000
000000000000
000000000000
000000000000
000000000000
000000000000
000000000000
000000000000
000000000000
000000000000
000000000000
000000000000
000000000000
000000000000
000000000000
01FFFFFFFF80
01FFFFFFFF80
01FFFFFFFF80
01FFFFFFFF80
000000000000
000000000000
000000000000
000000000000
000000000000
000000000000
000000000000
000000000000
000000000000
000000000000
000000000000
000000000000
000000000000
000000000000
000000000000
000000000000
000000000000
000000000000
000000000000
000000000000
000000000000
000000000000
000000000000
ENDCHAR

STARTCHAR kor_A3AE
ENCODING 41902
SWIDTH 1024 0
DWIDTH 48 0
BBX 48 48 0 -6
BITMAP
000000000000
000000000000
000000000000
000000000000
000000000000
000000000000
000000000000
000000000000
000000000000
000000000000
000000000000
000000000000
000000000000
000000000000
000000000000
000000000000
000000000000
000000000000
000000000000
000000000000
000000000000
000000000000
000000000000
000000000000
000000000000
000000000000
000000000000
000000000000
000000000000
000000000000
000000000000
1FC000000000
1FC000000000
1FC000000000
1FC000000000
1FC000000000
1FC000000000
1FC000000000
000000000000
000000000000
000000000000
000000000000
000000000000
000000000000
000000000000
000000000000
000000000000
000000000000
ENDCHAR

STARTCHAR kor_A3AF
ENCODING 41903
SWIDTH 1024 0
DWIDTH 48 0
BBX 48 48 0 -6
BITMAP
000000000000
00000003C000
00000003C000
00000007C000
000000078000
0000000F8000
0000000F0000
0000000F0000
0000001F0000
0000001E0000
0000003E0000
0000003C0000
0000007C0000
000000780000
000000780000
000000F80000
000000F00000
000001F00000
000001E00000
000001E00000
000003E00000
000003C00000
000007C00000
000007800000
00000F800000
00000F000000
00000F000000
00001F000000
00001E000000
00003E000000
00003C000000
00003C000000
00007C000000
000078000000
0000F8000000
0000F0000000
0001F0000000
0001E0000000
0001E0000000
0003E0000000
0003C0000000
0007C0000000
000780000000
000780000000
000000000000
000000000000
000000000000
000000000000
ENDCHAR

STARTCHAR kor_A3B0
ENCODING 41904
SWIDTH 1024 0
DWIDTH 48 0
BBX 48 48 0 -6
BITMAP
000000000000
000000000000
000000000000
00000FF00000
00003FFC0000
00007FFE0000
0000FFFF0000
0000FE7F0000
0001F81F8000
0001F00F8000
0001F00F8000
0003F00FC000
0003E007C000
0003E007C000
0003E007C000
0003E007C000
0003E007C000
0003E007C000
0003E007C000
0003E007C000
0003E007C000
0003E007C000
0003E007C000
0003E007C000
0003E007C000
0003E007C000
0003F00FC000
0001F00F8000
0001F00F8000
0001F81F8000
0000FE7F0000
0000FFFF0000
00007FFE0000
00003FFC0000
00000FF00000
000000000000
000000000000
000000000000
000000000000
000000000000
000000000000
000000000000
000000000000
000000000000
000000000000
000000000000
000000000000
000000000000
ENDCHAR

STARTCHAR kor_A3B1
ENCODING 41905
SWIDTH 1024 0
DWIDTH 48 0
BBX 48 48 0 -6
BITMAP
000000000000
000000000000
000003C00000
000003C00000
000007C00000
00003FC00000
00003FC00000
00003FC00000
00003FC00000
000007C00000
000007C00000
000007C00000
000007C00000
000007C00000
000007C00000
000007C00000
000007C00000
000007C00000
000007C00000
000007C00000
000007C00000
000007C00000
000007C00000
000007C00000
000007C00000
000007C00000
000007C00000
000007C00000
000007C00000
000007C00000
000007C00000
000007C00000
000007C00000
000007C00000
000007C00000
000007C00000
000000000000
000000000000
000000000000
000000000000
000000000000
000000000000
000000000000
000000000000
000000000000
000000000000
000000000000
000000000000
ENDCHAR

STARTCHAR kor_A3B2
ENCODING 41906
SWIDTH 1024 0
DWIDTH 48 0
BBX 48 48 0 -6
BITMAP
000000000000
000000000000
000000000000
00001FF00000
00007FFC0000
0000FFFE0000
0001FFFF0000
0003F87F0000
0003E01F8000
0007E01F8000
0007C00F8000
0007C00F8000
0007C00F8000
0007C01F8000
0000001F8000
0000003F0000
0000007F0000
000000FE0000
000003FC0000
000007F80000
00000FF00000
00001FC00000
00003F800000
00007F000000
0000FE000000
0001FC000000
0001F8000000
0003F0000000
0003F0000000
0003E0000000
0007E0000000
0007FFFF8000
0007FFFF8000
0007FFFF8000
0007FFFF8000
000000000000
000000000000
000000000000
000000000000
000000000000
000000000000
000000000000
000000000000
000000000000
000000000000
000000000000
000000000000
000000000000
ENDCHAR

STARTCHAR kor_A3B3
ENCODING 41907
SWIDTH 1024 0
DWIDTH 48 0
BBX 48 48 0 -6
BITMAP
000000000000
000000000000
000000000000
00001FF00000
00007FFC0000
0000FFFE0000
0001FFFF0000
0001F83F0000
0003F01F8000
0003E00F8000
0003E00F8000
0003E00F8000
0000001F8000
0000001F8000
0000003F0000
000000FF0000
00000FFE0000
00000FFC0000
00000FFE0000
00000FFF0000
0000007F8000
0000001F8000
0000000FC000
00000007C000
00000007C000
00000007C000
0007C007C000
0007C00FC000
0007C00FC000
0007E01F8000
0003F07F8000
0003FFFF0000
0001FFFE0000
0000FFFC0000
00003FF00000
000000000000
000000000000
000000000000
000000000000
000000000000
000000000000
000000000000
000000000000
000000000000
000000000000
000000000000
000000000000
000000000000
ENDCHAR

STARTCHAR kor_A3B4
ENCODING 41908
SWIDTH 1024 0
DWIDTH 48 0
BBX 48 48 0 -6
BITMAP
000000000000
000000000000
000000000000
000000FE0000
000000FE0000
000001FE0000
000001FE0000
000003FE0000
000003FE0000
000007FE0000
000007FE0000
00000FFE0000
00000FBE0000
00001FBE0000
00001F3E0000
00003F3E0000
00003E3E0000
00007E3E0000
00007C3E0000
0000FC3E0000
0000F83E0000
0001F83E0000
0001F03E0000
0003F03E0000
0003E03E0000
0007FFFFC000
0007FFFFC000
0007FFFFC000
0007FFFFC000
0000003E0000
0000003E0000
0000003E0000
0000003E0000
0000003E0000
0000003E0000
0000003E0000
000000000000
000000000000
000000000000
000000000000
000000000000
000000000000
000000000000
000000000000
000000000000
000000000000
000000000000
000000000000
ENDCHAR

STARTCHAR kor_A3B5
ENCODING 41909
SWIDTH 1024 0
DWIDTH 48 0
BBX 48 48 0 -6
BITMAP
000000000000
000000000000
000000000000
0003FFFF0000
0003FFFF0000
0003FFFF0000
0003FFFF0000
0003E0000000
0003E0000000
0003E0000000
0003E0000000
0003E0000000
0003E0000000
0003E0000000
0003EFF00000
0003FFFC0000
0003FFFE0000
0003FFFF0000
0003FC7F8000
0003F01F8000
0003E00FC000
0000000FC000
00000007C000
00000007C000
00000007C000
00000007C000
0007C007C000
0007C007C000
0007E00FC000
0007E00FC000
0003F01F8000
0003FC7F8000
0001FFFF0000
0000FFFE0000
00007FFC0000
00001FF00000
000000000000
000000000000
000000000000
000000000000
000000000000
000000000000
000000000000
000000000000
000000000000
000000000000
000000000000
000000000000
ENDCHAR

STARTCHAR kor_A3B6
ENCODING 41910
SWIDTH 1024 0
DWIDTH 48 0
BBX 48 48 0 -6
BITMAP
000000000000
000000000000
000000000000
00000FF00000
00003FFC0000
00007FFE0000
0000FFFF0000
0000FE7F0000
0001F81F8000
0001F00F8000
0001F00F8000
0003E00F8000
0003E0000000
0003E0000000
0003E0000000
0003EFF00000
0003FFFC0000
0003FFFE0000
0003FFFF0000
0003FE7F8000
0003F81F8000
0003F00FC000
0003F00FC000
0003E007C000
0003E007C000
0003E007C000
0003E007C000
0003E007C000
0001F00FC000
0001F00FC000
0001F81F8000
0000FE7F8000
0000FFFF0000
00007FFE0000
00003FFC0000
00000FF00000
000000000000
000000000000
000000000000
000000000000
000000000000
000000000000
000000000000
000000000000
000000000000
000000000000
000000000000
000000000000
ENDCHAR

STARTCHAR kor_A3B7
ENCODING 41911
SWIDTH 1024 0
DWIDTH 48 0
BBX 48 48 0 -6
BITMAP
000000000000
000000000000
000000000000
0003FFFF8000
0003FFFF8000
0003FFFF8000
0003FFFF8000
0000000F8000
0000001F8000
0000001F0000
0000003F0000
0000003E0000
0000003E0000
0000007E0000
0000007C0000
0000007C0000
000000FC0000
000000F80000
000000F80000
000001F80000
000001F00000
000001F00000
000003F00000
000003E00000
000003E00000
000003E00000
000007E00000
000007C00000
000007C00000
000007C00000
000007C00000
00000FC00000
00000F800000
00000F800000
00000F800000
00000F800000
000000000000
000000000000
000000000000
000000000000
000000000000
000000000000
000000000000
000000000000
000000000000
000000000000
000000000000
000000000000
ENDCHAR

STARTCHAR kor_A3B8
ENCODING 41912
SWIDTH 1024 0
DWIDTH 48 0
BBX 48 48 0 -6
BITMAP
000000000000
000000000000
000000000000
00001FF00000
00007FFC0000
0000FFFE0000
0001FFFF0000
0001FC7F0000
0003F01F8000
0003F01F8000
0003E00F8000
0003E00F8000
0003F01F8000
0003F01F8000
0001F83F0000
0001FEFF0000
0000FFFE0000
00007FFC0000
0000FFFE0000
0001FFFF0000
0003FC7F8000
0003F01F8000
0007E00FC000
0007E00FC000
0007C007C000
0007C007C000
0007C007C000
0007E00FC000
0007E00FC000
0003F01F8000
0003FC7F8000
0001FFFF0000
0000FFFE0000
00007FFC0000
00001FF00000
000000000000
000000000000
000000000000
000000000000
000000000000
000000000000
000000000000
000000000000
000000000000
000000000000
000000000000
000000000000
000000000000
ENDCHAR

STARTCHAR kor_A3B9
ENCODING 41913
SWIDTH 1024 0
DWIDTH 48 0
BBX 48 48 0 -6
BITMAP
000000000000
000000000000
000000000000
00000FF00000
00003FFC0000
00007FFE0000
0000FFFF0000
0001FE7F0000
0001F81F8000
0003F00F8000
0003F00F8000
0003E007C000
0003E007C000
0003E007C000
0003E007C000
0003E007C000
0003F00FC000
0003F00FC000
0001F81FC000
0001FE7FC000
0000FFFFC000
00007FFFC000
00003FFFC000
00000FF7C000
00000007C000
00000007C000
0001F007C000
0001F00F8000
0001F00F8000
0001F81F8000
0000FE7F0000
0000FFFF0000
00007FFE0000
00003FFC0000
00000FF00000
000000000000
000000000000
000000000000
000000000000
000000000000
000000000000
000000000000
000000000000
000000000000
000000000000
000000000000
000000000000
000000000000
ENDCHAR

STARTCHAR kor_A3BA
ENCODING 41914
SWIDTH 1024 0
DWIDTH 48 0
BBX 48 48 0 -6
BITMAP
000000000000
000000000000
000000000000
000000000000
000000000000
000000000000
000000000000
000000000000
000000000000
000000000000
000000000000
000007E00000
000007E00000
000007E00000
000007E00000
000007E00000
000007E00000
000000000000
000000000000
000000000000
000000000000
000000000000
000000000000
000000000000
000000000000
000000000000
000000000000
000000000000
000000000000
000007E00000
000007E00000
000007E00000
000007E00000
000007E00000
000007E00000
000000000000
000000000000
000000000000
000000000000
000000000000
000000000000
000000000000
000000000000
000000000000
000000000000
000000000000
000000000000
000000000000
ENDCHAR

STARTCHAR kor_A3BB
ENCODING 41915
SWIDTH 1024 0
DWIDTH 48 0
BBX 48 48 0 -6
BITMAP
000000000000
000000000000
000000000000
000000000000
000000000000
000000000000
000000000000
000000000000
000000000000
000000000000
000000000000
000007E00000
000007E00000
000007E00000
000007E00000
000007E00000
000007E00000
000000000000
000000000000
000000000000
000000000000
000000000000
000000000000
000000000000
000000000000
000000000000
000000000000
000000000000
000007E00000
000007E00000
000007E00000
000007E00000
000007E00000
000007E00000
000003E00000
000007C00000
00000FC00000
00000F800000
000007000000
000000000000
000000000000
000000000000
000000000000
000000000000
000000000000
000000000000
000000000000
000000000000
ENDCHAR

STARTCHAR kor_A3BC
ENCODING 41916
SWIDTH 1024 0
DWIDTH 48 0
BBX 48 48 0 -6
BITMAP
000000000000
000000000000
000000000000
000000000000
000000000000
000000000000
0000000001C0
0000000007E0
000000001FE0
000000007FE0
00000001FF80
00000007FE00
0000001FF800
0000007FE000
000001FF8000
000007FE0000
00001FF80000
00007FE00000
0001FF800000
0007FE000000
001FF8000000
007FE0000000
01FF80000000
01FF80000000
007FE0000000
001FF8000000
0007FE000000
0001FF800000
00007FE00000
00001FF80000
000007FE0000
000001FF8000
0000007FE000
0000001FF800
00000007FE00
00000001FF80
000000007FE0
000000001FE0
0000000007E0
0000000001C0
000000000000
000000000000
000000000000
000000000000
000000000000
000000000000
000000000000
000000000000
ENDCHAR

STARTCHAR kor_A3BD
ENCODING 41917
SWIDTH 1024 0
DWIDTH 48 0
BBX 48 48 0 -6
BITMAP
000000000000
000000000000
000000000000
000000000000
000000000000
000000000000
000000000000
000000000000
000000000000
000000000000
000000000000
000000000000
000000000000
000000000000
000000000000
000000000000
01FFFFFFFF80
01FFFFFFFF80
01FFFFFFFF80
000000000000
000000000000
000000000000
000000000000
000000000000
000000000000
000000000000
01FFFFFFFF80
01FFFFFFFF80
01FFFFFFFF80
000000000000
000000000000
000000000000
000000000000
000000000000
000000000000
000000000000
000000000000
000000000000
000000000000
000000000000
000000000000
000000000000
000000000000
000000000000
000000000000
000000000000
000000000000
000000000000
ENDCHAR

STARTCHAR kor_A3BE
ENCODING 41918
SWIDTH 1024 0
DWIDTH 48 0
BBX 48 48 0 -6
BITMAP
000000000000
000000000000
000000000000
000000000000
000000000000
000000000000
01C000000000
03F000000000
03FC00000000
03FF00000000
00FFC0000000
003FF0000000
000FFC000000
0003FF000000
0000FFC00000
00003FF00000
00000FFC0000
000003FF0000
000000FFC000
0000003FF000
0000000FFC00
00000003FF00
00000000FFC0
00000000FFC0
00000003FF00
0000000FFC00
0000003FF000
000000FFC000
000003FF0000
00000FFC0000
00003FF00000
0000FFC00000
0003FF000000
000FFC000000
003FF0000000
00FFC0000000
03FF00000000
03FC00000000
03F000000000
01C000000000
000000000000
000000000000
000000000000
000000000000
000000000000
000000000000
000000000000
000000000000
ENDCHAR

STARTCHAR kor_A3BF
ENCODING 41919
SWIDTH 1024 0
DWIDTH 48 0
BBX 48 48 0 -6
BITMAP
000000000000
000000000000
000007F00000
00001FFC0000
00003FFE0000
00007FFF0000
00007E3F0000
0000FC1F8000
0000F80F8000
0000F80F8000
0000F80F8000
0000F80F8000
0000F80F8000
0000001F8000
0000001F0000
0000003F0000
0000007E0000
000000FE0000
000001FC0000
000001F80000
000003F00000
000003F00000
000003E00000
000007E00000
000007E00000
000007C00000
000007C00000
000007C00000
000007C00000
000007C00000
000007C00000
000007C00000
000000000000
000000000000
000000000000
000007E00000
000007E00000
000007E00000
000007E00000
000007E00000
000007E00000
000000000000
000000000000
000000000000
000000000000
000000000000
000000000000
000000000000
ENDCHAR

STARTCHAR kor_A3C0
ENCODING 41920
SWIDTH 1024 0
DWIDTH 48 0
BBX 48 48 0 -6
BITMAP
000000000000
000000000000
000000000000
000000000000
000000000000
000000000000
000000000000
00000FFE0000
00003FFF8000
0000FC03E000
0001E000F000
0003C0003800
000780003C00
000F00001C00
001E01F1EE00
001C07FDEE00
003C0FFFC600
00381F87C600
00381F07C600
00383E038700
00707C078300
007078078700
007078070600
0070F00F0600
0070F00F0E00
0070F01F0C00
0038F03E1C00
0038707E3800
003C7FEE7000
001C3FCFE000
001E1F07C300
000E00000F00
000F00001E00
0007C0003C00
0003E000F000
0001F801E000
00007F1FC000
00001FFF0000
000001F00000
000000000000
000000000000
000000000000
000000000000
000000000000
000000000000
000000000000
000000000000
000000000000
ENDCHAR

STARTCHAR kor_A3C1
ENCODING 41921
SWIDTH 1024 0
DWIDTH 48 0
BBX 48 48 0 -6
BITMAP
000000000000
000000000000
000003C00000
000003C00000
000007E00000
000007E00000
00000FF00000
00000FF00000
00000FF00000
00001FF80000
00001FF80000
00003FFC0000
00003E7C0000
00007E7E0000
00007C3E0000
00007C3E0000
0000FC3F0000
0000F81F0000
0001F81F8000
0001F00F8000
0003F00FC000
0003E007C000
0003E007C000
0007FFFFE000
0007FFFFE000
000FFFFFF000
000FFFFFF000
001F8001F800
001F0000F800
001F0000F800
003F0000FC00
003E00007C00
007E00007E00
007C00003E00
000000000000
000000000000
000000000000
000000000000
000000000000
000000000000
000000000000
000000000000
000000000000
000000000000
000000000000
000000000000
000000000000
000000000000
ENDCHAR

STARTCHAR kor_A3C2
ENCODING 41922
SWIDTH 1024 0
DWIDTH 48 0
BBX 48 48 0 -6
BITMAP
000000000000
000FFFFF0000
000FFFFFC000
000FFFFFE000
000FFFFFF000
000F8007F000
000F8001F800
000F8001F800
000F8000F800
000F8000F800
000F8000F800
000F8000F800
000F8001F800
000F8001F000
000F8007F000
000FFFFFE000
000FFFFFC000
000FFFFFE000
000FFFFFF000
000F8003F800
000F8000F800
000F8000FC00
000F80007C00
000F80007C00
000F80007C00
000F80007C00
000F8000FC00
000F8000FC00
000F8001F800
000F8007F800
000FFFFFF000
000FFFFFE000
000FFFFFC000
000FFFFF0000
000000000000
000000000000
000000000000
000000000000
000000000000
000000000000
000000000000
000000000000
000000000000
000000000000
000000000000
000000000000
000000000000
000000000000
ENDCHAR

STARTCHAR kor_A3C3
ENCODING 41923
SWIDTH 1024 0
DWIDTH 48 0
BBX 48 48 0 -6
BITMAP
000000000000
000007F00000
00003FFE0000
0000FFFF8000
0001FFFFC000
0003FC1FE000
0007F007F000
0007E003F000
000FC001F800
000FC001F800
000F8000F800
001F8000F800
001F8000F800
001F00000000
001F00000000
001F00000000
001F00000000
001F00000000
001F00000000
001F00000000
001F00000000
001F00000000
001F00000000
001F8000F800
001F8000F800
000F8000F800
000FC001F800
000FC001F800
0007E003F000
0007F007F000
0003FC1FE000
0001FFFFC000
0000FFFF8000
00003FFE0000
00000FF00000
000000000000
000000000000
000000000000
000000000000
000000000000
000000000000
000000000000
000000000000
000000000000
000000000000
000000000000
000000000000
000000000000
ENDCHAR

STARTCHAR kor_A3C4
ENCODING 41924
SWIDTH 1024 0
DWIDTH 48 0
BBX 48 48 0 -6
BITMAP
000000000000
001FFFE00000
001FFFFC0000
001FFFFF0000
001FFFFF8000
001F003FC000
001F000FE000
001F0007E000
001F0003F000
001F0003F000
001F0001F000
001F0001F800
001F0001F800
001F0000F800
001F0000F800
001F0000F800
001F0000F800
001F0000F800
001F0000F800
001F0000F800
001F0000F800
001F0000F800
001F0001F800
001F0001F800
001F0001F000
001F0003F000
001F0003F000
001F0007E000
001F000FE000
001F003FC000
001FFFFF8000
001FFFFF0000
001FFFFC0000
001FFFE00000
000000000000
000000000000
000000000000
000000000000
000000000000
000000000000
000000000000
000000000000
000000000000
000000000000
000000000000
000000000000
000000000000
000000000000
ENDCHAR

STARTCHAR kor_A3C5
ENCODING 41925
SWIDTH 1024 0
DWIDTH 48 0
BBX 48 48 0 -6
BITMAP
000000000000
000000000000
001FFFFFF000
001FFFFFF000
001FFFFFF000
001FFFFFF000
001F00000000
001F00000000
001F00000000
001F00000000
001F00000000
001F00000000
001F00000000
001F00000000
001F00000000
001FFFFF0000
001FFFFF0000
001FFFFF0000
001FFFFF0000
001F00000000
001F00000000
001F00000000
001F00000000
001F00000000
001F00000000
001F00000000
001F00000000
001F00000000
001F00000000
001F00000000
001FFFFFF800
001FFFFFF800
001FFFFFF800
001FFFFFF800
000000000000
000000000000
000000000000
000000000000
000000000000
000000000000
000000000000
000000000000
000000000000
000000000000
000000000000
000000000000
000000000000
000000000000
ENDCHAR

STARTCHAR kor_A3C6
ENCODING 41926
SWIDTH 1024 0
DWIDTH 48 0
BBX 48 48 0 -6
BITMAP
000000000000
000000000000
001FFFFFF000
001FFFFFF000
001FFFFFF000
001FFFFFF000
001F00000000
001F00000000
001F00000000
001F00000000
001F00000000
001F00000000
001F00000000
001F00000000
001F00000000
001F00000000
001FFFFC0000
001FFFFC0000
001FFFFC0000
001FFFFC0000
001F00000000
001F00000000
001F00000000
001F00000000
001F00000000
001F00000000
001F00000000
001F00000000
001F00000000
001F00000000
001F00000000
001F00000000
001F00000000
001F00000000
000000000000
000000000000
000000000000
000000000000
000000000000
000000000000
000000000000
000000000000
000000000000
000000000000
000000000000
000000000000
000000000000
000000000000
ENDCHAR

STARTCHAR kor_A3C7
ENCODING 41927
SWIDTH 1024 0
DWIDTH 48 0
BBX 48 48 0 -6
BITMAP
000000000000
000007F00000
00003FFE0000
0000FFFF8000
0001FFFFC000
0003FC1FE000
0007F007F000
0007E003F000
000FC001F800
000FC001F800
000F8000F800
001F8000F800
001F8000F800
001F00000000
001F00000000
001F00000000
001F00000000
001F00000000
001F003FFE00
001F003FFE00
001F003FFE00
001F003FFE00
001F0001F000
001F8001F000
001F8001F000
000F8003F000
000FC003F000
000FC003F000
0007E007F000
0007F00FF000
0003FC3FF000
0001FFFFF000
0000FFFFF000
00003FFEF000
00000FF80000
000000000000
000000000000
000000000000
000000000000
000000000000
000000000000
000000000000
000000000000
000000000000
000000000000
000000000000
000000000000
000000000000
ENDCHAR

STARTCHAR kor_A3C8
ENCODING 41928
SWIDTH 1024 0
DWIDTH 48 0
BBX 48 48 0 -6
BITMAP
000000000000
000000000000
0007C0007C00
0007C0007C00
0007C0007C00
0007C0007C00
0007C0007C00
0007C0007C00
0007C0007C00
0007C0007C00
0007C0007C00
0007C0007C00
0007C0007C00
0007C0007C00
0007C0007C00
0007C0007C00
0007FFFFFC00
0007FFFFFC00
0007FFFFFC00
0007FFFFFC00
0007C0007C00
0007C0007C00
0007C0007C00
0007C0007C00
0007C0007C00
0007C0007C00
0007C0007C00
0007C0007C00
0007C0007C00
0007C0007C00
0007C0007C00
0007C0007C00
0007C0007C00
0007C0007C00
0007C0007C00
000000000000
000000000000
000000000000
000000000000
000000000000
000000000000
000000000000
000000000000
000000000000
000000000000
000000000000
000000000000
000000000000
ENDCHAR

STARTCHAR kor_A3C9
ENCODING 41929
SWIDTH 1024 0
DWIDTH 48 0
BBX 48 48 0 -6
BITMAP
000000000000
000000000000
000007C00000
000007C00000
000007C00000
000007C00000
000007C00000
000007C00000
000007C00000
000007C00000
000007C00000
000007C00000
000007C00000
000007C00000
000007C00000
000007C00000
000007C00000
000007C00000
000007C00000
000007C00000
000007C00000
000007C00000
000007C00000
000007C00000
000007C00000
000007C00000
000007C00000
000007C00000
000007C00000
000007C00000
000007C00000
000007C00000
000007C00000
000007C00000
000007C00000
000000000000
000000000000
000000000000
000000000000
000000000000
000000000000
000000000000
000000000000
000000000000
000000000000
000000000000
000000000000
000000000000
ENDCHAR

STARTCHAR kor_A3CA
ENCODING 41930
SWIDTH 1024 0
DWIDTH 48 0
BBX 48 48 0 -6
BITMAP
000000000000
000000000000
0000003E0000
0000003E0000
0000003E0000
0000003E0000
0000003E0000
0000003E0000
0000003E0000
0000003E0000
0000003E0000
0000003E0000
0000003E0000
0000003E0000
0000003E0000
0000003E0000
0000003E0000
0000003E0000
0000003E0000
0000003E0000
0000003E0000
0000003E0000
0000003E0000
0000003E0000
0000003E0000
0000003E0000
0003E03E0000
0003E03E0000
0003E03E0000
0003E03E0000
0003F07E0000
0001FFFC0000
0001FFFC0000
0000FFF80000
00003FE00000
000000000000
000000000000
000000000000
000000000000
000000000000
000000000000
000000000000
000000000000
000000000000
000000000000
000000000000
000000000000
000000000000
ENDCHAR

STARTCHAR kor_A3CB
ENCODING 41931
SWIDTH 1024 0
DWIDTH 48 0
BBX 48 48 0 -6
BITMAP
000000000000
000000000000
003E000FC000
003E001FC000
003E003F8000
003E007F0000
003E00FE0000
003E01FC0000
003E03F80000
003E07F00000
003E0FE00000
003E1FC00000
003E3F800000
003E7F000000
003EFE000000
003FFC000000
003FFC000000
003FFE000000
003FFF000000
003FFF800000
003F9FC00000
003F0FC00000
003E07E00000
003E03F00000
003E03F80000
003E01FC0000
003E00FE0000
003E007F0000
003E003F0000
003E001F8000
003E000FC000
003E000FE000
003E0007F000
003E0003F800
003E0001F800
000000000000
000000000000
000000000000
000000000000
000000000000
000000000000
000000000000
000000000000
000000000000
000000000000
000000000000
000000000000
000000000000
ENDCHAR

STARTCHAR kor_A3CC
ENCODING 41932
SWIDTH 1024 0
DWIDTH 48 0
BBX 48 48 0 -6
BITMAP
000000000000
000000000000
0007C0000000
0007C0000000
0007C0000000
0007C0000000
0007C0000000
0007C0000000
0007C0000000
0007C0000000
0007C0000000
0007C0000000
0007C0000000
0007C0000000
0007C0000000
0007C0000000
0007C0000000
0007C0000000
0007C0000000
0007C0000000
0007C0000000
0007C0000000
0007C0000000
0007C0000000
0007C0000000
0007C0000000
0007C0000000
0007C0000000
0007C0000000
0007C0000000
0007C0000000
0007FFFFFE00
0007FFFFFE00
0007FFFFFE00
0007FFFFFE00
000000000000
000000000000
000000000000
000000000000
000000000000
000000000000
000000000000
000000000000
000000000000
000000000000
000000000000
000000000000
000000000000
ENDCHAR

STARTCHAR kor_A3CD
ENCODING 41933
SWIDTH 1024 0
DWIDTH 48 0
BBX 48 48 0 -6
BITMAP
000000000000
000000000000
01F800001F80
01F800001F80
01FC00003F80
01FC00003F80
01FE00007F80
01FE00007F80
01FF0000FF80
01FF0000FF80
01FF8001FF80
01FF8001FF80
01FF8001FF80
01FFC003FF80
01F7C003EF80
01F7E007EF80
01F3E007CF80
01F3F00FCF80
01F1F00F8F80
01F1F81F8F80
01F0F81F0F80
01F0F81F0F80
01F0FC3F0F80
01F07C3E0F80
01F07E7E0F80
01F03E7C0F80
01F03FFC0F80
01F01FF80F80
01F01FF80F80
01F00FF00F80
01F00FF00F80
01F007E00F80
01F007E00F80
01F003C00F80
01F003C00F80
000000000000
000000000000
000000000000
000000000000
000000000000
000000000000
000000000000
000000000000
000000000000
000000000000
000000000000
000000000000
000000000000
ENDCHAR

STARTCHAR kor_A3CE
ENCODING 41934
SWIDTH 1024 0
DWIDTH 48 0
BBX 48 48 0 -6
BITMAP
000000000000
000000000000
001F00007C00
001F80007C00
001FC0007C00
001FC0007C00
001FE0007C00
001FF0007C00
001FF8007C00
001FF8007C00
001FFC007C00
001FFE007C00
001F7E007C00
001F3F007C00
001F3F807C00
001F1FC07C00
001F0FC07C00
001F07E07C00
001F07F07C00
001F03F07C00
001F01F87C00
001F01FC7C00
001F00FE7C00
001F007E7C00
001F003F7C00
001F003FFC00
001F001FFC00
001F000FFC00
001F000FFC00
001F0007FC00
001F0003FC00
001F0001FC00
001F0001FC00
001F0000FC00
001F00007C00
000000000000
000000000000
000000000000
000000000000
000000000000
000000000000
000000000000
000000000000
000000000000
000000000000
000000000000
000000000000
000000000000
ENDCHAR

STARTCHAR kor_A3CF
ENCODING 41935
SWIDTH 1024 0
DWIDTH 48 0
BBX 48 48 0 -6
BITMAP
000000000000
000007E00000
00003FFC0000
0000FFFF0000
0001FFFF8000
0003FC3FC000
0007F00FE000
0007E007E000
000FC003F000
000FC003F000
000F8001F000
001F8001F800
001F8001F800
001F0000F800
001F0000F800
001F0000F800
001F0000F800
001F0000F800
001F0000F800
001F0000F800
001F0000F800
001F0000F800
001F0000F800
001F8001F800
001F8001F800
000F8001F000
000FC003F000
000FC003F000
0007E007E000
0007F00FE000
0003FC3FC000
0001FFFF8000
0000FFFF0000
00003FFC0000
000007E00000
000000000000
000000000000
000000000000
000000000000
000000000000
000000000000
000000000000
000000000000
000000000000
000000000000
000000000000
000000000000
000000000000
ENDCHAR

STARTCHAR kor_A3D0
ENCODING 41936
SWIDTH 1024 0
DWIDTH 48 0
BBX 48 48 0 -6
BITMAP
000000000000
000000000000
000FFFFF0000
000FFFFFC000
000FFFFFE000
000FFFFFF000
000F8007F800
000F8001F800
000F8000FC00
000F8000FC00
000F80007C00
000F80007C00
000F80007C00
000F8000FC00
000F8000FC00
000F8001F800
000F8007F800
000FFFFFF000
000FFFFFE000
000FFFFFC000
000FFFFF0000
000F80000000
000F80000000
000F80000000
000F80000000
000F80000000
000F80000000
000F80000000
000F80000000
000F80000000
000F80000000
000F80000000
000F80000000
000F80000000
000F80000000
000000000000
000000000000
000000000000
000000000000
000000000000
000000000000
000000000000
000000000000
000000000000
000000000000
000000000000
000000000000
000000000000
ENDCHAR

STARTCHAR kor_A3D1
ENCODING 41937
SWIDTH 1024 0
DWIDTH 48 0
BBX 48 48 0 -6
BITMAP
000000000000
000007E00000
00003FFC0000
0000FFFF0000
0001FFFF8000
0003FC3FC000
0007F00FE000
0007E007E000
000FC003F000
000FC003F000
000F8001F000
001F8001F800
001F8001F800
001F0000F800
001F0000F800
001F0000F800
001F0000F800
001F0000F800
001F0000F800
001F0000F800
001F0000F800
001F0000F800
001F0000F800
001F8001F800
001F8001F800
000F87E1F000
000FDFFBF000
000FFFFFF000
0007FFFFE000
0007FC3FE000
0003FC3FE000
0001FFFFF000
0000FFFFFF00
00003FFDFF00
000007E0FE00
000000003C00
000000000000
000000000000
000000000000
000000000000
000000000000
000000000000
000000000000
000000000000
000000000000
000000000000
000000000000
000000000000
ENDCHAR

STARTCHAR kor_A3D2
ENCODING 41938
SWIDTH 1024 0
DWIDTH 48 0
BBX 48 48 0 -6
BITMAP
000000000000
000000000000
000FFFFE0000
000FFFFF8000
000FFFFFC000
000FFFFFE000
000F800FF000
000F8003F000
000F8001F800
000F8001F800
000F8000F800
000F8000F800
000F8001F800
000F8001F800
000F8003F000
000F800FF000
000FFFFFE000
000FFFFFC000
000FFFFF8000
000FFFFFC000
000F801FE000
000F8007E000
000F8003F000
000F8003F000
000F8001F000
000F8001F000
000F8001F000
000F8001F000
000F8001F000
000F8001F000
000F8001F800
000F8000FF00
000F8000FF00
000F80007F00
000F80001F00
000000000000
000000000000
000000000000
000000000000
000000000000
000000000000
000000000000
000000000000
000000000000
000000000000
000000000000
000000000000
000000000000
ENDCHAR

STARTCHAR kor_A3D3
ENCODING 41939
SWIDTH 1024 0
DWIDTH 48 0
BBX 48 48 0 -6
BITMAP
000000000000
000000000000
00003FFC0000
0000FFFF0000
0001FFFF8000
0003FFFFC000
0007F81FE000
0007E007E000
000FC003F000
000FC003F000
000F8001F000
000F8001F000
000FC0000000
000FC0000000
0007E0000000
0007F8000000
0003FFF80000
0001FFFF0000
0000FFFFC000
00001FFFE000
0000001FF000
00000003F000
00000001F800
00000001F800
00000000F800
001F0000F800
001F0000F800
001F8001F800
001F8001F800
000FC003F000
000FF00FF000
0007FFFFE000
0003FFFFC000
0001FFFF8000
00007FFE0000
000000000000
000000000000
000000000000
000000000000
000000000000
000000000000
000000000000
000000000000
000000000000
000000000000
000000000000
000000000000
000000000000
ENDCHAR

STARTCHAR kor_A3D4
ENCODING 41940
SWIDTH 1024 0
DWIDTH 48 0
BBX 48 48 0 -6
BITMAP
000000000000
000000000000
001FFFFFFC00
001FFFFFFC00
001FFFFFFC00
001FFFFFFC00
000003E00000
000003E00000
000003E00000
000003E00000
000003E00000
000003E00000
000003E00000
000003E00000
000003E00000
000003E00000
000003E00000
000003E00000
000003E00000
000003E00000
000003E00000
000003E00000
000003E00000
000003E00000
000003E00000
000003E00000
000003E00000
000003E00000
000003E00000
000003E00000
000003E00000
000003E00000
000003E00000
000003E00000
000003E00000
000000000000
000000000000
000000000000
000000000000
000000000000
000000000000
000000000000
000000000000
000000000000
000000000000
000000000000
000000000000
000000000000
ENDCHAR

STARTCHAR kor_A3D5
ENCODING 41941
SWIDTH 1024 0
DWIDTH 48 0
BBX 48 48 0 -6
BITMAP
000000000000
000000000000
000F8000F800
000F8000F800
000F8000F800
000F8000F800
000F8000F800
000F8000F800
000F8000F800
000F8000F800
000F8000F800
000F8000F800
000F8000F800
000F8000F800
000F8000F800
000F8000F800
000F8000F800
000F8000F800
000F8000F800
000F8000F800
000F8000F800
000F8000F800
000F8000F800
000F8000F800
000F8000F800
000F8000F800
000F8000F800
000FC001F800
000FC001F800
0007E003F000
0007F80FF000
0003FFFFE000
0001FFFFC000
0000FFFF0000
00003FFC0000
000000000000
000000000000
000000000000
000000000000
000000000000
000000000000
000000000000
000000000000
000000000000
000000000000
000000000000
000000000000
000000000000
ENDCHAR

STARTCHAR kor_A3D6
ENCODING 41942
SWIDTH 1024 0
DWIDTH 48 0
BBX 48 48 0 -6
BITMAP
000000000000
000000000000
001F0000F800
001F0000F800
001F0000F800
001F8001F800
000F8001F000
000F8001F000
000FC003F000
0007C003E000
0007C003E000
0007E007E000
0003E007C000
0003E007C000
0003F00FC000
0001F00F8000
0001F00F8000
0001F81F8000
0000F81F0000
0000F81F0000
0000FC3F0000
00007C3E0000
00007C3E0000
00007E7E0000
00003E7C0000
00003E7C0000
00003FFC0000
00001FF80000
00001FF80000
00001FF80000
00000FF00000
00000FF00000
00000FF00000
000007E00000
000007E00000
000000000000
000000000000
000000000000
000000000000
000000000000
000000000000
000000000000
000000000000
000000000000
000000000000
000000000000
000000000000
000000000000
ENDCHAR

STARTCHAR kor_A3D7
ENCODING 41943
SWIDTH 1024 0
DWIDTH 48 0
BBX 48 48 0 -6
BITMAP
000000000000
000000000000
03E007E007C0
03E007E007C0
03E007E007C0
03E007E007C0
03F00FF00FC0
01F00FF00F80
01F00FF00F80
01F00FF00F80
01F81FF81F80
00F81FF81F00
00F81FF81F00
00F81FF81F00
00FC3FFC3F00
007C3E7C3E00
007C3E7C3E00
007C3E7C3E00
007E7E7E7E00
003E7C3E7C00
003E7C3E7C00
003E7C3E7C00
003FFC3FFC00
001FF81FF800
001FF81FF800
001FF81FF800
001FF81FF800
000FF00FF000
000FF00FF000
000FF00FF000
000FF00FF000
0007E007E000
0007E007E000
0007E007E000
0007E007E000
000000000000
000000000000
000000000000
000000000000
000000000000
000000000000
000000000000
000000000000
000000000000
000000000000
000000000000
000000000000
000000000000
ENDCHAR

STARTCHAR kor_A3D8
ENCODING 41944
SWIDTH 1024 0
DWIDTH 48 0
BBX 48 48 0 -6
BITMAP
000000000000
000000000000
000FC001F800
000FE003F800
0007E003F000
0007F007F000
0003F80FE000
0001F80FC000
0001FC1FC000
0000FE3F8000
00007E3F0000
00007F7F0000
00003F7E0000
00003FFE0000
00001FFC0000
00000FF80000
00000FF80000
000007F00000
000007F00000
00000FF80000
00001FFC0000
00001FFC0000
00003FFE0000
00007F7F0000
00007E3F0000
0000FE3F8000
0000FC1F8000
0001FC1FC000
0003F80FE000
0003F007E000
0007F007F000
000FE003F800
000FC001F800
001FC001FC00
001F8000FC00
000000000000
000000000000
000000000000
000000000000
000000000000
000000000000
000000000000
000000000000
000000000000
000000000000
000000000000
000000000000
000000000000
ENDCHAR

STARTCHAR kor_A3D9
ENCODING 41945
SWIDTH 1024 0
DWIDTH 48 0
BBX 48 48 0 -6
BITMAP
000000000000
000000000000
007E0000FC00
007F0001FC00
003F0001F800
001F8003F000
001FC007F000
000FC007E000
0007E00FC000
0007F01FC000
0003F01F8000
0001F83F0000
0001FC7F0000
0000FC7E0000
00007EFC0000
00007FFC0000
00003FF80000
00001FF00000
00001FF00000
00000FE00000
000007C00000
000007C00000
000007C00000
000007C00000
000007C00000
000007C00000
000007C00000
000007C00000
000007C00000
000007C00000
000007C00000
000007C00000
000007C00000
000007C00000
000007C00000
000000000000
000000000000
000000000000
000000000000
000000000000
000000000000
000000000000
000000000000
000000000000
000000000000
000000000000
000000000000
000000000000
ENDCHAR

STARTCHAR kor_A3DA
ENCODING 41946
SWIDTH 1024 0
DWIDTH 48 0
BBX 48 48 0 -6
BITMAP
000000000000
000000000000
000FFFFFF800
000FFFFFF800
000FFFFFF800
000FFFFFF800
00000003F800
00000007F000
00000007E000
0000000FE000
0000001FC000
0000003F8000
0000007F0000
0000007E0000
000000FE0000
000001FC0000
000003F80000
000007F00000
000007E00000
00000FE00000
00001FC00000
00003F800000
00007F000000
00007E000000
0000FE000000
0001FC000000
0003F8000000
0007F0000000
0007E0000000
000FE0000000
001FC0000000
001FFFFFF800
001FFFFFF800
001FFFFFF800
001FFFFFF800
000000000000
000000000000
000000000000
000000000000
000000000000
000000000000
000000000000
000000000000
000000000000
000000000000
000000000000
000000000000
000000000000
ENDCHAR

STARTCHAR kor_A3DB
ENCODING 41947
SWIDTH 1024 0
DWIDTH 48 0
BBX 48 48 0 -6
BITMAP
000000000000
00000001FFE0
00000001FFE0
00000001FFE0
00000001FFE0
00000001F000
00000001F000
00000001F000
00000001F000
00000001F000
00000001F000
00000001F000
00000001F000
00000001F000
00000001F000
00000001F000
00000001F000
00000001F000
00000001F000
00000001F000
00000001F000
00000001F000
00000001F000
00000001F000
00000001F000
00000001F000
00000001F000
00000001F000
00000001F000
00000001F000
00000001F000
00000001F000
00000001F000
00000001F000
00000001F000
00000001F000
00000001F000
00000001F000
00000001F000
00000001F000
00000001F000
00000001FFE0
00000001FFE0
00000001FFE0
00000001FFE0
000000000000
000000000000
000000000000
ENDCHAR

STARTCHAR kor_A3DC
ENCODING 41948
SWIDTH 1024 0
DWIDTH 48 0
BBX 48 48 0 -6
BITMAP
000000000000
000000000000
000000000000
000000000000
000000000000
000000000000
000000000000
000000000000
003E07E07C00
003E07E07C00
003E07E07C00
003E07E07C00
003E07E07C00
003F0FF0FC00
001F0FF0F800
01FFFFFFFF80
01FFFFFFFF80
01FFFFFFFF80
001F9FF9F800
000F9FF9F000
000F9FF9F000
000F9FF9F000
01FFFFFFFF80
01FFFFFFFF80
01FFFFFFFF80
0007FE7FE000
0007FE7FE000
0007FE7FE000
0007FE7FE000
0003FC3FC000
0003FC3FC000
0003FC3FC000
0003FC3FC000
0003FC3FC000
0001F81F8000
0001F81F8000
0001F81F8000
0001F81F8000
0001F81F8000
000000000000
000000000000
000000000000
000000000000
000000000000
000000000000
000000000000
000000000000
000000000000
ENDCHAR

STARTCHAR kor_A3DD
ENCODING 41949
SWIDTH 1024 0
DWIDTH 48 0
BBX 48 48 0 -6
BITMAP
000000000000
03FF80000000
03FF80000000
03FF80000000
03FF80000000
000F80000000
000F80000000
000F80000000
000F80000000
000F80000000
000F80000000
000F80000000
000F80000000
000F80000000
000F80000000
000F80000000
000F80000000
000F80000000
000F80000000
000F80000000
000F80000000
000F80000000
000F80000000
000F80000000
000F80000000
000F80000000
000F80000000
000F80000000
000F80000000
000F80000000
000F80000000
000F80000000
000F80000000
000F80000000
000F80000000
000F80000000
000F80000000
000F80000000
000F80000000
000F80000000
000F80000000
07FF80000000
07FF80000000
07FF80000000
07FF80000000
000000000000
000000000000
000000000000
ENDCHAR

STARTCHAR kor_A3DE
ENCODING 41950
SWIDTH 1024 0
DWIDTH 48 0
BBX 48 48 0 -6
BITMAP
000000000000
000000000000
000000000000
000000000000
000001C00000
000003E00000
000007F00000
00000FF80000
00001FFC0000
00003F7E0000
00007E3F0000
0000F80F8000
0001F007C000
0001C001C000
000000000000
000000000000
000000000000
000000000000
000000000000
000000000000
000000000000
000000000000
000000000000
000000000000
000000000000
000000000000
000000000000
000000000000
000000000000
000000000000
000000000000
000000000000
000000000000
000000000000
000000000000
000000000000
000000000000
000000000000
000000000000
000000000000
000000000000
000000000000
000000000000
000000000000
000000000000
000000000000
000000000000
000000000000
ENDCHAR

STARTCHAR kor_A3DF
ENCODING 41951
SWIDTH 1024 0
DWIDTH 48 0
BBX 48 48 0 -6
BITMAP
000000000000
000000000000
000000000000
000000000000
000000000000
000000000000
000000000000
000000000000
000000000000
000000000000
000000000000
000000000000
000000000000
000000000000
000000000000
000000000000
000000000000
000000000000
000000000000
000000000000
000000000000
000000000000
000000000000
000000000000
000000000000
000000000000
000000000000
000000000000
000000000000
000000000000
000000000000
000000000000
000000000000
000000000000
000000000000
000000000000
000000000000
000000000000
000000000000
000000000000
000000000000
000000000000
7FFFFFFFFFFF
7FFFFFFFFFFF
7FFFFFFFFFFF
000000000000
000000000000
000000000000
ENDCHAR

STARTCHAR kor_A3E0
ENCODING 41952
SWIDTH 1024 0
DWIDTH 48 0
BBX 48 48 0 -6
BITMAP
000000000000
000000000000
000000000000
000000000000
0FC000000000
0FE000000000
07E000000000
03F000000000
03F000000000
01F800000000
00F800000000
007C00000000
007C00000000
003E00000000
001E00000000
001F00000000
000F00000000
000700000000
000000000000
000000000000
000000000000
000000000000
000000000000
000000000000
000000000000
000000000000
000000000000
000000000000
000000000000
000000000000
000000000000
000000000000
000000000000
000000000000
000000000000
000000000000
000000000000
000000000000
000000000000
000000000000
000000000000
000000000000
000000000000
000000000000
000000000000
000000000000
000000000000
000000000000
ENDCHAR

STARTCHAR kor_A3E1
ENCODING 41953
SWIDTH 1024 0
DWIDTH 48 0
BBX 48 48 0 -6
BITMAP
000000000000
000000000000
000000000000
000000000000
000000000000
000000000000
000000000000
000000000000
000000000000
000000000000
000000000000
00001FF00000
00007FFC0000
0000FFFE0000
0000FFFE0000
0001F83F0000
0001F01F0000
0001F01F0000
0000001F0000
00001FFF0000
00007FFF0000
0000FFFF0000
0001FFFF0000
0001FC3F0000
0003F01F0000
0003F01F0000
0003E01F0000
0003E01F0000
0003F01F0000
0003F01F0000
0001F83F0000
0001FFFFC000
0000FFFFC000
00007FFFC000
00001FF7C000
000000000000
000000000000
000000000000
000000000000
000000000000
000000000000
000000000000
000000000000
000000000000
000000000000
000000000000
000000000000
000000000000
ENDCHAR

STARTCHAR kor_A3E2
ENCODING 41954
SWIDTH 1024 0
DWIDTH 48 0
BBX 48 48 0 -6
BITMAP
000000000000
000000000000
0003E0000000
0003E0000000
0003E0000000
0003E0000000
0003E0000000
0003E0000000
0003E0000000
0003E0000000
0003E0000000
0003E7F00000
0003FFFC0000
0003FFFE0000
0003FFFF0000
0003FC7F8000
0003F01F8000
0003F00FC000
0003E00FC000
0003E007C000
0003E007C000
0003E007C000
0003E007C000
0003E007C000
0003E007C000
0003E007C000
0003E007C000
0003E00FC000
0003F00FC000
0003F01F8000
0003FC7F8000
0003FFFF0000
0003FFFE0000
0003FFFC0000
0003E7F00000
000000000000
000000000000
000000000000
000000000000
000000000000
000000000000
000000000000
000000000000
000000000000
000000000000
000000000000
000000000000
000000000000
ENDCHAR

STARTCHAR kor_A3E3
ENCODING 41955
SWIDTH 1024 0
DWIDTH 48 0
BBX 48 48 0 -6
BITMAP
000000000000
000000000000
000000000000
000000000000
000000000000
000000000000
000000000000
000000000000
000000000000
000000000000
000000000000
00001FF00000
00007FFC0000
0000FFFE0000
0001FFFF0000
0003FC7F8000
0003F01F8000
0007E00FC000
0007E00FC000
0007C007C000
0007C007C000
0007C0000000
0007C0000000
0007C0000000
0007C0000000
0007C007C000
0007C007C000
0007E00FC000
0007E00FC000
0003F01F8000
0003FC7F8000
0001FFFF0000
0000FFFE0000
00007FFC0000
00001FF00000
000000000000
000000000000
000000000000
000000000000
000000000000
000000000000
000000000000
000000000000
000000000000
000000000000
000000000000
000000000000
000000000000
ENDCHAR

STARTCHAR kor_A3E4
ENCODING 41956
SWIDTH 1024 0
DWIDTH 48 0
BBX 48 48 0 -6
BITMAP
000000000000
000000000000
00000007C000
00000007C000
00000007C000
00000007C000
00000007C000
00000007C000
00000007C000
00000007C000
00000007C000
00000FE7C000
00003FFFC000
00007FFFC000
0000FFFFC000
0001FE3FC000
0001F80FC000
0003F00FC000
0003F007C000
0003E007C000
0003E007C000
0003E007C000
0003E007C000
0003E007C000
0003E007C000
0003E007C000
0003E007C000
0003F007C000
0003F00FC000
0001F80FC000
0001FE3FC000
0000FFFFC000
00007FFFC000
00003FFFC000
00000FE7C000
000000000000
000000000000
000000000000
000000000000
000000000000
000000000000
000000000000
000000000000
000000000000
000000000000
000000000000
000000000000
000000000000
ENDCHAR

STARTCHAR kor_A3E5
ENCODING 41957
SWIDTH 1024 0
DWIDTH 48 0
BBX 48 48 0 -6
BITMAP
000000000000
000000000000
000000000000
000000000000
000000000000
000000000000
000000000000
000000000000
000000000000
000000000000
000000000000
00000FF80000
00003FFE0000
00007FFF0000
0000FFFF8000
0001FE3FC000
0001F80FC000
0003F007E000
0003F007E000
0003E003E000
0003FFFFE000
0003FFFFE000
0003FFFFE000
0003FFFFE000
0003E0000000
0003E003E000
0003E003E000
0003F007E000
0003F007E000
0001F80FC000
0001FE3FC000
0000FFFF8000
00007FFF0000
00003FFE0000
00000FF80000
000000000000
000000000000
000000000000
000000000000
000000000000
000000000000
000000000000
000000000000
000000000000
000000000000
000000000000
000000000000
000000000000
ENDCHAR

STARTCHAR kor_A3E6
ENCODING 41958
SWIDTH 1024 0
DWIDTH 48 0
BBX 48 48 0 -6
BITMAP
000000000000
000000000000
0000007C0000
000001FC0000
000003FC0000
000003FC0000
000007E00000
000007C00000
000007C00000
000007C00000
000007C00000
000007C00000
00007FFC0000
00007FFC0000
00007FFC0000
00007FFC0000
000007C00000
000007C00000
000007C00000
000007C00000
000007C00000
000007C00000
000007C00000
000007C00000
000007C00000
000007C00000
000007C00000
000007C00000
000007C00000
000007C00000
000007C00000
000007C00000
000007C00000
000007C00000
000007C00000
000000000000
000000000000
000000000000
000000000000
000000000000
000000000000
000000000000
000000000000
000000000000
000000000000
000000000000
000000000000
000000000000
ENDCHAR

STARTCHAR kor_A3E7
ENCODING 41959
SWIDTH 1024 0
DWIDTH 48 0
BBX 48 48 0 -6
BITMAP
000000000000
000000000000
000000000000
000000000000
000000000000
000000000000
000000000000
000000000000
000000000000
000000000000
00000001F000
00000FE7F000
00003FFFF000
00007FFFF000
0000FFFF0000
0000FC7E0000
0001F83F0000
0001F83F0000
0001F01F0000
0001F01F0000
0001F83F0000
0001F83F0000
0000FC7E0000
0000FFFE0000
0000FFFC0000
0001FFF80000
0003FFE00000
0003E0000000
0003F0000000
0003FFF00000
0001FFFE0000
0000FFFF8000
0001FFFFC000
0001FC1FC000
0003F007E000
0003E003E000
0003E003E000
0003E003E000
0003F007E000
0001FC1FC000
0001FFFFC000
0000FFFF8000
00003FFE0000
000007F00000
000000000000
000000000000
000000000000
000000000000
ENDCHAR

STARTCHAR kor_A3E8
ENCODING 41960
SWIDTH 1024 0
DWIDTH 48 0
BBX 48 48 0 -6
BITMAP
000000000000
000000000000
0001F0000000
0001F0000000
0001F0000000
0001F0000000
0001F0000000
0001F0000000
0001F0000000
0001F0000000
0001F0000000
0001F3F80000
0001FFFE0000
0001FFFF0000
0001FFFF0000
0001FE1F8000
0001F80F8000
0001F00F8000
0001F00F8000
0001F00F8000
0001F00F8000
0001F00F8000
0001F00F8000
0001F00F8000
0001F00F8000
0001F00F8000
0001F00F8000
0001F00F8000
0001F00F8000
0001F00F8000
0001F00F8000
0001F00F8000
0001F00F8000
0001F00F8000
0001F00F8000
000000000000
000000000000
000000000000
000000000000
000000000000
000000000000
000000000000
000000000000
000000000000
000000000000
000000000000
000000000000
000000000000
ENDCHAR

STARTCHAR kor_A3E9
ENCODING 41961
SWIDTH 1024 0
DWIDTH 48 0
BBX 48 48 0 -6
BITMAP
000000000000
000000000000
000003E00000
000003E00000
000003E00000
000003E00000
000003E00000
000000000000
000000000000
000000000000
000000000000
000003E00000
000003E00000
000003E00000
000003E00000
000003E00000
000003E00000
000003E00000
000003E00000
000003E00000
000003E00000
000003E00000
000003E00000
000003E00000
000003E00000
000003E00000
000003E00000
000003E00000
000003E00000
000003E00000
000003E00000
000003E00000
000003E00000
000003E00000
000003E00000
000000000000
000000000000
000000000000
000000000000
000000000000
000000000000
000000000000
000000000000
000000000000
000000000000
000000000000
000000000000
000000000000
ENDCHAR

STARTCHAR kor_A3EA
ENCODING 41962
SWIDTH 1024 0
DWIDTH 48 0
BBX 48 48 0 -6
BITMAP
000000000000
000003E00000
000003E00000
000003E00000
000003E00000
000003E00000
000000000000
000000000000
000000000000
000000000000
000000000000
000003E00000
000003E00000
000003E00000
000003E00000
000003E00000
000003E00000
000003E00000
000003E00000
000003E00000
000003E00000
000003E00000
000003E00000
000003E00000
000003E00000
000003E00000
000003E00000
000003E00000
000003E00000
000003E00000
000003E00000
000003E00000
000003E00000
000003E00000
000003E00000
000003E00000
000003E00000
000003E00000
000003E00000
000007E00000
00003FC00000
00003FC00000
00003F800000
00003E000000
000000000000
000000000000
000000000000
000000000000
ENDCHAR

STARTCHAR kor_A3EB
ENCODING 41963
SWIDTH 1024 0
DWIDTH 48 0
BBX 48 48 0 -6
BITMAP
000000000000
000000000000
0003E0000000
0003E0000000
0003E0000000
0003E0000000
0003E0000000
0003E0000000
0003E0000000
0003E0000000
0003E0000000
0003E01F8000
0003E03F8000
0003E07F0000
0003E0FE0000
0003E1FC0000
0003E3F80000
0003E7F00000
0003EFE00000
0003FFC00000
0003FF800000
0003FF800000
0003FFC00000
0003FFE00000
0003FFE00000
0003F3F00000
0003E1F80000
0003E1FC0000
0003E0FE0000
0003E07E0000
0003E03F0000
0003E03F8000
0003E01FC000
0003E00FE000
0003E007E000
000000000000
000000000000
000000000000
000000000000
000000000000
000000000000
000000000000
000000000000
000000000000
000000000000
000000000000
000000000000
000000000000
ENDCHAR

STARTCHAR kor_A3EC
ENCODING 41964
SWIDTH 1024 0
DWIDTH 48 0
BBX 48 48 0 -6
BITMAP
000000000000
000000000000
000003E00000
000003E00000
000003E00000
000003E00000
000003E00000
000003E00000
000003E00000
000003E00000
000003E00000
000003E00000
000003E00000
000003E00000
000003E00000
000003E00000
000003E00000
000003E00000
000003E00000
000003E00000
000003E00000
000003E00000
000003E00000
000003E00000
000003E00000
000003E00000
000003E00000
000003E00000
000003E00000
000003E00000
000003E00000
000003E00000
000003E00000
000003E00000
000003E00000
000000000000
000000000000
000000000000
000000000000
000000000000
000000000000
000000000000
000000000000
000000000000
000000000000
000000000000
000000000000
000000000000
ENDCHAR

STARTCHAR kor_A3ED
ENCODING 41965
SWIDTH 1024 0
DWIDTH 48 0
BBX 48 48 0 -6
BITMAP
000000000000
000000000000
000000000000
000000000000
000000000000
000000000000
000000000000
000000000000
000000000000
000000000000
000000000000
003EFC0FE000
003FFF3FF800
003FFFFFFC00
003FFFFFFC00
003F87F87E00
003F03F03E00
003F03F03E00
003E03E03E00
003E03E03E00
003E03E03E00
003E03E03E00
003E03E03E00
003E03E03E00
003E03E03E00
003E03E03E00
003E03E03E00
003E03E03E00
003E03E03E00
003E03E03E00
003E03E03E00
003E03E03E00
003E03E03E00
003E03E03E00
003E03E03E00
000000000000
000000000000
000000000000
000000000000
000000000000
000000000000
000000000000
000000000000
000000000000
000000000000
000000000000
000000000000
000000000000
ENDCHAR

STARTCHAR kor_A3EE
ENCODING 41966
SWIDTH 1024 0
DWIDTH 48 0
BBX 48 48 0 -6
BITMAP
000000000000
000000000000
000000000000
000000000000
000000000000
000000000000
000000000000
000000000000
000000000000
000000000000
000000000000
0003E7F80000
0003FFFE0000
0003FFFF0000
0003FFFF0000
0003FC1F8000
0003F00F8000
0003E00F8000
0003E00F8000
0003E00F8000
0003E00F8000
0003E00F8000
0003E00F8000
0003E00F8000
0003E00F8000
0003E00F8000
0003E00F8000
0003E00F8000
0003E00F8000
0003E00F8000
0003E00F8000
0003E00F8000
0003E00F8000
0003E00F8000
0003E00F8000
000000000000
000000000000
000000000000
000000000000
000000000000
000000000000
000000000000
000000000000
000000000000
000000000000
000000000000
000000000000
000000000000
ENDCHAR

STARTCHAR kor_A3EF
ENCODING 41967
SWIDTH 1024 0
DWIDTH 48 0
BBX 48 48 0 -6
BITMAP
000000000000
000000000000
000000000000
000000000000
000000000000
000000000000
000000000000
000000000000
000000000000
000000000000
000007F00000
00001FFC0000
00003FFE0000
00007FFF0000
0000FE3F8000
0000F80F8000
0001F80FC000
0001F007C000
0001F007C000
0003F007E000
0003E003E000
0003E003E000
0003E003E000
0003E003E000
0003E003E000
0003E003E000
0003F007E000
0001F007C000
0001F007C000
0001F80FC000
0000F80F8000
0000FE3F8000
00007FFF0000
00003FFE0000
00001FFC0000
000007F00000
000000000000
000000000000
000000000000
000000000000
000000000000
000000000000
000000000000
000000000000
000000000000
000000000000
000000000000
000000000000
ENDCHAR

STARTCHAR kor_A3F0
ENCODING 41968
SWIDTH 1024 0
DWIDTH 48 0
BBX 48 48 0 -6
BITMAP
000000000000
000000000000
000000000000
000000000000
000000000000
000000000000
000000000000
000000000000
000000000000
000000000000
000000000000
000003F80000
0001FFFE0000
0001FFFF0000
0001FFFF8000
0001FE3FC000
0001F80FC000
0001F807E000
0001F007E000
0001F003E000
0001F003E000
0001F003E000
0001F003E000
0001F003E000
0001F003E000
0001F003E000
0001F003E000
0001F007E000
0001F807E000
0001F80FC000
0001FE3FC000
0001FFFF8000
0001FFFF0000
0001FFFE0000
0001F3F80000
0001F0000000
0001F0000000
0001F0000000
0001F0000000
0001F0000000
0001F0000000
0001F0000000
0001F0000000
0001F0000000
0001F0000000
000000000000
000000000000
000000000000
ENDCHAR

STARTCHAR kor_A3F1
ENCODING 41969
SWIDTH 1024 0
DWIDTH 48 0
BBX 48 48 0 -6
BITMAP
000000000000
000000000000
000000000000
000000000000
000000000000
000000000000
000000000000
000000000000
000000000000
000000000000
000000000000
00001FC00000
00007FFF8000
0000FFFF8000
0001FFFF8000
0003FC7F8000
0003F01F8000
0007E01F8000
0007E00F8000
0007C00F8000
0007C00F8000
0007C00F8000
0007C00F8000
0007C00F8000
0007C00F8000
0007C00F8000
0007C00F8000
0007E00F8000
0007E01F8000
0003F01F8000
0003FC7F8000
0001FFFF8000
0000FFFF8000
00007FFF8000
00001FCF8000
0000000F8000
0000000F8000
0000000F8000
0000000F8000
0000000F8000
0000000F8000
0000000F8000
0000000F8000
0000000F8000
0000000F8000
000000000000
000000000000
000000000000
ENDCHAR

STARTCHAR kor_A3F2
ENCODING 41970
SWIDTH 1024 0
DWIDTH 48 0
BBX 48 48 0 -6
BITMAP
000000000000
000000000000
000000000000
000000000000
000000000000
000000000000
000000000000
000000000000
000000000000
000000000000
000000000000
00007C7C0000
00007DFC0000
00007FFC0000
00007FFC0000
00007FE00000
00007F800000
00007F000000
00007E000000
00007E000000
00007C000000
00007C000000
00007C000000
00007C000000
00007C000000
00007C000000
00007C000000
00007C000000
00007C000000
00007C000000
00007C000000
00007C000000
00007C000000
00007C000000
00007C000000
000000000000
000000000000
000000000000
000000000000
000000000000
000000000000
000000000000
000000000000
000000000000
000000000000
000000000000
000000000000
000000000000
ENDCHAR

STARTCHAR kor_A3F3
ENCODING 41971
SWIDTH 1024 0
DWIDTH 48 0
BBX 48 48 0 -6
BITMAP
000000000000
000000000000
000000000000
000000000000
000000000000
000000000000
000000000000
000000000000
000000000000
000000000000
000000000000
00000FF80000
00003FFE0000
00007FFF0000
0000FFFF8000
0000FC3F8000
0001F80FC000
0001F007C000
0001F007C000
0001F8000000
0001FE000000
0000FFF00000
00007FFC0000
00001FFF0000
000003FF8000
0000003FC000
0000000FC000
0003E007C000
0003E007C000
0003F00FC000
0001F81F8000
0001FFFF8000
0000FFFF0000
00007FFE0000
00001FF80000
000000000000
000000000000
000000000000
000000000000
000000000000
000000000000
000000000000
000000000000
000000000000
000000000000
000000000000
000000000000
000000000000
ENDCHAR

STARTCHAR kor_A3F4
ENCODING 41972
SWIDTH 1024 0
DWIDTH 48 0
BBX 48 48 0 -6
BITMAP
000000000000
000000000000
000000000000
000000000000
000000000000
000000000000
000007C00000
000007C00000
000007C00000
000007C00000
000007C00000
000007C00000
00003FFC0000
00003FFC0000
00003FFC0000
00003FFC0000
000007C00000
000007C00000
000007C00000
000007C00000
000007C00000
000007C00000
000007C00000
000007C00000
000007C00000
000007C00000
000007C00000
000007C00000
000007C00000
000007C00000
000007C00000
000007FC0000
000007FC0000
000003FC0000
000001FC0000
000000000000
000000000000
000000000000
000000000000
000000000000
000000000000
000000000000
000000000000
000000000000
000000000000
000000000000
000000000000
000000000000
ENDCHAR

STARTCHAR kor_A3F5
ENCODING 41973
SWIDTH 1024 0
DWIDTH 48 0
BBX 48 48 0 -6
BITMAP
000000000000
000000000000
000000000000
000000000000
000000000000
000000000000
000000000000
000000000000
000000000000
000000000000
000000000000
0003E00F8000
0003E00F8000
0003E00F8000
0003E00F8000
0003E00F8000
0003E00F8000
0003E00F8000
0003E00F8000
0003E00F8000
0003E00F8000
0003E00F8000
0003E00F8000
0003E00F8000
0003E00F8000
0003E00F8000
0003E00F8000
0003E00F8000
0003E00F8000
0003E01F8000
0003F07F8000
0001FFFF8000
0001FFFF8000
0000FFFF8000
00003FCF8000
000000000000
000000000000
000000000000
000000000000
000000000000
000000000000
000000000000
000000000000
000000000000
000000000000
000000000000
000000000000
000000000000
ENDCHAR

STARTCHAR kor_A3F6
ENCODING 41974
SWIDTH 1024 0
DWIDTH 48 0
BBX 48 48 0 -6
BITMAP
000000000000
000000000000
000000000000
000000000000
000000000000
000000000000
000000000000
000000000000
000000000000
000000000000
000000000000
000F8001F000
000FC003F000
0007C003E000
0007E007E000
0003E007C000
0003E007C000
0003F00FC000
0001F00F8000
0001F81F8000
0000F81F0000
0000F81F0000
0000FC3F0000
00007C3E0000
00007E7E0000
00003E7C0000
00003E7C0000
00003FFC0000
00001FF80000
00001FF80000
00000FF00000
00000FF00000
00000FF00000
000007E00000
000007E00000
000000000000
000000000000
000000000000
000000000000
000000000000
000000000000
000000000000
000000000000
000000000000
000000000000
000000000000
000000000000
000000000000
ENDCHAR

STARTCHAR kor_A3F7
ENCODING 41975
SWIDTH 1024 0
DWIDTH 48 0
BBX 48 48 0 -6
BITMAP
000000000000
000000000000
000000000000
000000000000
000000000000
000000000000
000000000000
000000000000
000000000000
000000000000
000000000000
03E007E007C0
03E007E007C0
03E007E007C0
03F00FF00FC0
01F00FF00F80
01F00FF00F80
01F81FF81F80
00F81FF81F00
00F81FF81F00
00FC3FFC3F00
007C3E7C3E00
007C3E7C3E00
007E7E7E7E00
003E7C3E7C00
003E7C3E7C00
003FFC3FFC00
001FF81FF800
001FF81FF800
001FF81FF800
000FF00FF000
000FF00FF000
000FF00FF000
0007E007E000
0007E007E000
000000000000
000000000000
000000000000
000000000000
000000000000
000000000000
000000000000
000000000000
000000000000
000000000000
000000000000
000000000000
000000000000
ENDCHAR

STARTCHAR kor_A3F8
ENCODING 41976
SWIDTH 1024 0
DWIDTH 48 0
BBX 48 48 0 -6
BITMAP
000000000000
000000000000
000000000000
000000000000
000000000000
000000000000
000000000000
000000000000
000000000000
000000000000
000000000000
0003F00FC000
0003F81FC000
0001FC3F8000
0000FC3F0000
0000FE7F0000
00007FFE0000
00003FFC0000
00001FF80000
00001FF80000
00000FF00000
00000FF00000
00000FF00000
00001FF80000
00003FFC0000
00007FFE0000
00007E7E0000
0000FE7F0000
0001FC3F8000
0003F81FC000
0003F00FC000
0007F00FE000
0007E007E000
000000000000
000000000000
000000000000
000000000000
000000000000
000000000000
000000000000
000000000000
000000000000
000000000000
000000000000
000000000000
000000000000
000000000000
000000000000
ENDCHAR

STARTCHAR kor_A3F9
ENCODING 41977
SWIDTH 1024 0
DWIDTH 48 0
BBX 48 48 0 -6
BITMAP
000000000000
000000000000
000000000000
000000000000
000000000000
000000000000
000000000000
000000000000
000000000000
000000000000
000000000000
0001F003E000
0001F807E000
0000F807C000
0000F807C000
0000FC0FC000
00007C0F8000
00007C0F8000
00007E1F8000
00003E1F0000
00003E1F0000
00003F3F0000
00001F3E0000
00001F3E0000
00001FFE0000
00000FFC0000
00000FFC0000
00000FFC0000
000007F80000
000007F80000
000007F80000
000003F00000
000003F00000
000003F00000
000003E00000
000003E00000
000003E00000
000007C00000
000007C00000
00000F800000
0000FF800000
0000FF000000
0000FE000000
0000F8000000
000000000000
000000000000
000000000000
000000000000
ENDCHAR

STARTCHAR kor_A3FA
ENCODING 41978
SWIDTH 1024 0
DWIDTH 48 0
BBX 48 48 0 -6
BITMAP
000000000000
000000000000
000000000000
000000000000
000000000000
000000000000
000000000000
000000000000
000000000000
000000000000
000000000000
000000000000
0001FFFF8000
0001FFFF8000
0001FFFF8000
0001FFFF8000
0000003F8000
0000007F0000
0000007E0000
000000FE0000
000001FC0000
000003F80000
000007F00000
000007E00000
00000FE00000
00001FC00000
00003F800000
00007F000000
00007E000000
0000FE000000
0001FC000000
0001FFFF8000
0001FFFF8000
0001FFFF8000
0001FFFF8000
000000000000
000000000000
000000000000
000000000000
000000000000
000000000000
000000000000
000000000000
000000000000
000000000000
000000000000
000000000000
000000000000
ENDCHAR

STARTCHAR kor_A3FB
ENCODING 41979
SWIDTH 1024 0
DWIDTH 48 0
BBX 48 48 0 -6
BITMAP
0000000003E0
000000000FE0
000000001FE0
000000003FE0
000000003F00
000000007E00
000000007C00
000000007C00
000000007C00
000000007C00
000000007C00
000000007C00
000000007C00
000000007C00
000000007C00
000000007C00
000000007C00
000000007C00
000000007C00
000000007C00
00000000F800
00000007F800
00000007F000
00000007F000
00000007F800
00000000F800
000000007C00
000000007C00
000000007C00
000000007C00
000000007C00
000000007C00
000000007C00
000000007C00
000000007C00
000000007C00
000000007C00
000000007C00
000000007C00
000000007C00
000000007C00
000000007E00
000000003F00
000000003FE0
000000001FE0
000000000FE0
0000000003E0
000000000000
ENDCHAR

STARTCHAR kor_A3FC
ENCODING 41980
SWIDTH 1024 0
DWIDTH 48 0
BBX 48 48 0 -6
BITMAP
000003E00000
000003E00000
000003E00000
000003E00000
000003E00000
000003E00000
000003E00000
000003E00000
000003E00000
000003E00000
000003E00000
000003E00000
000003E00000
000003E00000
000003E00000
000003E00000
000003E00000
000003E00000
000003E00000
000003E00000
000003E00000
000003E00000
000003E00000
000003E00000
000003E00000
000003E00000
000003E00000
000003E00000
000003E00000
000003E00000
000003E00000
000003E00000
000003E00000
000003E00000
000003E00000
000003E00000
000003E00000
000003E00000
000003E00000
000003E00000
000003E00000
000003E00000
000003E00000
000003E00000
000003E00000
000003E00000
000003E00000
000000000000
ENDCHAR

STARTCHAR kor_A3FD
ENCODING 41981
SWIDTH 1024 0
DWIDTH 48 0
BBX 48 48 0 -6
BITMAP
03E000000000
03F800000000
03FC00000000
03FE00000000
007E00000000
003F00000000
001F00000000
001F00000000
001F00000000
001F00000000
001F00000000
001F00000000
001F00000000
001F00000000
001F00000000
001F00000000
001F00000000
001F00000000
001F00000000
001F00000000
000F80000000
000FF0000000
0007F0000000
0007F0000000
000FF0000000
000F80000000
001F00000000
001F00000000
001F00000000
001F00000000
001F00000000
001F00000000
001F00000000
001F00000000
001F00000000
001F00000000
001F00000000
001F00000000
001F00000000
001F00000000
001F00000000
003F00000000
007E00000000
03FE00000000
03FC00000000
03F800000000
03E000000000
000000000000
ENDCHAR

STARTCHAR kor_A3FE
ENCODING 41982
SWIDTH 1024 0
DWIDTH 48 0
BBX 48 48 0 -6
BITMAP
7FFFFFFFFFFF
7FFFFFFFFFFF
7FFFFFFFFFFF
000000000000
000000000000
000000000000
000000000000
000000000000
000000000000
000000000000
000000000000
000000000000
000000000000
000000000000
000000000000
000000000000
000000000000
000000000000
000000000000
000000000000
000000000000
000000000000
000000000000
000000000000
000000000000
000000000000
000000000000
000000000000
000000000000
000000000000
000000000000
000000000000
000000000000
000000000000
000000000000
000000000000
000000000000
000000000000
000000000000
000000000000
000000000000
000000000000
000000000000
000000000000
000000000000
000000000000
000000000000
000000000000
ENDCHAR

STARTCHAR kor_A4A1
ENCODING 42145
SWIDTH 1024 0
DWIDTH 48 0
BBX 48 48 0 -6
BITMAP
000000000000
000000000000
000000000000
000000000000
000000000000
000000000000
000000000000
000000000000
000000000000
000000000000
000000000000
01FFFFFFFE00
01FFFFFFFE00
01FFFFFFFE00
01FFFFFFFE00
000000003E00
000000003E00
000000003E00
000000003E00
000000003E00
000000003E00
000000003E00
000000003E00
000000003E00
000000003E00
000000003E00
000000003E00
000000003E00
000000003E00
000000003E00
000000003E00
000000003E00
000000003E00
000000003E00
000000003E00
000000000000
000000000000
000000000000
000000000000
000000000000
000000000000
000000000000
000000000000
000000000000
000000000000
000000000000
000000000000
000000000000
ENDCHAR

STARTCHAR kor_A4A2
ENCODING 42146
SWIDTH 1024 0
DWIDTH 48 0
BBX 48 48 0 -6
BITMAP
000000000000
000000000000
000000000000
000000000000
000000000000
000000000000
000000000000
000000000000
000000000000
000000000000
000000000000
07FFFE7FFFC0
07FFFE7FFFC0
07FFFE7FFFC0
07FFFE7FFFC0
00003E0007C0
00003E0007C0
00003E0007C0
00003E0007C0
00003E0007C0
00003E0007C0
00003E0007C0
00003E0007C0
00003E0007C0
00003E0007C0
00003E0007C0
00003E0007C0
00003E0007C0
00003E0007C0
00003E0007C0
00003E0007C0
00003E0007C0
00003E0007C0
00003E0007C0
00003E0007C0
000000000000
000000000000
000000000000
000000000000
000000000000
000000000000
000000000000
000000000000
000000000000
000000000000
000000000000
000000000000
000000000000
ENDCHAR

STARTCHAR kor_A4A3
ENCODING 42147
SWIDTH 1024 0
DWIDTH 48 0
BBX 48 48 0 -6
BITMAP
000000000000
000000000000
000000000000
000000000000
000000000000
000000000000
000000000000
000000000000
000000000000
000000000000
000000000000
07FFFC01F000
07FFFC01F000
07FFFC01F000
07FFFC01F000
00007C01F000
00007C01F000
00007C01F000
00007C01F000
00007C03F000
00007C03F800
00007C03F800
00007C07F800
00007C07FC00
00007C0FFC00
00007C0FFE00
00007C1FBF00
00007C3F3F00
00007C3F1F80
00007C7E0FC0
00007CFC0FE0
00007DFC07F0
00007FF803F0
00007FF001E0
00007DE000C0
000000C00000
000000000000
000000000000
000000000000
000000000000
000000000000
000000000000
000000000000
000000000000
000000000000
000000000000
000000000000
000000000000
ENDCHAR

STARTCHAR kor_A4A4
ENCODING 42148
SWIDTH 1024 0
DWIDTH 48 0
BBX 48 48 0 -6
BITMAP
000000000000
000000000000
000000000000
000000000000
000000000000
000000000000
000000000000
000000000000
000000000000
000000000000
000000000000
007C00000000
007C00000000
007C00000000
007C00000000
007C00000000
007C00000000
007C00000000
007C00000000
007C00000000
007C00000000
007C00000000
007C00000000
007C00000000
007C00000000
007C00000000
007C00000000
007C00000000
007C00000000
007FFFFFFF00
007FFFFFFF00
007FFFFFFF00
007FFFFFFF00
000000000000
000000000000
000000000000
000000000000
000000000000
000000000000
000000000000
000000000000
000000000000
000000000000
000000000000
000000000000
000000000000
000000000000
000000000000
ENDCHAR

STARTCHAR kor_A4A5
ENCODING 42149
SWIDTH 1024 0
DWIDTH 48 0
BBX 48 48 0 -6
BITMAP
000000000000
000000000000
000000000000
000000000000
000000000000
000000000000
000000000000
000000000000
000000000000
000000000000
000000000000
07C001FFFFC0
07C001FFFFC0
07C001FFFFC0
07C001FFFFC0
07C00003E000
07C00003E000
07C00003E000
07C00003E000
07C00003F000
07C00003F000
07C00007F000
07C00007F800
07C00007F800
07C0000FFC00
07C0000FFE00
07C0001FBE00
07C0003F3F00
07C0003F1F80
07C00E7E0FC0
07C1FEFC0FE0
07FFFFFC07F0
07FFFFF803F0
07FFFBF001E0
07FF01E000C0
000000C00000
000000000000
000000000000
000000000000
000000000000
000000000000
000000000000
000000000000
000000000000
000000000000
000000000000
000000000000
000000000000
ENDCHAR

STARTCHAR kor_A4A6
ENCODING 42150
SWIDTH 1024 0
DWIDTH 48 0
BBX 48 48 0 -6
BITMAP
000000000000
000000000000
000000000000
000000000000
000000000000
000000000000
000000000000
000000000000
000000000000
000000000000
0000003FFE00
07C0003FFE00
07C0003FFE00
07C0003FFE00
07C000000000
07C000000000
07C007FFFFF0
07C007FFFFF0
07C007FFFFF0
07C007FFFFF0
07C000000000
07C0000FF800
07C0003FFE00
07C0007FFF00
07C000FFFF80
07C000FE3F80
07C001F80FC0
07C001F80FC0
07C001F007C0
07C00FF80FC0
07C1FFF80FC0
07FFFEFE3F80
07FFFEFFFF80
07FFF87FFF00
07FF003FFE00
0000000FF800
000000000000
000000000000
000000000000
000000000000
000000000000
000000000000
000000000000
000000000000
000000000000
000000000000
000000000000
000000000000
ENDCHAR

STARTCHAR kor_A4A7
ENCODING 42151
SWIDTH 1024 0
DWIDTH 48 0
BBX 48 48 0 -6
BITMAP
000000000000
000000000000
000000000000
000000000000
000000000000
000000000000
000000000000
000000000000
000000000000
000000000000
000000000000
000000000000
007FFFFFF800
007FFFFFF800
007FFFFFF800
007FFFFFF800
007C00000000
007C00000000
007C00000000
007C00000000
007C00000000
007C00000000
007C00000000
007C00000000
007C00000000
007C00000000
007C00000000
007C00000000
007C00000000
007FFFFFFC00
007FFFFFFC00
007FFFFFFC00
007FFFFFFC00
000000000000
000000000000
000000000000
000000000000
000000000000
000000000000
000000000000
000000000000
000000000000
000000000000
000000000000
000000000000
000000000000
000000000000
000000000000
ENDCHAR

STARTCHAR kor_A4A8
ENCODING 42152
SWIDTH 1024 0
DWIDTH 48 0
BBX 48 48 0 -6
BITMAP
000000000000
000000000000
000000000000
000000000000
000000000000
000000000000
000000000000
000000000000
000000000000
000000000000
000000000000
01FFFE7FFFC0
01FFFE7FFFC0
01FFFE7FFFC0
01FFFE7FFFC0
01F0007C0000
01F0007C0000
01F0007C0000
01F0007C0000
01F0007C0000
01F0007C0000
01F0007C0000
01F0007C0000
01F0007C0000
01F0007C0000
01F0007C0000
01F0007C0000
01F0007C0000
01F0007C0000
01F0077C0000
01F0FF7C0000
01FFFF7FFFE0
01FFFF7FFFE0
01FFFC7FFFE0
01FF807FFFE0
000000000000
000000000000
000000000000
000000000000
000000000000
000000000000
000000000000
000000000000
000000000000
000000000000
000000000000
000000000000
000000000000
ENDCHAR

STARTCHAR kor_A4A9
ENCODING 42153
SWIDTH 1024 0
DWIDTH 48 0
BBX 48 48 0 -6
BITMAP
000000000000
000000000000
000000000000
000000000000
000000000000
000000000000
000000000000
000000000000
000000000000
000000000000
000000000000
003FFFFFFC00
003FFFFFFC00
003FFFFFFC00
003FFFFFFC00
000000007C00
000000007C00
000000007C00
000000007C00
000000007C00
003FFFFFFC00
003FFFFFFC00
003FFFFFFC00
003FFFFFFC00
003E00000000
003E00000000
003E00000000
003E00000000
003E00000000
003E00000000
003E00000000
003FFFFFFF00
003FFFFFFF00
003FFFFFFF00
003FFFFFFF00
000000000000
000000000000
000000000000
000000000000
000000000000
000000000000
000000000000
000000000000
000000000000
000000000000
000000000000
000000000000
000000000000
ENDCHAR

STARTCHAR kor_A4AA
ENCODING 42154
SWIDTH 1024 0
DWIDTH 48 0
BBX 48 48 0 -6
BITMAP
000000000000
000000000000
000000000000
000000000000
000000000000
000000000000
000000000000
000000000000
000000000000
000000000000
000000000000
07FFFE7FFFC0
07FFFE7FFFC0
07FFFE7FFFC0
07FFFE7FFFC0
00003E0007C0
00003E0007C0
00003E0007C0
00003E0007C0
00003E0007C0
07FFFE0007C0
07FFFE0007C0
07FFFE0007C0
07FFFE0007C0
07C0000007C0
07C0000007C0
07C0000007C0
07C0000007C0
07C0000007C0
07C001C007C0
07C07FC007C0
07FFFFC007C0
07FFFFC007C0
07FFFF0007C0
07FFC00007C0
000000000000
000000000000
000000000000
000000000000
000000000000
000000000000
000000000000
000000000000
000000000000
000000000000
000000000000
000000000000
000000000000
ENDCHAR

STARTCHAR kor_A4AB
ENCODING 42155
SWIDTH 1024 0
DWIDTH 48 0
BBX 48 48 0 -6
BITMAP
000000000000
000000000000
000000000000
000000000000
000000000000
000000000000
000000000000
000000000000
000000000000
000000000000
000000000000
07FFFC7FFFC0
07FFFC7FFFC0
07FFFC7FFFC0
07FFFC7FFFC0
00007C7C07C0
00007C7C07C0
00007C7C07C0
00007C7C07C0
00007C7C07C0
07FFFC7C07C0
07FFFC7C07C0
07FFFC7C07C0
07FFFC7C07C0
07C0007C07C0
07C0007C07C0
07C0007C07C0
07C0007C07C0
07C0007C07C0
07C0077C07C0
07C0FF7FFFC0
07FFFF7FFFC0
07FFFF7FFFC0
07FFFC7FFFC0
07FF807C07C0
000000000000
000000000000
000000000000
000000000000
000000000000
000000000000
000000000000
000000000000
000000000000
000000000000
000000000000
000000000000
000000000000
ENDCHAR

STARTCHAR kor_A4AC
ENCODING 42156
SWIDTH 1024 0
DWIDTH 48 0
BBX 48 48 0 -6
BITMAP
000000000000
000000000000
000000000000
000000000000
000000000000
000000000000
000000000000
000000000000
000000000000
000000000000
000000000000
07FFFC7C03E0
07FFFC7C03E0
07FFFC7C03E0
07FFFC7C03E0
00007C7C03E0
00007C7C03E0
00007C7C03E0
00007C7FFFE0
00007C7FFFE0
07FFFC7FFFE0
07FFFC7FFFE0
07FFFC7C03E0
07FFFC7C03E0
07C0007C03E0
07C0007C03E0
07C0007C03E0
07C0007C03E0
07C0007C03E0
07C0077C03E0
07C0FF7FFFE0
07FFFF7FFFE0
07FFFF7FFFE0
07FFFC7FFFE0
07FF807C03E0
000000000000
000000000000
000000000000
000000000000
000000000000
000000000000
000000000000
000000000000
000000000000
000000000000
000000000000
000000000000
000000000000
ENDCHAR

STARTCHAR kor_A4AD
ENCODING 42157
SWIDTH 1024 0
DWIDTH 48 0
BBX 48 48 0 -6
BITMAP
000000000000
000000000000
000000000000
000000000000
000000000000
000000000000
000000000000
000000000000
000000000000
000000000000
000000000000
07FFFC01F000
07FFFC01F000
07FFFC01F000
07FFFC01F000
00007C01F000
00007C01F000
00007C01F000
00007C03F000
00007C03F800
07FFFC03F800
07FFFC03F800
07FFFC07FC00
07FFFC07FC00
07C00007FE00
07C0000FFF00
07C0000F9F00
07C0001F9F80
07C0003F0FC0
07C0073F07E0
07C0FF7E07F0
07FFFFFC03F8
07FFFFFC01F8
07FFFDF800F0
07FF80F00060
000000600000
000000000000
000000000000
000000000000
000000000000
000000000000
000000000000
000000000000
000000000000
000000000000
000000000000
000000000000
000000000000
ENDCHAR

STARTCHAR kor_A4AE
ENCODING 42158
SWIDTH 1024 0
DWIDTH 48 0
BBX 48 48 0 -6
BITMAP
000000000000
000000000000
000000000000
000000000000
000000000000
000000000000
000000000000
000000000000
000000000000
000000000000
000000000000
07FFFE3FFFE0
07FFFE3FFFE0
07FFFE3FFFE0
07FFFE3FFFE0
00003E3E0000
00003E3E0000
00003E3E0000
00003E3E0000
00003E3E0000
07FFFE3FFFE0
07FFFE3FFFE0
07FFFE3FFFE0
07FFFE3FFFE0
07C0003E0000
07C0003E0000
07C0003E0000
07C0003E0000
07C0003E0000
07C003BE0000
07C0FFBE0000
07FFFFBFFFF0
07FFFFBFFFF0
07FFFE3FFFF0
07FF803FFFF0
000000000000
000000000000
000000000000
000000000000
000000000000
000000000000
000000000000
000000000000
000000000000
000000000000
000000000000
000000000000
000000000000
ENDCHAR

STARTCHAR kor_A4AF
ENCODING 42159
SWIDTH 1024 0
DWIDTH 48 0
BBX 48 48 0 -6
BITMAP
000000000000
000000000000
000000000000
000000000000
000000000000
000000000000
000000000000
000000000000
000000000000
000000000000
000000000000
07FFFCFFFFE0
07FFFCFFFFE0
07FFFCFFFFE0
07FFFCFFFFE0
00007C000000
00007C3E0F80
00007C3E0F80
00007C3E0F80
00007C3E0F80
07FFFC3E0F80
07FFFC3E0F80
07FFFC3E0F80
07FFFC3E0F80
07C0003E0F80
07C0003F1F80
07C0001F1F00
07C0001F1F00
07C0001F1F00
07C0071F1F00
07C1FF1F1F00
07FFFFFFFFF0
07FFFFFFFFF0
07FFFDFFFFF0
07FF01FFFFF0
000000000000
000000000000
000000000000
000000000000
000000000000
000000000000
000000000000
000000000000
000000000000
000000000000
000000000000
000000000000
000000000000
ENDCHAR

STARTCHAR kor_A4B0
ENCODING 42160
SWIDTH 1024 0
DWIDTH 48 0
BBX 48 48 0 -6
BITMAP
000000000000
000000000000
000000000000
000000000000
000000000000
000000000000
000000000000
000000000000
000000000000
000000000000
0000001FFC00
07FFF81FFC00
07FFF81FFC00
07FFF81FFC00
07FFF8000000
0000F8000000
0000FFFFFFF0
0000FFFFFFF0
0000FFFFFFF0
0000FFFFFFF0
07FFF8000000
07FFF80FF800
07FFF83FFE00
07FFF87FFF00
07C000FFFF80
07C000FE3F80
07C001F80FC0
07C001F80FC0
07C001F007C0
07C00FF80FC0
07C1FFF80FC0
07FFFEFE3F80
07FFFEFFFF80
07FFF87FFF00
07FF003FFE00
0000000FF800
000000000000
000000000000
000000000000
000000000000
000000000000
000000000000
000000000000
000000000000
000000000000
000000000000
000000000000
000000000000
ENDCHAR

STARTCHAR kor_A4B1
ENCODING 42161
SWIDTH 1024 0
DWIDTH 48 0
BBX 48 48 0 -6
BITMAP
000000000000
000000000000
000000000000
000000000000
000000000000
000000000000
000000000000
000000000000
000000000000
000000000000
000000000000
000000000000
007FFFFFFE00
007FFFFFFE00
007FFFFFFE00
007FFFFFFE00
007C00003E00
007C00003E00
007C00003E00
007C00003E00
007C00003E00
007C00003E00
007C00003E00
007C00003E00
007C00003E00
007C00003E00
007C00003E00
007C00003E00
007C00003E00
007C00003E00
007FFFFFFE00
007FFFFFFE00
007FFFFFFE00
007FFFFFFE00
007C00003E00
000000000000
000000000000
000000000000
000000000000
000000000000
000000000000
000000000000
000000000000
000000000000
000000000000
000000000000
000000000000
000000000000
ENDCHAR

STARTCHAR kor_A4B2
ENCODING 42162
SWIDTH 1024 0
DWIDTH 48 0
BBX 48 48 0 -6
BITMAP
000000000000
000000000000
000000000000
000000000000
000000000000
000000000000
000000000000
000000000000
000000000000
000000000000
000000000000
001F0000F800
001F0000F800
001F0000F800
001F0000F800
001F0000F800
001F0000F800
001F0000F800
001FFFFFF800
001FFFFFF800
001FFFFFF800
001FFFFFF800
001F0000F800
001F0000F800
001F0000F800
001F0000F800
001F0000F800
001F0000F800
001F0000F800
001F0000F800
001FFFFFF800
001FFFFFF800
001FFFFFF800
001FFFFFF800
001F0000F800
000000000000
000000000000
000000000000
000000000000
000000000000
000000000000
000000000000
000000000000
000000000000
000000000000
000000000000
000000000000
000000000000
ENDCHAR

STARTCHAR kor_A4B3
ENCODING 42163
SWIDTH 1024 0
DWIDTH 48 0
BBX 48 48 0 -6
BITMAP
000000000000
000000000000
000000000000
000000000000
000000000000
000000000000
000000000000
000000000000
000000000000
000000000000
000000000000
03E03E3E03E0
03E03E3E03E0
03E03E3E03E0
03E03E3E03E0
03E03E3E03E0
03E03E3E03E0
03E03E3E03E0
03FFFE3FFFE0
03FFFE3FFFE0
03FFFE3FFFE0
03FFFE3FFFE0
03E03E3E03E0
03E03E3E03E0
03E03E3E03E0
03E03E3E03E0
03E03E3E03E0
03E03E3E03E0
03E03E3E03E0
03E03E3E03E0
03FFFE3FFFE0
03FFFE3FFFE0
03FFFE3FFFE0
03FFFE3FFFE0
03E03E3E03E0
000000000000
000000000000
000000000000
000000000000
000000000000
000000000000
000000000000
000000000000
000000000000
000000000000
000000000000
000000000000
000000000000
ENDCHAR

STARTCHAR kor_A4B4
ENCODING 42164
SWIDTH 1024 0
DWIDTH 48 0
BBX 48 48 0 -6
BITMAP
000000000000
000000000000
000000000000
000000000000
000000000000
000000000000
000000000000
000000000000
000000000000
000000000000
000000000000
03E03E00F800
03E03E00F800
03E03E00F800
03E03E00F800
03E03E00F800
03E03E00F800
03E03E00F800
03FFFE00F800
03FFFE00F800
03FFFE01F800
03FFFE01FC00
03E03E01FC00
03E03E03FC00
03E03E03FE00
03E03E07FF00
03E03E0FFF00
03E03E0FDF80
03E03E1F8FC0
03E03E3F0FE0
03FFFE7F07F0
03FFFEFE03F8
03FFFFFC01F8
03FFFFF800F0
03E03EF00060
000000600000
000000000000
000000000000
000000000000
000000000000
000000000000
000000000000
000000000000
000000000000
000000000000
000000000000
000000000000
000000000000
ENDCHAR

ENDFONT
